<svg width="21" height="27" viewBox="0 0 21 27" fill="none" xmlns="http://www.w3.org/2000/svg">
<path d="M16.1778 16.6373C16.2291 16.5168 16.2838 16.4109 16.3474 16.3473C16.4979 16.1978 16.8515 16.0908 17.1939 15.987C17.7627 15.8141 18.4085 15.619 18.733 15.0579C19.0532 14.5048 18.9014 13.8534 18.7688 13.279C18.6862 12.9266 18.6015 12.5618 18.6594 12.3488C18.7096 12.1536 18.9695 11.8781 19.1981 11.635C19.6097 11.1967 20.0759 10.7004 20.0759 10.0379C20.0759 9.37543 19.6097 8.87913 19.1981 8.4408C18.9695 8.19765 18.7107 7.92218 18.6594 7.72811C18.6026 7.51507 18.6873 7.14926 18.7688 6.79683C18.9015 6.22242 19.0532 5.57111 18.733 5.01677C18.4085 4.45574 17.7638 4.26058 17.1939 4.08884C16.8515 3.98511 16.499 3.87804 16.3485 3.72857C16.1979 3.5791 16.0919 3.22557 15.9882 2.88313C15.8164 2.31432 15.6212 1.66964 15.0603 1.34508C14.5037 1.02277 13.8546 1.17444 13.2791 1.30828C12.9267 1.38968 12.5631 1.47448 12.3489 1.4176C12.1538 1.36516 11.8782 1.10642 11.6351 0.877796C11.1968 0.466189 10.7004 0 10.0379 0C9.37654 0 8.88024 0.466189 8.44191 0.877744C8.19766 1.10637 7.92219 1.36516 7.72697 1.41754C7.51283 1.47552 7.14812 1.38968 6.79679 1.30823C6.22019 1.17439 5.56992 1.02382 5.01563 1.34393C4.45576 1.66849 4.26054 2.31317 4.0888 2.88308C3.98507 3.22547 3.878 3.57905 3.72853 3.72852C3.57796 3.87799 3.22439 3.98506 2.882 4.08878C2.31318 4.26168 1.66741 4.45684 1.34285 5.01787C1.02273 5.57105 1.17445 6.22242 1.30714 6.79683C1.38969 7.14926 1.47444 7.51397 1.41646 7.72701C1.36627 7.92218 1.10638 8.1977 0.877757 8.4408C0.466254 8.87913 1.32893e-05 9.37653 1.32893e-05 10.0379C1.32893e-05 10.6993 0.466202 11.1967 0.877757 11.6351C1.10638 11.8782 1.36517 12.1537 1.41646 12.3478C1.47334 12.5608 1.38859 12.9266 1.30714 13.279C1.1744 13.8534 1.02273 14.5048 1.34285 15.0591C1.66741 15.6201 2.31208 15.8153 2.882 15.987C3.22439 16.0908 3.57686 16.1978 3.72743 16.3473C3.79101 16.4109 3.84564 16.5157 3.89698 16.6361L0.0424129 25.9972C-0.0468306 26.2124 0.00785533 26.46 0.17735 26.6184C0.283323 26.7165 0.419358 26.7679 0.557694 26.7679C0.642441 26.7679 0.727241 26.7489 0.807544 26.7076L4.97888 24.622L8.05608 26.6731C8.19771 26.7668 8.37505 26.7902 8.53681 26.74C8.69851 26.6876 8.8279 26.5649 8.88703 26.4054L10.105 23.1576L11.1813 26.3864C11.2371 26.5515 11.3664 26.6809 11.5304 26.7378C11.6943 26.7935 11.875 26.7712 12.02 26.6742L15.0972 24.6231L19.2685 26.7087C19.3488 26.7489 19.4336 26.7679 19.5184 26.7679C19.6566 26.7679 19.7927 26.7166 19.8975 26.6196C20.0671 26.4612 20.1217 26.2136 20.0325 25.9983L16.1778 16.6373ZM9.51597 21.5514L8.08949 25.3547L5.32796 23.5144C5.15956 23.404 4.94652 23.3895 4.76918 23.4799L1.63954 25.0446L4.47468 18.1575C4.60852 18.385 4.77357 18.5903 5.01563 18.7308C5.57216 19.0531 6.22243 18.9014 6.79679 18.7676C7.14812 18.6862 7.51173 18.5992 7.72697 18.6583C7.92214 18.7107 8.19766 18.9694 8.44076 19.1981C8.59803 19.3453 8.76642 19.4936 8.94266 19.6308C8.94711 19.652 8.94376 19.6732 8.95045 19.6944L9.55048 21.4956C9.54055 21.5157 9.52382 21.5303 9.51597 21.5514ZM10.0368 18.9606C9.81711 18.9606 9.49145 18.655 9.2037 18.385C8.84903 18.0505 8.48097 17.7058 8.01478 17.5809C7.86421 17.5408 7.71254 17.524 7.55973 17.524C7.22178 17.524 6.8794 17.6043 6.5459 17.6813C6.18897 17.7649 5.7473 17.8676 5.57556 17.766C5.39598 17.6623 5.26883 17.2418 5.15622 16.8704C5.01344 16.3964 4.86621 15.9068 4.51714 15.5588C4.16915 15.2108 3.67954 15.0625 3.20551 14.9197C2.83411 14.8082 2.41361 14.6811 2.30879 14.5015C2.20951 14.3286 2.31214 13.8869 2.39469 13.5311C2.50735 13.0449 2.62331 12.543 2.49507 12.06C2.36902 11.5938 2.02438 11.2269 1.69093 10.8711C1.41991 10.5833 1.11433 10.2577 1.11433 10.0379C1.11433 9.8182 1.42106 9.49254 1.69093 9.20478C2.02443 8.85011 2.37017 8.48205 2.49507 8.01586C2.62331 7.53404 2.50735 7.03215 2.39469 6.54588C2.31214 6.19011 2.20956 5.74844 2.30879 5.57665C2.41361 5.39706 2.83411 5.26992 3.20661 5.1573C3.68064 5.01452 4.16915 4.8662 4.51823 4.51822C4.86512 4.17134 5.01344 3.68063 5.15731 3.20769C5.26998 2.83629 5.39713 2.4147 5.57556 2.31097C5.75065 2.21284 6.19122 2.31432 6.5448 2.39687C7.02887 2.50954 7.52961 2.62664 8.01478 2.49725C8.48097 2.37235 8.84903 2.02656 9.20485 1.69312C9.49151 1.42319 9.81716 1.11761 10.0369 1.11761C10.2566 1.11761 10.5823 1.42319 10.87 1.69312C11.2247 2.02771 11.5928 2.37235 12.059 2.49725C12.543 2.62664 13.0449 2.50954 13.5279 2.39687C13.8836 2.31322 14.3264 2.21174 14.4982 2.31212C14.6778 2.41585 14.8049 2.83634 14.9175 3.20775C15.0603 3.68178 15.2075 4.17139 15.5566 4.51937C15.9046 4.86735 16.3942 5.01567 16.8682 5.15845C17.2396 5.26997 17.6601 5.39711 17.765 5.5767C17.8642 5.74959 17.7616 6.19126 17.6791 6.54703C17.5664 7.0333 17.4504 7.53519 17.5787 8.01817C17.7047 8.48435 18.0494 8.85131 18.3828 9.20709C18.6538 9.49484 18.9594 9.8205 18.9594 10.0402C18.9594 10.26 18.6527 10.5856 18.3828 10.8734C18.0493 11.2281 17.7036 11.5961 17.5787 12.0623C17.4504 12.5441 17.5664 13.046 17.6791 13.5323C17.7616 13.8881 17.8642 14.3297 17.765 14.5015C17.6601 14.6811 17.2396 14.8083 16.8671 14.9209C16.3931 15.0636 15.9046 15.212 15.5555 15.5599C15.2086 15.9068 15.0603 16.3975 14.9164 16.8705C14.8038 17.2419 14.6766 17.6635 14.4982 17.7672C14.3264 17.8665 13.8836 17.7638 13.5289 17.6813C13.0449 17.5686 12.5441 17.4515 12.059 17.5809C11.5928 17.7058 11.2247 18.0516 10.8689 18.385C10.5822 18.6549 10.2566 18.9606 10.0368 18.9606ZM15.3057 23.481C15.1272 23.3906 14.9131 23.404 14.7469 23.5155L12.0088 25.3413L10.2421 20.0413C10.7998 19.9566 11.2436 19.5651 11.634 19.1981C11.8783 18.9695 12.1538 18.7107 12.349 18.6583C12.5642 18.6014 12.9278 18.6862 13.2792 18.7676C13.8558 18.9015 14.506 19.052 15.0603 18.7319C15.3012 18.5925 15.4663 18.3862 15.6001 18.1587L18.4353 25.0458L15.3057 23.481Z" fill="#AAB1C4"/>
<path d="M16.7296 10.0379C16.7296 6.34729 13.7283 3.34595 10.0377 3.34595C6.34704 3.34595 3.3457 6.34729 3.3457 10.0379C3.3457 13.7285 6.34704 16.7299 10.0377 16.7299C13.7283 16.7299 16.7296 13.7285 16.7296 10.0379ZM10.0377 15.6145C6.9627 15.6145 4.46101 13.1129 4.46101 10.0379C4.46101 6.96295 6.9627 4.46126 10.0377 4.46126C13.1126 4.46126 15.6143 6.96295 15.6143 10.0379C15.6143 13.1129 13.1126 15.6145 10.0377 15.6145Z" fill="#AAB1C4"/>
</svg>
