<svg width="27" height="26" viewBox="0 0 27 26" fill="none" xmlns="http://www.w3.org/2000/svg">
<path d="M17.2114 17.7822V17.3161C17.3431 17.2098 17.4698 17.0932 17.5914 16.9716C18.5649 15.8997 19.1779 14.5496 19.3442 13.1112C20.2192 12.9779 21.0078 12.509 21.543 11.8042C22.2776 10.7656 22.3434 9.27108 21.7304 7.3966C21.6944 7.2885 21.623 7.19566 21.5278 7.13316L21.2491 6.94571C21.2902 5.25437 20.7057 3.60736 19.6077 2.3203C18.2449 0.785255 16.1526 0.0101323 13.3814 0C10.6153 0 8.51787 0.785255 7.15507 2.30004C6.05705 3.5871 5.47254 5.23411 5.51364 6.92544L5.235 7.11289C5.13976 7.1754 5.06839 7.26823 5.03235 7.37633C4.41935 9.26094 4.48521 10.7453 5.2198 11.7839C5.75295 12.4937 6.54156 12.968 7.41851 13.1062C7.58557 14.5468 8.20048 15.8988 9.17647 16.9716C9.29711 17.093 9.42389 17.208 9.55643 17.3161V17.7822C7.61609 18.1571 -0.13006 19.9759 0.00165988 25.1434C0.00165988 25.4231 0.228497 25.65 0.508276 25.65H26.2596C26.5393 25.65 26.7662 25.4231 26.7662 25.1434C26.8979 19.9759 19.1517 18.1571 17.2114 17.7822ZM7.11454 11.9764C6.68405 11.8318 6.30884 11.5576 6.04052 11.1912L6.06585 11.1962C5.55923 10.4566 5.51364 9.33694 5.96453 7.85762L6.33436 7.60937C6.48995 7.50552 6.57563 7.3244 6.55727 7.13822C6.47203 5.62407 6.96452 4.13392 7.93526 2.96877C9.08021 1.67183 10.9192 1.02336 13.3814 1.01323C15.8435 1.0031 17.6825 1.67183 18.8478 2.96877C19.8185 4.13392 20.311 5.62407 20.2258 7.13822C20.2074 7.3244 20.2931 7.50552 20.4487 7.60937L20.8185 7.85762C21.2694 9.33187 21.239 10.4566 20.7172 11.1962C20.447 11.5629 20.0702 11.8372 19.6381 11.9815C20.2492 11.2861 20.5478 10.3703 20.4639 9.44839C20.3689 8.89371 20.0798 8.39096 19.6482 8.02987C19.4304 2.9637 15.879 2.39629 14.349 2.39629C14.0252 2.39534 13.7017 2.41909 13.3814 2.46722C13.0611 2.41903 12.7376 2.39534 12.4137 2.39629C10.8939 2.39629 7.34759 2.95357 7.11454 8.02987C6.68018 8.38804 6.38749 8.88909 6.28876 9.44333C6.20428 10.3653 6.50293 11.2814 7.11454 11.9764ZM18.6401 7.82215C16.5142 7.94501 14.4017 7.41464 12.586 6.30231C12.3805 6.15798 12.1003 6.18604 11.9274 6.36817C10.9142 7.45739 9.06501 7.7107 8.17337 7.76643C8.44694 4.18465 10.6153 3.40446 12.4391 3.40446C12.7294 3.40237 13.0193 3.42612 13.3054 3.47539C13.3723 3.48907 13.4412 3.48907 13.508 3.47539C13.7941 3.42625 14.0841 3.4025 14.3743 3.40446C16.183 3.40446 18.3614 4.20491 18.6147 7.81709L18.6401 7.82215ZM8.35069 12.0727L8.37095 12.0777C8.37203 11.9528 8.32694 11.832 8.2443 11.7383C7.55023 10.9429 7.23107 10.2184 7.31719 9.62064C7.35848 9.28767 7.52294 8.98224 7.77821 8.76446C8.44694 8.76446 10.8179 8.6378 12.3378 7.32567C14.0494 8.30971 15.9868 8.83336 17.9612 8.84552C18.3006 8.84552 18.6451 8.84552 19.0048 8.78979C19.2531 9.00181 19.4153 9.29729 19.4608 9.62064C19.5469 10.2083 19.2277 10.9429 18.5337 11.7383C18.451 11.832 18.4059 11.9528 18.407 12.0777C18.407 12.0777 18.407 12.1791 18.407 12.3412L15.4585 13.9218C14.8734 13.3678 13.9499 13.3931 13.3959 13.9782C12.8419 14.5634 12.8672 15.4869 13.4523 16.0409C14.0374 16.5948 14.9609 16.5696 15.5149 15.9844C15.7717 15.7133 15.9146 15.354 15.9145 14.9806C15.9167 14.935 15.9167 14.8894 15.9145 14.8439L18.2398 13.5976C18.0402 14.5966 17.5706 15.5217 16.8821 16.2725C15.984 17.1372 14.7683 17.5919 13.5232 17.5289H13.2699C12.0275 17.5906 10.8145 17.1381 9.91613 16.2776C8.31522 14.6817 8.35069 12.098 8.35069 12.0727ZM14.9012 14.9806C14.9012 15.2296 14.6993 15.4315 14.4503 15.4315C14.2013 15.4315 13.9995 15.2296 13.9995 14.9806C13.9995 14.7316 14.2013 14.5298 14.4503 14.5298C14.6993 14.5298 14.9012 14.7316 14.9012 14.9806ZM12.8748 24.6063H1.03009C1.43032 20.8017 7.61609 19.2109 9.55137 18.8005V19.7074C9.55137 20.8574 10.9496 21.7338 12.8748 21.8808V24.6063ZM10.5646 19.7074V19.6922V17.9595C11.4067 18.3501 12.3266 18.5441 13.2547 18.527H13.508C14.4362 18.5441 15.356 18.3501 16.1982 17.9595V19.7074C16.1982 20.1887 15.0988 20.8827 13.3814 20.8827C11.664 20.8827 10.5646 20.1887 10.5646 19.7074ZM13.888 24.6215V21.8757C15.8131 21.744 17.2114 20.8625 17.2114 19.7023V18.8157C19.1619 19.221 25.3172 20.8118 25.7327 24.6215H13.888Z" fill="#AAB1C4"/>
</svg>
