<svg width="27" height="27" viewBox="0 0 27 27" fill="none" xmlns="http://www.w3.org/2000/svg">
<g clip-path="url(#clip0)">
<path d="M27 9.19534C26.9994 8.78543 26.8788 8.36973 26.6122 8.02706L24.4729 5.28972C24.1146 4.83473 23.5694 4.60307 23.0245 4.60217C22.7003 4.60217 22.3701 4.68528 22.0784 4.86722L19.9924 6.16501C19.773 6.30491 19.3969 6.40094 19.0336 6.39846C18.7514 6.39968 18.4787 6.3432 18.2986 6.25424L16.2558 5.26478C15.9264 5.10616 15.5591 5.04113 15.1897 5.0405C14.6593 5.04298 14.1221 5.17334 13.6904 5.4725L13.452 5.63972C13.2615 5.54464 12.9703 5.39978 12.6405 5.23567C12.245 5.04177 11.78 4.96356 11.3102 4.96203C10.8859 4.96325 10.4616 5.02864 10.0891 5.186L8.69775 5.77968C8.4713 5.87787 8.11113 5.942 7.75338 5.94041C7.39563 5.94194 7.03609 5.87782 6.80964 5.77968L5.41703 5.18568C5.16301 5.07736 4.89148 5.03106 4.62238 5.03075C4.31251 5.03106 4.00449 5.09213 3.7182 5.20809C3.43227 5.32469 3.16686 5.49681 2.9555 5.73301L0.420031 8.57254C0.13901 8.88637 -0.000578278 9.28156 1.80046e-06 9.67058C-0.000578278 10.1345 0.197914 10.5999 0.580765 10.926L2.9459 12.9439L1.82393 14.1143C1.51464 14.4371 1.36065 14.8556 1.36065 15.2694C1.36007 15.7097 1.53494 16.1542 1.8813 16.4815L2.1089 16.6978C2.32337 16.9013 2.58109 17.0307 2.85077 17.0997C2.71551 17.3485 2.64157 17.6213 2.64215 17.8946C2.64157 18.3352 2.81644 18.7794 3.16217 19.1071L3.16159 19.1068L3.38987 19.324C3.71482 19.632 4.13606 19.7855 4.55108 19.7852C4.77415 19.7855 4.99748 19.7407 5.20736 19.6529C5.28103 19.9518 5.43317 20.2359 5.67248 20.4629L5.90077 20.6801C6.22572 20.9881 6.64627 21.1415 7.06198 21.1413C7.38693 21.1416 7.71335 21.0458 7.99437 20.8599C8.07659 21.1244 8.21744 21.375 8.43186 21.5787L8.66015 21.796C8.98441 22.104 9.40565 22.2574 9.82078 22.2571C10.2628 22.2574 10.7093 22.0838 11.039 21.7395L12.0307 20.704L13.3779 21.9509C13.7003 22.25 14.1143 22.3988 14.5228 22.3979C14.9717 22.3989 15.4245 22.219 15.755 21.8653L15.97 21.6349C16.1557 21.4355 16.2768 21.1995 16.3471 20.9532L16.869 21.4349C17.192 21.7328 17.6054 21.881 18.0134 21.8806C18.4628 21.881 18.9169 21.7011 19.2477 21.3471L19.4615 21.117C19.7085 20.8532 19.8475 20.5264 19.8904 20.1926C20.0281 20.2279 20.1677 20.2518 20.3085 20.2518C20.758 20.2518 21.2108 20.0723 21.5419 19.7186L21.7564 19.4885C22.0561 19.1672 22.2052 18.7552 22.2046 18.349C22.2046 18.2229 22.1865 18.0975 22.1586 17.9735C22.5313 17.9241 22.8928 17.7578 23.1676 17.4627L23.3827 17.2323C23.6824 16.911 23.8309 16.499 23.8309 16.0925C23.8315 15.6452 23.6512 15.1938 23.2953 14.865L22.893 14.4935L26.5232 10.4798C26.8491 10.1185 26.9994 9.65339 27 9.19534ZM3.27027 16.2457C3.07795 16.2451 2.88985 16.1763 2.74287 16.037L2.5149 15.8208C2.35718 15.6716 2.27929 15.4732 2.27865 15.2694C2.27929 15.0783 2.34768 14.8918 2.48854 14.7448L4.78649 12.3468C4.9362 12.1906 5.13596 12.1124 5.34089 12.1121C5.53263 12.1124 5.7201 12.1815 5.86828 12.3211L6.0953 12.5376C6.0953 12.5376 6.33034 12.8852 6.33092 13.0892C6.33034 13.242 6.2843 13.3908 6.19502 13.5197C6.18738 13.5274 3.71482 16.1042 3.71482 16.1042C3.58351 16.1971 3.42826 16.245 3.27027 16.2457ZM5.10553 18.6375C4.95614 18.7931 4.7567 18.871 4.55177 18.8716C4.35945 18.8713 4.17192 18.8023 4.02437 18.663L3.79609 18.4461L3.79551 18.4457C3.63904 18.2972 3.56047 18.0982 3.56047 17.8944C3.56047 17.7033 3.6295 17.5167 3.76967 17.3697C3.76967 17.3697 6.83279 14.1812 6.85858 14.1504C7.00497 14.0096 7.1936 13.9369 7.3884 13.9366C7.58073 13.9369 7.76825 14.0056 7.9158 14.1452L8.14409 14.3624C8.30113 14.5109 8.37912 14.7097 8.37971 14.9137C8.37907 15.1049 8.31009 15.2917 8.16982 15.4387L5.10553 18.6375ZM7.61606 19.9932C7.46698 20.1492 7.26759 20.2272 7.06261 20.2277C6.87029 20.2274 6.68277 20.1584 6.53521 20.0188L6.30629 19.8019C6.14925 19.653 6.07068 19.4543 6.07068 19.2505C6.07068 19.08 6.12868 18.9145 6.23969 18.7768L8.3729 16.5503C8.51681 16.4205 8.69717 16.3521 8.88406 16.3521C9.07638 16.3524 9.2639 16.4212 9.41145 16.5607L9.64037 16.778C9.79684 16.9265 9.87541 17.1253 9.87599 17.329C9.87536 17.5205 9.80575 17.7073 9.66611 17.8539L7.61606 19.9932ZM11.6693 19.7582L10.3749 21.1092C10.2258 21.265 10.0261 21.343 9.82115 21.3436C9.62882 21.3433 9.4413 21.2743 9.29375 21.1347L9.06546 20.9177C8.909 20.7692 8.83043 20.5701 8.82985 20.3664C8.83043 20.1749 8.89946 19.9881 9.03973 19.8417L10.3336 18.4908C10.4833 18.335 10.683 18.2567 10.888 18.2564C11.0797 18.2567 11.2678 18.3255 11.4154 18.4654L11.6443 18.6823C11.8007 18.8308 11.8787 19.0296 11.8793 19.2333C11.8786 19.4248 11.8095 19.6116 11.6693 19.7582ZM22.9143 16.0937C22.914 16.2813 22.8468 16.4651 22.7106 16.6111L22.4961 16.8412C22.3464 17.0014 22.1433 17.0824 21.9353 17.0827C21.7466 17.0824 21.5619 17.0161 21.4153 16.8806L17.8011 13.5382L17.1762 14.2074L21.0447 17.7911C21.2058 17.9403 21.2867 18.1428 21.2879 18.3495C21.2867 18.5379 21.2201 18.7214 21.0842 18.8675L20.8704 19.0976C20.7207 19.2577 20.5175 19.3384 20.3095 19.3391C20.1209 19.3385 19.9355 19.2719 19.7901 19.1372L16.175 15.7949L15.5507 16.464L18.7589 19.4309C18.9136 19.5791 18.9928 19.7763 18.9928 19.9788C18.9928 20.1666 18.9262 20.3503 18.7903 20.496L18.5758 20.7262C18.4267 20.8863 18.2229 20.9673 18.0144 20.9679C17.8251 20.9673 17.6404 20.9007 17.4944 20.7661L14.2925 17.81H14.292L14.2914 17.8094L13.6683 18.4798L13.6689 18.4803L13.6809 18.4917L15.2845 19.9717C15.4266 20.1177 15.5002 20.3049 15.5008 20.4985C15.5002 20.6853 15.4342 20.8681 15.2983 21.014L15.0838 21.2444C14.9341 21.4045 14.7316 21.4849 14.5242 21.4855C14.3355 21.4849 14.1508 21.4186 14.0048 21.2834L12.6085 19.9905C12.73 19.7521 12.7978 19.4935 12.7978 19.2339C12.7984 18.7936 12.6236 18.3497 12.2778 18.0218L12.0489 17.8045C11.7246 17.4968 11.304 17.3431 10.8889 17.3437C10.8567 17.3437 10.8242 17.3511 10.7926 17.3529C10.7926 17.3453 10.7944 17.3373 10.7944 17.3296C10.795 16.8893 10.2744 16.1168 10.2744 16.1168L10.0461 15.9002C9.80343 15.6701 9.50732 15.5266 9.19936 15.4689C9.26285 15.2891 9.29876 15.102 9.29876 14.9145C9.29876 14.4742 9.12447 14.0299 8.77875 13.7023L8.55046 13.4851C8.22551 13.1771 7.80495 13.0234 7.38983 13.0237C7.34136 13.0237 7.29354 13.0335 7.24534 13.0378C7.23215 12.6151 7.06187 12.1926 6.73054 11.8778V11.8775L6.50289 11.6612C6.17794 11.3529 5.75738 11.1992 5.34226 11.1995C4.8995 11.1992 4.45374 11.3728 4.12399 11.7171L3.58156 12.2831L1.17867 10.2337C1.00596 10.0858 0.919742 9.88146 0.919109 9.67163C0.919689 9.49582 0.979543 9.32369 1.10716 9.18078L3.64258 6.3413C3.74319 6.2284 3.89201 6.12625 4.0663 6.05532C4.24058 5.98445 4.43844 5.94553 4.62344 5.94579C4.78454 5.94579 4.93573 5.97495 5.05665 6.02711L6.44862 6.62106C6.84102 6.78643 7.29659 6.85425 7.75443 6.85572C8.2128 6.85419 8.66779 6.78638 9.06024 6.62106L10.4516 6.02737C10.6661 5.93382 10.9897 5.87581 11.3115 5.87703C11.6674 5.87486 12.0239 5.94853 12.2307 6.05406C12.362 6.11939 12.4866 6.18141 12.6022 6.23936L11.1832 7.23684C10.7273 7.55746 10.4815 8.06735 10.4822 8.58188C10.4816 8.92244 10.5895 9.26911 10.8092 9.56332L10.8087 9.56268L10.9961 9.81454C11.352 10.2877 11.9069 10.5309 12.4617 10.5322C12.7749 10.5322 13.094 10.453 13.3784 10.2824L14.227 9.77278C14.4001 9.66694 14.6614 9.60007 14.9317 9.60129C15.2493 9.59944 15.5692 9.69336 15.7616 9.83474L18.1093 11.5179C18.6318 11.8922 19.4828 12.5865 19.9544 13.0234L22.6718 15.5358C22.8327 15.685 22.9137 15.8866 22.9143 16.0937ZM25.8418 9.86907L22.2218 13.8719L20.5783 12.3526C20.0635 11.8774 19.2146 11.1844 18.6451 10.7754L16.2981 9.09224C15.9002 8.81032 15.4129 8.68845 14.9313 8.68666C14.5214 8.68787 14.1084 8.77721 13.7519 8.98946L12.9039 9.49909C12.7738 9.57729 12.6205 9.61721 12.4612 9.61753C12.1764 9.61848 11.8914 9.48559 11.7326 9.26927L11.5457 9.01773L11.5451 9.0171C11.4457 8.88304 11.3994 8.7327 11.3987 8.58051C11.3999 8.35037 11.5061 8.12704 11.7117 7.98192L14.2207 6.21901C14.4377 6.06197 14.8236 5.9518 15.1902 5.95455C15.4449 5.95333 15.6882 6.00454 15.8548 6.0868L17.8974 7.07626C18.2457 7.24348 18.6387 7.31188 19.0341 7.31282C19.5421 7.31035 20.0557 7.19992 20.4789 6.94005L22.5655 5.64199C22.6986 5.55888 22.8585 5.5159 23.0251 5.5159C23.3067 5.51532 23.589 5.64294 23.7488 5.85124L25.8881 8.58858C26.0115 8.74535 26.083 8.96652 26.083 9.19576C26.0833 9.4521 25.9928 9.70433 25.8418 9.86907Z" fill="#AAB1C4"/>
</g>
<defs>
<clipPath id="clip0">
<rect width="27" height="27" fill="white"/>
</clipPath>
</defs>
</svg>
