<svg width="27" height="27" viewBox="0 0 27 27" fill="none" xmlns="http://www.w3.org/2000/svg">
<g clip-path="url(#clip0)">
<path d="M26.5502 1.17813e-08C26.5502 1.17813e-08 26.5501 1.17813e-08 26.55 1.17813e-08H0.45C0.201544 -5.62382e-05 5.625e-05 0.201319 0 0.449775C0 0.449831 0 0.449944 0 0.45V9.45H0.9V0.9H26.1V10.8H10.35V11.7H26.55C26.7985 11.7001 26.9999 11.4987 27 11.2502C27 11.2502 27 11.2501 27 11.25V0.45C27.0001 0.201544 26.7987 5.62618e-05 26.5502 1.17813e-08Z" fill="#AAB1C4"/>
<path d="M23.8496 2.25H14.8496V3.15H23.8496V2.25Z" fill="#AAB1C4"/>
<path d="M25.2002 4.95007H16.2002V5.85007H25.2002V4.95007Z" fill="#AAB1C4"/>
<path d="M23.4004 7.65002H14.4004V8.55002H23.4004V7.65002Z" fill="#AAB1C4"/>
<path d="M14.3641 3.87971C14.056 3.13918 13.206 2.78863 12.4655 3.09671C12.4529 3.102 12.4403 3.1074 12.4278 3.11303L8.77894 5.00584C8.92283 4.7076 8.99837 4.38101 9 4.04993C9 2.80731 7.99262 1.79993 6.75 1.79993C5.50738 1.79993 4.5 2.80731 4.5 4.04993C4.50169 4.53835 4.66386 5.0127 4.96153 5.39993H4.9428C3.66548 5.40848 2.52523 6.20256 2.07428 7.3977L0.873 11.5382C0.587025 12.281 0.957375 13.1151 1.70027 13.4011C2.03901 13.5315 2.41447 13.5293 2.75169 13.3949C3.13914 13.2388 3.44064 12.9236 3.57941 12.5296L4.05 11.032V17.5448C3.66278 17.2471 3.18842 17.085 2.7 17.0832C1.45924 17.0814 0.451856 18.0857 0.45 19.3265C0.4491 19.9342 0.69435 20.5163 1.12989 20.9401C0.438694 21.2932 0.00270001 22.0028 1.17813e-08 22.779V26.5499C-5.62382e-05 26.7984 0.201319 26.9999 0.449775 26.9999C0.449831 26.9999 0.449944 26.9999 0.45 26.9999H4.95C5.19846 27 5.39994 26.7986 5.4 26.5502C5.4 26.5501 5.4 26.55 5.4 26.5499V22.779C5.39781 22.1412 5.10148 21.5401 4.59698 21.1499H8.00308C7.49852 21.5401 7.20219 22.1412 7.20006 22.779V26.5499C7.2 26.7984 7.40137 26.9999 7.64983 26.9999C7.64989 26.9999 7.65 26.9999 7.65006 26.9999H12.1501C12.3985 27 12.6 26.7986 12.6001 26.5502C12.6001 26.5501 12.6001 26.55 12.6001 26.5499V22.779C12.5974 22.0028 12.1614 21.2932 11.4702 20.9401C12.3586 20.0729 12.3759 18.6496 11.5087 17.7611C10.9747 17.2139 10.1991 16.9757 9.45006 17.1287V7.92324L13.5811 5.77826C14.3216 5.47024 14.6721 4.62019 14.3641 3.87971ZM6.75 2.69993C7.49559 2.69993 8.1 3.30433 8.1 4.04993C8.1 4.79552 7.49559 5.39993 6.75 5.39993C6.00474 5.39914 5.40079 4.79518 5.4 4.04993C5.4 3.30433 6.00441 2.69993 6.75 2.69993ZM2.7 17.9832C3.44559 17.9832 4.05 18.5876 4.05 19.3332C4.05 20.0788 3.44559 20.6832 2.7 20.6832C1.95441 20.6832 1.35 20.0788 1.35 19.3332C1.35079 18.588 1.95474 17.9841 2.7 17.9832ZM4.5 26.0999H0.9V22.779C0.9009 22.1281 1.42836 21.6007 2.07928 21.5999H3.32072C3.97159 21.6007 4.4991 22.1281 4.5 22.779V26.0999ZM11.7 22.779V26.0999H8.1V22.779C8.1009 22.1281 8.62836 21.6007 9.27928 21.5999H10.5207C11.1716 21.6007 11.6991 22.1281 11.7 22.779ZM9.9 17.9832C10.6453 17.984 11.2492 18.588 11.25 19.3332C11.25 20.0788 10.6456 20.6832 9.9 20.6832C9.15441 20.6832 8.55 20.0788 8.55 19.3332C8.55 18.5876 9.15441 17.9832 9.9 17.9832ZM13.5407 4.63043C13.4804 4.785 13.3567 4.90633 13.201 4.96354L8.79283 7.25044C8.64366 7.32784 8.55 7.48191 8.55 7.64993V17.5448C7.70709 18.168 7.4151 19.296 7.8498 20.2499H7.2V12.5999H6.3V20.2499H4.7502C4.87822 19.967 4.94567 19.6604 4.94831 19.3499H4.95V8.09993C4.94994 7.85136 4.7484 7.64993 4.49989 7.64998C4.30341 7.65004 4.12965 7.77756 4.0707 7.96504L2.727 12.2409C2.62519 12.5217 2.31497 12.6668 2.03417 12.5649C2.01448 12.5578 1.99519 12.5495 1.9764 12.5401C1.71681 12.406 1.60661 12.0928 1.72508 11.8256L2.92629 7.68508C3.25024 6.85315 4.04994 6.30381 4.94274 6.29993H8.12903C8.20114 6.30004 8.27224 6.28266 8.33625 6.24941L12.8088 3.92781C13.0771 3.81587 13.3864 3.9304 13.517 4.19016C13.5862 4.32707 13.5948 4.48682 13.5407 4.63043Z" fill="#AAB1C4"/>
<path d="M18.6705 20.9402C19.5605 20.0731 19.5791 18.6485 18.712 17.7585C17.8448 16.8684 16.4203 16.8499 15.5302 17.717C14.6402 18.5842 14.6216 20.0087 15.4888 20.8988C15.5024 20.9128 15.5163 20.9266 15.5303 20.9402C14.8391 21.2933 14.4031 22.003 14.4004 22.7791V26.5501C14.4003 26.7985 14.6017 27 14.8502 27.0001C14.8502 27.0001 14.8503 27.0001 14.8504 27.0001H19.3504C19.5988 27.0001 19.8003 26.7988 19.8004 26.5503C19.8004 26.5502 19.8004 26.5501 19.8004 26.5501V22.7791C19.7977 22.003 19.3617 21.2933 18.6705 20.9402ZM17.1004 17.9834C17.846 17.9834 18.4504 18.5878 18.4504 19.3334C18.4504 20.079 17.846 20.6834 17.1004 20.6834C16.3548 20.6834 15.7504 20.079 15.7504 19.3334C15.7512 18.5881 16.3551 17.9842 17.1004 17.9834ZM18.9004 26.1001H15.3004V22.7791C15.3013 22.1283 15.8287 21.6009 16.4797 21.6001H17.7211C18.372 21.6009 18.8995 22.1283 18.9004 22.7791V26.1001Z" fill="#AAB1C4"/>
<path d="M25.8697 20.9402C26.7598 20.0731 26.7783 18.6485 25.9112 17.7585C25.044 16.8684 23.6195 16.8499 22.7294 17.717C21.8394 18.5842 21.8208 20.0087 22.688 20.8988C22.7017 20.9128 22.7155 20.9266 22.7295 20.9402C22.0384 21.2933 21.6023 22.003 21.5996 22.7791V26.5501C21.5996 26.7985 21.8009 27 22.0494 27.0001C22.0494 27.0001 22.0496 27.0001 22.0496 27.0001H26.5496C26.7981 27.0001 26.9996 26.7988 26.9996 26.5503C26.9996 26.5502 26.9996 26.5501 26.9996 26.5501V22.7791C26.9969 22.003 26.5609 21.2933 25.8697 20.9402ZM24.2996 17.9834C25.0452 17.9834 25.6496 18.5878 25.6496 19.3334C25.6496 20.079 25.0452 20.6834 24.2996 20.6834C23.554 20.6834 22.9496 20.079 22.9496 19.3334C22.9504 18.5881 23.5544 17.9842 24.2996 17.9834ZM26.0996 26.1001H22.4996V22.7791C22.5005 22.1283 23.028 21.6009 23.6789 21.6001H24.9203C25.5712 21.6009 26.0987 22.1283 26.0996 22.7791V26.1001Z" fill="#AAB1C4"/>
</g>
<defs>
<clipPath id="clip0">
<rect width="27" height="27" fill="white"/>
</clipPath>
</defs>
</svg>
