<svg width="27" height="27" viewBox="0 0 27 27" fill="none" xmlns="http://www.w3.org/2000/svg">
<g clip-path="url(#clip0)">
<path d="M25.3637 0H1.63638C0.736368 0 0 0.736368 0 1.63638V25.3637C0 26.2637 0.736368 27.0001 1.63638 27.0001H25.3637C26.2637 27.0001 27.0001 26.2637 27.0001 25.3637V1.63638C27 0.736368 26.2637 0 25.3637 0ZM26.1818 25.3637C26.1818 25.8137 25.8137 26.1819 25.3636 26.1819H1.63638C1.1864 26.1819 0.818192 25.8137 0.818192 25.3637V6.30001H26.1818V25.3637ZM26.1818 5.48182H0.818192V1.63638C0.818192 1.1864 1.18635 0.818192 1.63638 0.818192H25.3637C25.8137 0.818192 26.1819 1.18635 26.1819 1.63638V5.48182H26.1818Z" fill="#AAB1C4"/>
<path d="M3.51786 1.75903C2.74058 1.75903 2.12695 2.41358 2.12695 3.19086C2.12695 3.96813 2.74058 4.62268 3.51786 4.62268C4.29514 4.62268 4.94968 3.96813 4.94968 3.19086C4.94968 2.41363 4.29514 1.75903 3.51786 1.75903ZM3.51786 3.80454C3.19062 3.80454 2.90423 3.51815 2.90423 3.19091C2.90423 2.86361 3.19062 2.57728 3.51786 2.57728C3.84516 2.57728 4.13149 2.86367 4.13149 3.19091C4.13149 3.51815 3.84511 3.80454 3.51786 3.80454Z" fill="#AAB1C4"/>
<path d="M7.36347 1.75903C6.58618 1.75903 5.93164 2.41358 5.93164 3.19086C5.93164 3.96813 6.58618 4.62268 7.36347 4.62268C8.14075 4.62268 8.79529 3.96813 8.79529 3.19086C8.79529 2.41363 8.14075 1.75903 7.36347 1.75903ZM7.36347 3.80454C7.03617 3.80454 6.74983 3.51815 6.74983 3.19091C6.74983 2.86361 7.03622 2.57728 7.36347 2.57728C7.69071 2.57728 7.9771 2.86367 7.9771 3.19091C7.97715 3.51815 7.69076 3.80454 7.36347 3.80454Z" fill="#AAB1C4"/>
<path d="M11.1682 1.75903C10.3909 1.75903 9.73633 2.41358 9.73633 3.19086C9.73633 3.96813 10.3909 4.62268 11.1682 4.62268C11.9454 4.62268 12.6 3.96813 12.6 3.19086C12.6 2.41363 11.9454 1.75903 11.1682 1.75903ZM11.1682 3.80454C10.8409 3.80454 10.5545 3.51815 10.5545 3.19091C10.5545 2.86361 10.8409 2.57728 11.1682 2.57728C11.4954 2.57728 11.7818 2.86367 11.7818 3.19091C11.7818 3.51815 11.4954 3.80454 11.1682 3.80454Z" fill="#AAB1C4"/>
<path d="M6.29998 10.6773C7.28181 10.6773 8.09995 9.85916 8.09995 8.87737C8.09995 7.89553 7.28176 7.07739 6.29998 7.07739C5.31814 7.07739 4.5 7.89559 4.5 8.87737C4.5 9.85916 5.31814 10.6773 6.29998 10.6773ZM6.29998 7.89553C6.83178 7.89553 7.28181 8.34551 7.28181 8.87737C7.28181 9.40918 6.83183 9.85921 6.29998 9.85921C5.76817 9.85921 5.31814 9.45014 5.31814 8.87737C5.31814 8.34551 5.76817 7.89553 6.29998 7.89553Z" fill="#AAB1C4"/>
<path d="M3.72309 14.1955H8.83674C9.08221 14.1955 9.24581 14.0318 9.24581 13.7864V12.9682C9.24581 11.8228 8.30488 10.8818 7.20036 10.8818H5.40033C4.25489 10.8818 3.35488 11.8228 3.35488 12.9682V13.7864C3.31396 13.9909 3.51852 14.1955 3.72309 14.1955ZM4.13215 12.9681C4.13215 12.2727 4.70487 11.7 5.35941 11.7H7.15939C7.85485 11.7 8.38665 12.2727 8.38665 12.9681V13.3772H4.13215V12.9681Z" fill="#AAB1C4"/>
<path d="M3.15028 18.9818H14.2776C14.523 18.9818 14.6866 18.8182 14.6866 18.5728C14.6866 18.3273 14.523 18.1637 14.2776 18.1637H3.15028C2.90481 18.1637 2.74121 18.3273 2.74121 18.5728C2.74121 18.8182 2.90486 18.9818 3.15028 18.9818Z" fill="#AAB1C4"/>
<path d="M3.15028 16.0364H14.2776C14.523 16.0364 14.6866 15.8727 14.6866 15.6273C14.6866 15.3819 14.523 15.2183 14.2776 15.2183H3.15028C2.90481 15.2183 2.74121 15.3819 2.74121 15.6273C2.74121 15.8727 2.90486 16.0364 3.15028 16.0364Z" fill="#AAB1C4"/>
<path d="M3.15028 21.7228H17.1821C17.4276 21.7228 17.5912 21.5592 17.5912 21.3137C17.5912 21.0683 17.4275 20.9047 17.1821 20.9047H3.15028C2.90481 20.9047 2.74121 21.0683 2.74121 21.3137C2.74121 21.5592 2.90486 21.7228 3.15028 21.7228Z" fill="#AAB1C4"/>
<path d="M21.5594 23.6864H3.15028C2.90481 23.6864 2.74121 23.8501 2.74121 24.0955C2.74121 24.3409 2.90486 24.5045 3.15028 24.5045H21.5594C21.8049 24.5045 21.9685 24.3409 21.9685 24.0955C21.9685 23.8501 21.764 23.6864 21.5594 23.6864Z" fill="#AAB1C4"/>
<path d="M11.7821 12.7637H24.464C24.7094 12.7637 24.873 12.6 24.873 12.3546V8.63185C24.873 8.38637 24.7094 8.22278 24.464 8.22278H11.7821C11.5366 8.22278 11.373 8.38643 11.373 8.63185V12.3546C11.373 12.6 11.5366 12.7637 11.7821 12.7637ZM12.1912 9.04092H24.0548V11.9455H12.1912V9.04092Z" fill="#AAB1C4"/>
<path d="M14.2774 10.0637H13.2138C12.9683 10.0637 12.8047 10.2274 12.8047 10.4728C12.8047 10.7182 12.9683 10.8819 13.2138 10.8819H14.2774C14.5229 10.8819 14.6864 10.7182 14.6864 10.4728C14.6864 10.2274 14.5229 10.0637 14.2774 10.0637Z" fill="#AAB1C4"/>
<path d="M17.1817 10.0637H16.1181C15.8726 10.0637 15.709 10.2274 15.709 10.4728C15.709 10.7182 15.9135 10.8819 16.159 10.8819H17.1817C17.4272 10.8819 17.5908 10.7182 17.5908 10.4728C17.5908 10.2274 17.4271 10.0637 17.1817 10.0637Z" fill="#AAB1C4"/>
<path d="M20.127 10.0637H19.0634C18.8179 10.0637 18.6543 10.2274 18.6543 10.4728C18.6543 10.7182 18.8589 10.8819 19.0634 10.8819H20.127C20.3724 10.8819 20.536 10.7182 20.536 10.4728C20.536 10.2274 20.3724 10.0637 20.127 10.0637Z" fill="#AAB1C4"/>
<path d="M23.0723 10.0637H22.0087C21.7632 10.0637 21.5996 10.2274 21.5996 10.4728C21.5996 10.7182 21.7633 10.8819 22.0087 10.8819H23.0723C23.3178 10.8819 23.4814 10.7182 23.4814 10.4728C23.4814 10.2274 23.3177 10.0637 23.0723 10.0637Z" fill="#AAB1C4"/>
<path d="M21.5996 17.2636L22.786 16.4454C22.9087 16.3636 22.9905 16.1999 22.9496 16.0363C22.9087 15.8727 22.786 15.7499 22.6632 15.709L17.5905 14.4818C17.4678 14.4409 17.3041 14.4818 17.2223 14.6045C17.1405 14.6863 17.0996 14.85 17.0996 14.9727L18.3678 20.0454C18.4087 20.2091 18.5314 20.3318 18.695 20.3318C18.8587 20.3727 19.0223 20.2909 19.1041 20.1681L19.9632 18.9818L22.5814 21.6C22.6632 21.6818 22.7859 21.7227 22.8678 21.7227C22.9905 21.7227 23.0723 21.6818 23.1541 21.6L24.2177 20.5364C24.3814 20.3727 24.3814 20.1273 24.2177 19.9636L21.5996 17.2636ZM22.8678 20.7409L20.1678 18.0818C20.086 18 20.0042 17.959 19.8814 17.959H19.8405C19.7178 17.959 19.595 18.0409 19.5541 18.1227L18.9405 18.9818L18.0405 15.4227L21.5587 16.3227L20.7405 16.8954C20.6587 16.9773 20.5768 17.0591 20.5768 17.1818C20.5768 17.3046 20.6177 17.4273 20.6996 17.5091L23.3996 20.25L22.8678 20.7409Z" fill="#AAB1C4"/>
</g>
<defs>
<clipPath id="clip0">
<rect width="27" height="27" fill="white"/>
</clipPath>
</defs>
</svg>
