<svg width="22" height="25" viewBox="0 0 22 25" fill="none" xmlns="http://www.w3.org/2000/svg">
<path d="M0.69222 0.0121536H14.8764C15.0526 0.0121536 15.2162 0.0850753 15.3295 0.194458L21.8112 6.44142C21.9371 6.56296 22 6.72095 22 6.87895V24.3802C22 24.7205 21.7105 25 21.3581 25H0.641877C0.289474 25 0 24.7205 0 24.3802V0.619835C0 0.279533 0.289474 0 0.641877 0L0.69222 0.0121536ZM12.9382 18.7652V10.6466C12.9382 10.3063 13.2277 10.0267 13.5801 10.0267C13.9325 10.0267 14.222 10.3063 14.222 10.6466V18.7773H15.5183V14.402C15.5183 14.0617 15.8078 13.7822 16.1602 13.7822C16.5126 13.7822 16.8021 14.0617 16.8021 14.402V19.4093C16.8021 19.7496 16.5126 20.0292 16.1602 20.0292H13.5801H10.9874H8.39474H5.81465C5.46224 20.0292 5.17277 19.7496 5.17277 19.4093V15.6539C5.17277 15.3136 5.46224 15.034 5.81465 15.034C6.16705 15.034 6.45652 15.3136 6.45652 15.6539V18.7773H7.75286V11.8984C7.75286 11.5581 8.04233 11.2786 8.39474 11.2786C8.74714 11.2786 9.03661 11.5581 9.03661 11.8984V18.7773H10.333V14.402C10.333 14.0617 10.6224 13.7822 10.9748 13.7822C11.3272 13.7822 11.6167 14.0617 11.6167 14.402V18.7773H12.9382V18.7652ZM15.5183 2.15119V6.27127H19.7849L15.5183 2.15119ZM20.7037 7.51094H14.8764C14.524 7.51094 14.2346 7.23141 14.2346 6.8911V1.26398H1.28375V23.7725H20.7037V7.51094Z" fill="#AAB1C4"/>
</svg>
