<svg width="27" height="26" viewBox="0 0 27 26" fill="none" xmlns="http://www.w3.org/2000/svg">
<g clip-path="url(#clip0)">
<path d="M25.2004 5.19995C24.2076 5.19995 23.4004 5.97736 23.4004 6.93327C23.4004 7.88918 24.2077 8.66659 25.2004 8.66659C26.193 8.66659 27.0004 7.88923 27.0004 6.93327C27.0004 5.97736 26.193 5.19995 25.2004 5.19995ZM25.2004 7.79996C24.704 7.79996 24.3004 7.41127 24.3004 6.93327C24.3004 6.45532 24.704 6.06659 25.2004 6.06659C25.6968 6.06659 26.1004 6.45527 26.1004 6.93327C26.1003 7.41127 25.6967 7.79996 25.2004 7.79996Z" fill="#AAB1C4"/>
<path d="M1.79998 19.5C0.807311 19.5 0 20.2774 0 21.2333C0 22.1892 0.807311 22.9666 1.79998 22.9666C2.79271 22.9666 3.59996 22.1892 3.59996 21.2333C3.59996 20.2774 2.79271 19.5 1.79998 19.5ZM1.79998 22.1C1.30365 22.1 0.899965 21.7113 0.899965 21.2333C0.899965 20.7553 1.30359 20.3666 1.79998 20.3666C2.29632 20.3666 2.7 20.7553 2.7 21.2333C2.7 21.7113 2.29637 22.1 1.79998 22.1Z" fill="#AAB1C4"/>
<path d="M24.3275 5.74769L20.4453 3.94287C20.2212 3.83841 19.9526 3.92941 19.8446 4.14483C19.7366 4.36019 19.8306 4.61933 20.0543 4.72333L23.9365 6.52815C23.9995 6.5576 24.0661 6.57147 24.1317 6.57147C24.2991 6.57147 24.4598 6.48133 24.5372 6.32619C24.6452 6.11083 24.5511 5.85169 24.3275 5.74769Z" fill="#AAB1C4"/>
<path d="M20.2502 22.5333C19.2575 22.5333 18.4502 23.3107 18.4502 24.2666C18.4502 25.2225 19.2575 26 20.2502 26C21.2429 26 22.0502 25.2226 22.0502 24.2667C22.0502 23.3108 21.2429 22.5333 20.2502 22.5333ZM20.2502 25.1333C19.7538 25.1333 19.3502 24.7446 19.3502 24.2666C19.3502 23.7886 19.7538 23.4 20.2502 23.4C20.7465 23.4 21.1502 23.7887 21.1502 24.2667C21.1502 24.7447 20.7465 25.1333 20.2502 25.1333Z" fill="#AAB1C4"/>
<path d="M19.3773 23.0811L15.4952 21.2763C15.271 21.1719 15.0024 21.2624 14.8944 21.4783C14.7864 21.6936 14.8804 21.9528 15.1041 22.0568L18.9863 23.8616C19.0493 23.891 19.1159 23.9049 19.1816 23.9049C19.3489 23.9049 19.5096 23.8148 19.587 23.6596C19.695 23.4442 19.601 23.1851 19.3773 23.0811Z" fill="#AAB1C4"/>
<path d="M13.5002 11.7C12.5075 11.7 11.7002 12.4774 11.7002 13.4333C11.7002 14.3892 12.5075 15.1666 13.5002 15.1666C14.4929 15.1666 15.3002 14.3892 15.3002 13.4333C15.3002 12.4774 14.4929 11.7 13.5002 11.7ZM13.5002 14.3C13.0038 14.3 12.6002 13.9113 12.6002 13.4333C12.6002 12.9553 13.0038 12.5666 13.5002 12.5666C13.9965 12.5666 14.4002 12.9553 14.4002 13.4333C14.4002 13.9113 13.9965 14.3 13.5002 14.3Z" fill="#AAB1C4"/>
<path d="M12.709 12.2963L9.72687 10.0581C9.53064 9.91204 9.24809 9.94454 9.09506 10.1335C8.94249 10.3225 8.97714 10.5945 9.17337 10.7419L12.1555 12.9801C12.2379 13.0416 12.3351 13.0715 12.4318 13.0715C12.5659 13.0715 12.6982 13.0144 12.7873 12.9047C12.9399 12.7157 12.9052 12.4436 12.709 12.2963Z" fill="#AAB1C4"/>
<path d="M21.6004 11.2666C18.8711 11.2666 16.6504 13.4051 16.6504 16.0333C16.6504 18.6615 18.8711 20.8 21.6004 20.8C24.3297 20.8 26.5504 18.6615 26.5504 16.0333C26.5504 13.4051 24.3297 11.2666 21.6004 11.2666ZM21.6004 19.9332C19.3671 19.9332 17.5504 18.1839 17.5504 16.0332C17.5504 13.8826 19.3671 12.1332 21.6004 12.1332C23.8338 12.1332 25.6504 13.8826 25.6504 16.0332C25.6504 18.1839 23.8338 19.9332 21.6004 19.9332Z" fill="#AAB1C4"/>
<path d="M21.5998 13C20.6071 13 19.7998 13.7774 19.7998 14.7333C19.7998 15.6893 20.6071 16.4666 21.5998 16.4666C22.5925 16.4666 23.3998 15.6892 23.3998 14.7333C23.3998 13.7774 22.5925 13 21.5998 13ZM21.5998 15.6C21.1035 15.6 20.6998 15.2113 20.6998 14.7333C20.6998 14.2554 21.1034 13.8666 21.5998 13.8666C22.0961 13.8666 22.4998 14.2553 22.4998 14.7333C22.4998 15.2113 22.0961 15.6 21.5998 15.6Z" fill="#AAB1C4"/>
<path d="M22.9058 17.3333H20.295C19.5259 17.3333 18.9004 17.9196 18.9004 18.6398V19.782C18.9004 19.9367 18.9859 20.0797 19.1249 20.1573C19.8791 20.5776 20.735 20.7999 21.6004 20.7999C22.4658 20.7999 23.3216 20.5776 24.0758 20.1573C24.2149 20.0802 24.3004 19.9367 24.3004 19.7825V18.6402C24.3004 17.9196 23.6749 17.3333 22.9058 17.3333ZM23.4004 19.5238C22.2803 20.0611 20.9204 20.0611 19.8004 19.5238V18.6402C19.8004 18.3975 20.0222 18.1999 20.2949 18.1999H22.9058C23.1785 18.1999 23.4003 18.3975 23.4003 18.6402V19.5238H23.4004Z" fill="#AAB1C4"/>
<path d="M10.7996 16.4667C8.07036 16.4667 5.84961 18.6052 5.84961 21.2334C5.84961 23.8615 8.07036 26 10.7996 26C13.5289 26 15.7496 23.8615 15.7496 21.2333C15.7496 18.6051 13.5289 16.4667 10.7996 16.4667ZM10.7996 25.1333C8.56627 25.1333 6.74963 23.3839 6.74963 21.2333C6.74963 19.0827 8.56627 17.3333 10.7996 17.3333C13.033 17.3333 14.8496 19.0827 14.8496 21.2333C14.8496 23.3839 13.033 25.1333 10.7996 25.1333Z" fill="#AAB1C4"/>
<path d="M10.8 18.2C9.80726 18.2 9 18.9774 9 19.9333C9 20.8892 9.80731 21.6666 10.8 21.6666C11.7927 21.6666 12.6 20.8892 12.6 19.9333C12.6 18.9774 11.7927 18.2 10.8 18.2ZM10.8 20.8C10.3036 20.8 9.89996 20.4113 9.89996 19.9333C9.89996 19.4553 10.3036 19.0666 10.8 19.0666C11.2963 19.0666 11.7 19.4553 11.7 19.9333C11.7 20.4113 11.2963 20.8 10.8 20.8Z" fill="#AAB1C4"/>
<path d="M12.105 22.5333H9.49417C8.72514 22.5333 8.09961 23.1196 8.09961 23.8398V24.9821C8.09961 25.1368 8.18509 25.2798 8.32415 25.3574C9.07836 25.7777 9.93424 26 10.7996 26C11.665 26 12.5209 25.7777 13.2751 25.3574C13.4141 25.2802 13.4996 25.1368 13.4996 24.9826V23.8403C13.4996 23.1196 12.8741 22.5333 12.105 22.5333ZM12.5996 24.7238C11.4795 25.2611 10.1197 25.2611 8.99957 24.7238V23.8403C8.99957 23.5976 9.22143 23.4 9.49412 23.4H12.105C12.3777 23.4 12.5995 23.5976 12.5995 23.8403V24.7238H12.5996Z" fill="#AAB1C4"/>
<path d="M4.95002 5.6333C2.22075 5.6333 0 7.7718 0 10.4C0 13.0282 2.22075 15.1667 4.95002 15.1667C7.67929 15.1667 9.90003 13.0282 9.90003 10.4C9.89998 7.7718 7.67923 5.6333 4.95002 5.6333ZM4.95002 14.3C2.71666 14.3 0.900018 12.5506 0.900018 10.4C0.900018 8.24935 2.71666 6.49998 4.95002 6.49998C7.18337 6.49998 9.00002 8.24935 9.00002 10.4C9.00002 12.5506 7.18337 14.3 4.95002 14.3Z" fill="#AAB1C4"/>
<path d="M4.95037 7.3667C3.95765 7.3667 3.15039 8.14411 3.15039 9.10002C3.15039 10.0559 3.9577 10.8333 4.95037 10.8333C5.9431 10.8333 6.75036 10.0559 6.75036 9.10002C6.75036 8.14411 5.94304 7.3667 4.95037 7.3667ZM4.95037 9.9667C4.45404 9.9667 4.05036 9.57802 4.05036 9.10002C4.05036 8.62201 4.45398 8.23333 4.95037 8.23333C5.44671 8.23333 5.85039 8.62201 5.85039 9.10002C5.85039 9.57802 5.44671 9.9667 4.95037 9.9667Z" fill="#AAB1C4"/>
<path d="M6.25544 11.7H3.64456C2.87554 11.7 2.25 12.2863 2.25 13.0065V14.1487C2.25 14.3034 2.33548 14.4464 2.47454 14.524C3.22875 14.9443 4.08463 15.1666 4.95 15.1666C5.81537 15.1666 6.67125 14.9443 7.42546 14.524C7.56452 14.4469 7.65 14.3034 7.65 14.1492V13.0069C7.65 12.2863 7.02447 11.7 6.25544 11.7ZM6.74999 13.8905C5.62996 14.4278 4.27004 14.4278 3.14997 13.8905V13.0069C3.14997 12.7642 3.37182 12.5666 3.64451 12.5666H6.25539C6.52808 12.5666 6.74993 12.7642 6.74993 13.0069V13.8905H6.74999Z" fill="#AAB1C4"/>
<path d="M15.7498 0C13.0206 0 10.7998 2.1385 10.7998 4.76668C10.7998 7.39487 13.0206 9.53337 15.7498 9.53337C18.4791 9.53337 20.6998 7.39487 20.6998 4.76668C20.6998 2.1385 18.479 0 15.7498 0ZM15.7498 8.66668C13.5165 8.66668 11.6998 6.91732 11.6998 4.76668C11.6998 2.61605 13.5165 0.866684 15.7498 0.866684C17.9832 0.866684 19.7998 2.61605 19.7998 4.76668C19.7998 6.91732 17.9832 8.66668 15.7498 8.66668Z" fill="#AAB1C4"/>
<path d="M15.7502 1.73328C14.7575 1.73328 13.9502 2.51069 13.9502 3.46659C13.9502 4.4225 14.7575 5.19991 15.7502 5.19991C16.7429 5.19991 17.5502 4.42255 17.5502 3.46664C17.5502 2.51074 16.7429 1.73328 15.7502 1.73328ZM15.7502 4.33328C15.2538 4.33328 14.8502 3.9446 14.8502 3.46659C14.8502 2.98864 15.2538 2.59991 15.7502 2.59991C16.2466 2.59991 16.6502 2.98859 16.6502 3.46659C16.6501 3.9446 16.2465 4.33328 15.7502 4.33328Z" fill="#AAB1C4"/>
<path d="M17.0552 6.06665H14.4444C13.6753 6.06665 13.0498 6.65297 13.0498 7.37315V8.51542C13.0498 8.6701 13.1353 8.8131 13.2743 8.89069C14.0286 9.31101 14.8844 9.53333 15.7498 9.53333C16.6152 9.53333 17.471 9.31101 18.2253 8.89069C18.3643 8.81356 18.4498 8.6701 18.4498 8.51588V7.37361C18.4498 6.65292 17.8243 6.06665 17.0552 6.06665ZM17.5498 8.25715C16.4298 8.79446 15.0698 8.79446 13.9498 8.25715V7.37361C13.9498 7.13092 14.1716 6.93333 14.4443 6.93333H17.0552C17.3279 6.93333 17.5497 7.13092 17.5497 7.37361V8.25715H17.5498Z" fill="#AAB1C4"/>
<path d="M11.5922 4.48458C11.4307 4.30344 11.1467 4.28176 10.9577 4.43735L7.83921 7.00704C7.65021 7.16258 7.62817 7.43604 7.7897 7.61804C7.87882 7.71813 8.0048 7.76973 8.13168 7.76973C8.2352 7.76973 8.33914 7.7355 8.4242 7.66527L11.5427 5.09558C11.7318 4.94004 11.7538 4.66658 11.5922 4.48458Z" fill="#AAB1C4"/>
<path d="M21.51 11.4405L18.81 7.9738C18.661 7.78184 18.3789 7.74411 18.18 7.88711C17.9811 8.03057 17.941 8.30225 18.09 8.49334L20.79 11.96C20.8786 12.0736 21.0136 12.1333 21.1504 12.1333C21.244 12.1333 21.339 12.1052 21.42 12.0467C21.6189 11.9033 21.659 11.6316 21.51 11.4405Z" fill="#AAB1C4"/>
<path d="M17.8168 17.4664C17.6679 17.2749 17.3857 17.2363 17.1868 17.3797L14.6731 19.1949C14.4742 19.3384 14.4342 19.6101 14.5831 19.8012C14.6718 19.9147 14.8068 19.9745 14.9436 19.9745C15.0376 19.9745 15.1321 19.9459 15.2131 19.8878L17.7268 18.0726C17.9257 17.9292 17.9658 17.6575 17.8168 17.4664Z" fill="#AAB1C4"/>
<path d="M6.30021 20.8H3.15018C2.9018 20.8 2.7002 20.9937 2.7002 21.2334C2.7002 21.473 2.9018 21.6667 3.15018 21.6667H6.30016C6.54854 21.6667 6.75014 21.473 6.75014 21.2334C6.75014 20.9937 6.54859 20.8 6.30021 20.8Z" fill="#AAB1C4"/>
<path d="M4.95043 0C3.9577 0 3.15039 0.77741 3.15039 1.73332C3.15039 2.68927 3.9577 3.46663 4.95037 3.46663C5.9431 3.46663 6.75036 2.68922 6.75036 1.73332C6.75041 0.77741 5.9431 0 4.95043 0ZM4.95043 2.6C4.45409 2.6 4.05041 2.21132 4.05041 1.73332C4.05041 1.25536 4.45404 0.866633 4.95043 0.866633C5.44676 0.866633 5.85044 1.25531 5.85044 1.73332C5.85039 2.21132 5.44676 2.6 4.95043 2.6Z" fill="#AAB1C4"/>
<path d="M4.94998 2.59998C4.7016 2.59998 4.5 2.79366 4.5 3.03329V6.06661C4.5 6.30625 4.7016 6.49992 4.94998 6.49992C5.19836 6.49992 5.39996 6.30625 5.39996 6.06661V3.03329C5.39996 2.79366 5.19836 2.59998 4.94998 2.59998Z" fill="#AAB1C4"/>
</g>
<defs>
<clipPath id="clip0">
<rect width="27" height="26" fill="white"/>
</clipPath>
</defs>
</svg>
