<svg width="27" height="27" viewBox="0 0 27 27" fill="none" xmlns="http://www.w3.org/2000/svg">
<g clip-path="url(#clip0)">
<path d="M27.0003 10.4518H26.1293V9.19898C26.1293 8.1979 25.4508 7.32951 24.4797 7.08647L22.6451 6.62803V6.41901C23.4568 5.85192 23.952 4.91655 23.952 3.91972V3.15807C23.952 1.46636 22.6264 0.0506504 20.9972 0.00174478C20.1533 -0.0282365 19.3772 0.281783 18.7807 0.860995C18.1841 1.44021 17.8554 2.21717 17.8554 3.04878V3.91972C17.8554 4.91612 18.3499 5.8515 19.1618 6.41859V6.62803L17.3274 7.08647C16.3563 7.32951 15.678 8.1979 15.678 9.19898V10.4518H14.807V13.0647H15.678V20.9032H17.8554V21.3386C17.8554 22.0193 18.1837 22.6625 18.7263 23.0714V23.1877L17.257 23.607C16.7888 23.7412 16.392 24.0265 16.1135 24.3997C15.8343 24.0265 15.4379 23.7407 14.9695 23.607L13.5006 23.1877V23.0714C14.0431 22.6625 14.3716 22.0193 14.3716 21.3386V20.5578C14.3716 19.3873 13.5002 18.3954 12.3879 18.2986C11.7766 18.2455 11.1712 18.4515 10.723 18.8621C10.2741 19.2742 10.0168 19.8593 10.0168 20.4677V21.3386C10.0168 22.0193 10.3452 22.6625 10.8878 23.0714V23.1877L9.4185 23.607C8.95028 23.7412 8.55351 24.0265 8.27496 24.3997C7.99577 24.0265 7.59942 23.7407 7.13099 23.607L5.66212 23.1877V23.0714C6.20455 22.6625 6.53307 22.0193 6.53307 21.3386V20.5578C6.53307 19.3873 5.6617 18.3954 4.54941 18.2986C3.93767 18.2455 3.33273 18.4515 2.8845 18.8621C2.43563 19.2742 2.17834 19.8593 2.17834 20.4677V21.3386C2.17834 22.0193 2.50665 22.6625 3.04929 23.0714V23.1877L1.57999 23.607C0.650146 23.8732 0.000976562 24.7342 0.000976562 25.7012V26.9998H24.3874V25.7012C24.3874 24.7342 23.7381 23.8736 22.808 23.607L21.3391 23.1877V23.0714C21.8816 22.6625 22.2101 22.0193 22.2101 21.3386V20.9032H26.1293V13.0647H27.0003V10.4518ZM16.5489 9.19898C16.5489 8.5985 16.9561 8.07734 17.5383 7.93169L20.0327 7.30825V5.92953L19.8154 5.80365C19.1435 5.41432 18.7263 4.69222 18.7263 3.91972V3.04878C18.7263 2.45489 18.9608 1.89971 19.3878 1.48635C19.8141 1.07257 20.378 0.857593 20.9711 0.87269C22.1342 0.907562 23.081 1.93267 23.081 3.15807V3.91972C23.081 4.69264 22.6634 5.41475 21.9909 5.80365L21.7731 5.92996L21.775 7.30825L24.269 7.93169C24.8512 8.07734 25.2584 8.5985 25.2584 9.19898V10.4518H16.5489V9.19898ZM7.83949 26.1288H0.871922V25.7012C0.871922 25.1212 1.26168 24.6042 1.81942 24.445L3.92023 23.8443V22.5885L3.70377 22.4626C3.29403 22.224 3.04929 21.8039 3.04929 21.3386V20.4677C3.04929 20.1024 3.20344 19.7513 3.47328 19.5045C3.74587 19.2546 4.10395 19.1343 4.47414 19.1666C5.14032 19.2244 5.66212 19.8355 5.66212 20.5578V21.3386C5.66212 21.8039 5.41738 22.224 5.00742 22.4626L4.79118 22.5885V23.8443L6.89135 24.445C7.44973 24.6042 7.83949 25.1212 7.83949 25.7012V26.1288ZM15.678 26.1288H8.71043V25.7012C8.71043 25.1212 9.10019 24.6042 9.65792 24.445L11.7587 23.8443V22.5885L11.5423 22.4626C11.1325 22.224 10.8878 21.8039 10.8878 21.3386V20.4677C10.8878 20.1024 11.042 19.7513 11.3118 19.5045C11.5848 19.2546 11.9408 19.1343 12.3126 19.1666C12.9788 19.2244 13.5006 19.8355 13.5006 20.5578V21.3386C13.5006 21.8039 13.2559 22.224 12.8459 22.4626L12.6297 22.5885V23.8443L14.7299 24.445C15.2882 24.6042 15.678 25.1212 15.678 25.7012V26.1288ZM21.3391 21.3386C21.3391 21.8039 21.0944 22.224 20.6844 22.4626L20.4682 22.5885V23.8443L22.5684 24.445C23.1267 24.6042 23.5165 25.1212 23.5165 25.7012V26.1288H16.5489V25.7012C16.5489 25.1212 16.9387 24.6042 17.4964 24.445L19.5972 23.8443V22.5885L19.3808 22.4626C18.971 22.224 18.7263 21.8039 18.7263 21.3386V20.4677C18.7263 20.1024 18.8805 19.7513 19.1503 19.5045C19.4233 19.2546 19.7797 19.1343 20.1512 19.1666C20.8173 19.2244 21.3391 19.8355 21.3391 20.5578V21.3386ZM25.2584 20.0322H22.1433C21.9283 19.1043 21.1667 18.3805 20.2269 18.299C19.614 18.2459 19.0102 18.4519 18.5622 18.8625C18.2211 19.1744 17.9925 19.5863 17.9011 20.0322H16.5489V13.0647H25.2584V20.0322ZM26.1293 12.1937H15.678V11.3228H26.1293V12.1937Z" fill="#AAB1C4"/>
<path d="M0.871922 11.3228H6.96854V13.9975C6.21901 14.1923 5.66212 14.868 5.66212 15.6775C5.66212 16.6382 6.44334 17.4194 7.40401 17.4194C8.36469 17.4194 9.1459 16.6382 9.1459 15.6775C9.1459 14.868 8.58881 14.1923 7.83949 13.9975V11.3228H13.9361V2.61333H14.807V0.000488281H0.000976562V2.61333H0.871922V11.3228ZM8.27496 15.6775C8.27496 16.1578 7.88435 16.5485 7.40401 16.5485C6.92367 16.5485 6.53307 16.1578 6.53307 15.6775C6.53307 15.1972 6.92367 14.8066 7.40401 14.8066C7.88435 14.8066 8.27496 15.1972 8.27496 15.6775ZM13.0652 10.4518H1.74287V2.61333H13.0652V10.4518ZM0.871922 0.871434H13.9361V1.74238H0.871922V0.871434Z" fill="#AAB1C4"/>
<path d="M12.1939 3.4845H9.58105V9.58112H12.1939V3.4845ZM11.3229 8.71017H10.452V4.35544H11.3229V8.71017Z" fill="#AAB1C4"/>
<path d="M8.71049 4.35535H6.09766V9.58102H8.71049V4.35535ZM7.83955 8.71007H6.9686V5.22629H7.83955V8.71007Z" fill="#AAB1C4"/>
<path d="M5.22612 6.09729H2.61328V9.58108H5.22612V6.09729ZM4.35517 8.71013H3.48423V6.96824H4.35517V8.71013Z" fill="#AAB1C4"/>
</g>
<defs>
<clipPath id="clip0">
<rect width="27" height="27" fill="white"/>
</clipPath>
</defs>
</svg>
