<svg width="61" height="61" viewBox="0 0 61 61" fill="none" xmlns="http://www.w3.org/2000/svg">
    <path d="M57.1387 8.61323V46.2014C57.1387 47.0676 56.4372 47.7691 55.571 47.7691H5.45335C4.58715 47.7691 3.88565 47.0676 3.88565 46.2014V8.61323C3.88565 7.74703 4.58715 7.04553 5.45335 7.04553H55.571C56.4372 7.05163 57.1387 7.75313 57.1387 8.61323ZM14.8596 38.3751C13.9934 38.3751 13.2919 37.6736 13.2919 36.8074C13.2919 35.9412 13.9934 35.2397 14.8596 35.2397H27.389C28.2552 35.2397 28.9567 35.9412 28.9567 36.8074C28.9567 37.6736 28.2552 38.3751 27.389 38.3751H14.8596ZM14.8596 32.1104C13.9934 32.1104 13.2919 31.4089 13.2919 30.5427C13.2919 29.6765 13.9934 28.975 14.8596 28.975H33.6537C34.5199 28.975 35.2214 29.6765 35.2214 30.5427C35.2214 31.4089 34.5199 32.1104 33.6537 32.1104H14.8596ZM14.8596 25.8457C13.9934 25.8457 13.2919 25.1442 13.2919 24.278C13.2919 23.4118 13.9934 22.7103 14.8596 22.7103H39.9184C40.7846 22.7103 41.4861 23.4118 41.4861 24.278C41.4861 25.1442 40.7846 25.8457 39.9184 25.8457H14.8596ZM14.8596 19.581C13.9934 19.581 13.2919 18.8795 13.2919 18.0133C13.2919 17.1471 13.9934 16.4456 14.8596 16.4456H46.1831C47.0493 16.4456 47.7508 17.1471 47.7508 18.0133C47.7508 18.8795 47.0493 19.581 46.1831 19.581H14.8596ZM2.33015 54.0338C1.46395 54.0338 0.762451 53.3323 0.762451 52.4661C0.762451 51.5999 1.46395 50.8984 2.33015 50.8984H58.7064C59.5726 50.8984 60.2741 51.5999 60.2741 52.4661C60.2741 53.3323 59.5726 54.0338 58.7064 54.0338H2.33015ZM54.0094 44.6398V10.1809H7.02105V44.6337H54.0094V44.6398Z" fill="#7E849A"/>
    <path d="M14.8596 35.197C13.9934 35.197 13.2919 35.8985 13.2919 36.7647C13.2919 37.6309 13.9934 38.3324 14.8596 38.3324H27.389C28.2552 38.3324 28.9567 37.6309 28.9567 36.7647C28.9567 35.8985 28.2613 35.197 27.389 35.197H14.8596Z" fill="#237BEF"/>
    <path d="M41.4922 24.2353C41.4922 23.3691 40.7907 22.6676 39.9245 22.6676H14.8596C13.9934 22.6676 13.2919 23.3691 13.2919 24.2353C13.2919 25.1015 13.9934 25.803 14.8596 25.803H39.9184C40.7907 25.803 41.4922 25.1015 41.4922 24.2353Z" fill="#237BEF"/>
    <path d="M47.7508 17.9705C47.7508 17.1043 47.0493 16.4028 46.1831 16.4028H14.8596C13.9934 16.4028 13.2919 17.1043 13.2919 17.9705C13.2919 18.8367 13.9934 19.5382 14.8596 19.5382H46.1831C47.0493 19.5382 47.7508 18.8367 47.7508 17.9705Z" fill="#237BEF"/>
    <path d="M35.2275 30.5001C35.2275 29.6339 34.526 28.9324 33.6598 28.9324H14.8596C13.9934 28.9324 13.2919 29.6339 13.2919 30.5001C13.2919 31.3663 13.9934 32.0678 14.8596 32.0678H33.6537C34.526 32.0739 35.2275 31.3724 35.2275 30.5001Z" fill="#237BEF"/>
    <path d="M51.0875 7.01501C51.1059 7.01501 51.1242 7.00891 51.1425 7.00891H50.9167C50.9777 7.00891 51.0326 7.00891 51.0875 7.01501Z" fill="#237BEF"/>
</svg>
