<svg width="135" height="135" viewBox="0 0 135 135" fill="none" xmlns="http://www.w3.org/2000/svg">
<g filter="url(#filter0_d)">
<circle cx="67.5" cy="63.5" r="48.5" fill="#7E849A"/>
</g>
<g clip-path="url(#clip0)">
<path d="M58.5918 60.2612V68.4134C58.5918 69.6577 59.6023 70.6682 60.8466 70.6682H74.8131C76.0575 70.6682 77.068 69.6577 77.068 68.4134V60.2612C77.068 59.0773 76.1065 58.1157 74.9225 58.1157H71.921L71.8494 57.8028C71.5591 56.5472 70.4543 55.6724 69.1647 55.6724H66.4913C65.2055 55.6724 64.1007 56.5472 63.8066 57.8028L63.735 58.1157H60.7373C59.5533 58.1157 58.5918 59.081 58.5918 60.2612ZM64.1045 59.0396C64.3194 59.0396 64.5042 58.8925 64.5532 58.6813L64.7078 58.0102C64.9039 57.1769 65.6354 56.5962 66.4913 56.5962H69.1647C70.0206 56.5962 70.7521 57.1769 70.9482 58.0102L71.1028 58.6813C71.1518 58.8887 71.3366 59.0396 71.5515 59.0396H74.9187C75.5937 59.0396 76.1404 59.5863 76.1404 60.2612V68.4134C76.1404 69.1487 75.5446 69.7444 74.8094 69.7444H60.8466C60.1114 69.7444 59.5156 69.1487 59.5156 68.4134V60.2612C59.5156 59.5863 60.0624 59.0396 60.7373 59.0396H64.1045Z" fill="white"/>
<path d="M61.718 61.6301C62.0595 61.6301 62.3364 61.3532 62.3364 61.0117C62.3364 60.6702 62.0595 60.3933 61.718 60.3933C61.3765 60.3933 61.0996 60.6702 61.0996 61.0117C61.0996 61.3532 61.3765 61.6301 61.718 61.6301Z" fill="white"/>
<path d="M67.8302 68.2965C69.9682 68.2965 71.7102 66.5545 71.7102 64.4165C71.7102 62.2785 69.9682 60.5365 67.8302 60.5365C65.6922 60.5365 63.9502 62.2748 63.9502 64.4165C63.9502 66.5582 65.6922 68.2965 67.8302 68.2965ZM67.8302 61.4603C69.4591 61.4603 70.7864 62.7876 70.7864 64.4165C70.7864 66.0454 69.4591 67.3727 67.8302 67.3727C66.2013 67.3727 64.874 66.0454 64.874 64.4165C64.874 62.7876 66.2013 61.4603 67.8302 61.4603Z" fill="white"/>
</g>
<defs>
<filter id="filter0_d" x="0" y="0" width="135" height="135" filterUnits="userSpaceOnUse" color-interpolation-filters="sRGB">
<feFlood flood-opacity="0" result="BackgroundImageFix"/>
<feColorMatrix in="SourceAlpha" type="matrix" values="0 0 0 0 0 0 0 0 0 0 0 0 0 0 0 0 0 0 127 0"/>
<feOffset dy="4"/>
<feGaussianBlur stdDeviation="9.5"/>
<feColorMatrix type="matrix" values="0 0 0 0 0 0 0 0 0 0 0 0 0 0 0 0 0 0 0.39 0"/>
<feBlend mode="normal" in2="BackgroundImageFix" result="effect1_dropShadow"/>
<feBlend mode="normal" in="SourceGraphic" in2="effect1_dropShadow" result="shape"/>
</filter>
<clipPath id="clip0">
<rect width="18.4762" height="18.4762" fill="white" transform="translate(58.5918 53.9321)"/>
</clipPath>
</defs>
</svg>
