<svg width="31" height="39" viewBox="0 0 31 39" fill="none" xmlns="http://www.w3.org/2000/svg">
<path d="M24.4456 24.2401C24.5204 24.0646 24.6 23.9102 24.6927 23.8176C24.912 23.5998 25.4272 23.4438 25.926 23.2927C26.7548 23.0408 27.6957 22.7564 28.1685 21.939C28.6349 21.133 28.4139 20.184 28.2206 19.3471C28.1003 18.8336 27.9768 18.3023 28.0613 17.9919C28.1344 17.7075 28.5131 17.3061 28.8462 16.9519C29.4458 16.3134 30.125 15.5903 30.125 14.625C30.125 13.6597 29.4458 12.9367 28.8462 12.298C28.5131 11.9438 28.136 11.5424 28.0613 11.2597C27.9784 10.9493 28.1019 10.4163 28.2206 9.9028C28.414 9.0659 28.6349 8.11695 28.1685 7.3093C27.6957 6.4919 26.7564 6.20755 25.926 5.95733C25.4272 5.8062 24.9136 5.6502 24.6943 5.43243C24.4749 5.21465 24.3205 4.69958 24.1694 4.20065C23.9191 3.3719 23.6347 2.43263 22.8174 1.95975C22.0065 1.49015 21.0608 1.71113 20.2223 1.90613C19.7088 2.02472 19.179 2.14828 18.867 2.0654C18.5827 1.989 18.1813 1.61203 17.8271 1.27893C17.1884 0.679225 16.4653 0 15.5 0C14.5364 0 13.8133 0.679225 13.1746 1.27885C12.8188 1.61195 12.4174 1.989 12.133 2.06532C11.821 2.1498 11.2896 2.02472 10.7777 1.90605C9.93764 1.71105 8.99022 1.49167 8.18264 1.95807C7.36692 2.43095 7.08249 3.37022 6.83227 4.20057C6.68114 4.69942 6.52514 5.21457 6.30737 5.43235C6.08799 5.65013 5.57284 5.80613 5.07399 5.95725C4.24524 6.20915 3.30437 6.4935 2.83149 7.3109C2.36509 8.11687 2.58614 9.0659 2.77947 9.9028C2.89974 10.4163 3.02322 10.9477 2.93874 11.2581C2.86562 11.5424 2.48697 11.9438 2.15387 12.298C1.55432 12.9367 0.875019 13.6613 0.875019 14.625C0.875019 15.5887 1.55424 16.3133 2.15387 16.952C2.48697 17.3062 2.86402 17.7076 2.93874 17.9903C3.02162 18.3008 2.89814 18.8337 2.77947 19.3472C2.58607 20.1841 2.36509 21.133 2.83149 21.9407C3.30437 22.7581 4.24364 23.0424 5.07399 23.2927C5.57284 23.4438 6.08639 23.5998 6.30577 23.8176C6.39839 23.9102 6.47799 24.0629 6.55279 24.2384L0.936795 37.8772C0.806769 38.1908 0.886445 38.5515 1.13339 38.7823C1.28779 38.9253 1.48599 39.0001 1.68754 39.0001C1.81102 39.0001 1.93457 38.9724 2.05157 38.9123L8.1291 35.8736L12.6125 38.862C12.8188 38.9985 13.0772 39.0326 13.3129 38.9595C13.5485 38.8831 13.737 38.7044 13.8232 38.472L15.5977 33.74L17.1658 38.4443C17.2471 38.6848 17.4355 38.8733 17.6744 38.9562C17.9133 39.0375 18.1765 39.005 18.3878 38.8636L22.8712 35.8752L28.9487 38.9139C29.0657 38.9724 29.1892 39.0001 29.3127 39.0001C29.5142 39.0001 29.7125 38.9254 29.8652 38.784C30.1122 38.5533 30.1918 38.1925 30.0618 37.8788L24.4456 24.2401ZM14.7395 31.3999L12.6612 36.9412L8.6377 34.2599C8.39235 34.099 8.08194 34.0779 7.82357 34.2095L3.26377 36.4894L7.39449 26.455C7.58949 26.7865 7.82997 27.0855 8.18264 27.2903C8.99349 27.7598 9.94092 27.5389 10.7777 27.3439C11.2896 27.2253 11.8194 27.0985 12.133 27.1846C12.4173 27.261 12.8188 27.638 13.173 27.9711C13.4021 28.1856 13.6474 28.4017 13.9042 28.6015C13.9107 28.6324 13.9058 28.6633 13.9156 28.6942L14.7898 31.3185C14.7753 31.3479 14.7509 31.369 14.7395 31.3999ZM15.4984 27.625C15.1783 27.625 14.7038 27.1798 14.2845 26.7865C13.7678 26.299 13.2315 25.7969 12.5523 25.6149C12.3329 25.5564 12.112 25.5321 11.8893 25.5321C11.3969 25.5321 10.8981 25.649 10.4122 25.7612C9.89217 25.8831 9.24867 26.0326 8.99844 25.8847C8.73679 25.7335 8.55154 25.1209 8.38747 24.5798C8.17944 23.8891 7.96494 23.1758 7.45635 22.6688C6.94935 22.1618 6.236 21.9457 5.54535 21.7376C5.00422 21.5752 4.39157 21.3899 4.23885 21.1283C4.0942 20.8764 4.24372 20.2329 4.364 19.7145C4.52815 19.006 4.6971 18.2748 4.51025 17.5711C4.3266 16.8919 3.82447 16.3572 3.33865 15.8389C2.94377 15.4196 2.49855 14.9452 2.49855 14.625C2.49855 14.3048 2.94545 13.8304 3.33865 13.4111C3.82455 12.8944 4.32827 12.3581 4.51025 11.6789C4.6971 10.9769 4.52815 10.2457 4.364 9.53718C4.24372 9.01883 4.09427 8.37533 4.23885 8.12503C4.39157 7.86338 5.00422 7.67813 5.54695 7.51405C6.2376 7.30603 6.94935 7.08993 7.45794 6.58293C7.96335 6.07753 8.17944 5.36258 8.38907 4.67353C8.55322 4.1324 8.73847 3.51815 8.99844 3.36703C9.25354 3.22405 9.89544 3.3719 10.4106 3.49218C11.1159 3.65633 11.8454 3.82695 12.5523 3.63843C13.2315 3.45645 13.7678 2.95265 14.2862 2.46683C14.7039 2.07355 15.1783 1.62833 15.4985 1.62833C15.8186 1.62833 16.2931 2.07355 16.7124 2.46683C17.2291 2.95433 17.7654 3.45645 18.4446 3.63843C19.1499 3.82695 19.8811 3.65633 20.5847 3.49218C21.1031 3.3703 21.7482 3.22245 21.9985 3.3687C22.2601 3.51983 22.4454 4.13248 22.6094 4.6736C22.8175 5.36425 23.032 6.0776 23.5406 6.5846C24.0476 7.0916 24.7609 7.3077 25.4516 7.51573C25.9927 7.6782 26.6053 7.86345 26.7581 8.1251C26.9027 8.377 26.7532 9.0205 26.6329 9.53885C26.4688 10.2473 26.2998 10.9786 26.4867 11.6823C26.6703 12.3615 27.1724 12.8961 27.6583 13.4145C28.0531 13.8337 28.4984 14.3082 28.4984 14.6284C28.4984 14.9485 28.0515 15.423 27.6583 15.8422C27.1724 16.359 26.6686 16.8952 26.4867 17.5745C26.2998 18.2765 26.4688 19.0077 26.6329 19.7162C26.7532 20.2345 26.9026 20.878 26.7581 21.1283C26.6053 21.39 25.9927 21.5752 25.45 21.7393C24.7593 21.9473 24.0476 22.1634 23.539 22.6704C23.0336 23.1758 22.8175 23.8908 22.6078 24.5798C22.4437 25.121 22.2584 25.7352 21.9985 25.8863C21.7482 26.031 21.1031 25.8815 20.5863 25.7612C19.881 25.597 19.1515 25.4264 18.4446 25.6149C17.7654 25.7969 17.2291 26.3007 16.7107 26.7865C16.293 27.1797 15.8186 27.625 15.4984 27.625ZM23.1749 34.2112C22.915 34.0795 22.603 34.099 22.3608 34.2615L18.3715 36.9216L15.7975 29.1996C16.61 29.0762 17.2567 28.5058 17.8255 27.9711C18.1813 27.6381 18.5827 27.261 18.8671 27.1847C19.1807 27.1018 19.7105 27.2253 20.2224 27.344C21.0625 27.5389 22.0099 27.7583 22.8175 27.2919C23.1685 27.0888 23.4089 26.7882 23.6039 26.4567L27.7347 36.4911L23.1749 34.2112Z" fill="#AAB1C4"/>
<path d="M25.25 14.625C25.25 9.24787 20.8771 4.875 15.5 4.875C10.1229 4.875 5.75 9.24787 5.75 14.625C5.75 20.0021 10.1229 24.375 15.5 24.375C20.8771 24.375 25.25 20.0021 25.25 14.625ZM15.5 22.75C11.0199 22.75 7.37497 19.1051 7.37497 14.625C7.37497 10.1449 11.0199 6.49997 15.5 6.49997C19.9801 6.49997 23.625 10.1449 23.625 14.625C23.625 19.1051 19.9801 22.75 15.5 22.75Z" fill="#AAB1C4"/>
</svg>
