<svg width="39" height="39" viewBox="0 0 39 39" fill="none" xmlns="http://www.w3.org/2000/svg">
<g clip-path="url(#clip0)">
<path d="M39 15.0972H37.742V13.2875C37.742 11.8415 36.7619 10.5872 35.3592 10.2361L32.7092 9.57393V9.27202C33.8815 8.45288 34.5969 7.10179 34.5969 5.66193V4.56177C34.5969 2.11819 32.6822 0.0732702 30.3289 0.00262875C29.1099 -0.0406775 27.9888 0.407128 27.1273 1.24377C26.2655 2.08041 25.7906 3.20269 25.7906 4.4039V5.66193C25.7906 7.10117 26.505 8.45227 27.6777 9.2714V9.57393L25.028 10.2361C23.6253 10.5872 22.6456 11.8415 22.6456 13.2875V15.0972H21.3875V18.8713H22.6456V30.1936H25.7906V30.8226C25.7906 31.8057 26.2649 32.7348 27.0487 33.3254V33.4934L24.9264 34.0991C24.25 34.2929 23.6769 34.7051 23.2746 35.2441C22.8713 34.7051 22.2988 34.2923 21.6222 34.0991L19.5005 33.4934V33.3254C20.284 32.7348 20.7585 31.8057 20.7585 30.8226V29.6948C20.7585 28.004 19.4999 26.5712 17.8932 26.4314C17.0102 26.3547 16.1358 26.6523 15.4884 27.2454C14.84 27.8406 14.4683 28.6858 14.4683 29.5645V30.8226C14.4683 31.8057 14.9426 32.7348 15.7264 33.3254V33.4934L13.6041 34.0991C12.9278 34.2929 12.3546 34.7051 11.9523 35.2441C11.549 34.7051 10.9765 34.2923 10.2999 34.0991L8.17819 33.4934V33.3254C8.96169 32.7348 9.43622 31.8057 9.43622 30.8226V29.6948C9.43622 28.004 8.17757 26.5712 6.57094 26.4314C5.68731 26.3547 4.8135 26.6523 4.16606 27.2454C3.51769 27.8406 3.14606 28.6858 3.14606 29.5645V30.8226C3.14606 31.8057 3.62028 32.7348 4.40409 33.3254V33.4934L2.28177 34.0991C0.938665 34.4836 0.000976562 35.7272 0.000976562 37.1241V38.9998H35.2259V37.1241C35.2259 35.7272 34.2879 34.4843 32.9445 34.0991L30.8228 33.4934V33.3254C31.6063 32.7348 32.0808 31.8057 32.0808 30.8226V30.1936H37.742V18.8713H39V15.0972ZM23.9036 13.2875C23.9036 12.4202 24.4918 11.6674 25.3327 11.457L28.9357 10.5565V8.56499L28.6218 8.38316C27.6513 7.8208 27.0487 6.77776 27.0487 5.66193V4.4039C27.0487 3.54607 27.3874 2.74413 28.0042 2.14706C28.62 1.54937 29.4345 1.23885 30.2911 1.26066C31.9712 1.31103 33.3388 2.79174 33.3388 4.56177V5.66193C33.3388 6.77837 32.7356 7.82141 31.7641 8.38316L31.4496 8.5656L31.4524 10.5565L35.0548 11.457C35.8958 11.6674 36.4839 12.4202 36.4839 13.2875V15.0972H23.9036V13.2875ZM11.3233 37.7418H1.25901V37.1241C1.25901 36.2862 1.82199 35.5396 2.62761 35.3095L5.66212 34.4419V32.6279L5.34946 32.4461C4.7576 32.1015 4.40409 31.4946 4.40409 30.8226V29.5645C4.40409 29.0369 4.62676 28.5298 5.01652 28.1732C5.41027 27.8123 5.92749 27.6385 6.46221 27.6852C7.42447 27.7687 8.17819 28.6514 8.17819 29.6948V30.8226C8.17819 31.4946 7.82467 32.1015 7.23251 32.4461L6.92016 32.6279V34.4419L9.95375 35.3095C10.7603 35.5396 11.3233 36.2862 11.3233 37.1241V37.7418ZM22.6456 37.7418H12.5813V37.1241C12.5813 36.2862 13.1443 35.5396 13.9499 35.3095L16.9844 34.4419V32.6279L16.6717 32.4461C16.0799 32.1015 15.7264 31.4946 15.7264 30.8226V29.5645C15.7264 29.0369 15.9491 28.5298 16.3388 28.1732C16.7332 27.8123 17.2473 27.6385 17.7845 27.6852C18.7468 27.7687 19.5005 28.6514 19.5005 29.6948V30.8226C19.5005 31.4946 19.147 32.1015 18.5548 32.4461L18.2424 32.6279V34.4419L21.276 35.3095C22.0826 35.5396 22.6456 36.2862 22.6456 37.1241V37.7418ZM30.8228 30.8226C30.8228 31.4946 30.4693 32.1015 29.8771 32.4461L29.5647 32.6279V34.4419L32.5983 35.3095C33.4049 35.5396 33.9679 36.2862 33.9679 37.1241V37.7418H23.9036V37.1241C23.9036 36.2862 24.4666 35.5396 25.2722 35.3095L28.3067 34.4419V32.6279L27.994 32.4461C27.4022 32.1015 27.0487 31.4946 27.0487 30.8226V29.5645C27.0487 29.0369 27.2713 28.5298 27.6611 28.1732C28.0555 27.8123 28.5702 27.6385 29.1068 27.6852C30.0691 27.7687 30.8228 28.6514 30.8228 29.6948V30.8226ZM36.4839 28.9355H31.9844C31.6738 27.5952 30.5737 26.5497 29.2161 26.4321C28.331 26.3553 27.4587 26.6529 26.8116 27.246C26.3189 27.6965 25.9887 28.2915 25.8567 28.9355H23.9036V18.8713H36.4839V28.9355ZM37.742 17.6132H22.6456V16.3552H37.742V17.6132Z" fill="#AAB1C4"/>
<path d="M1.25901 16.3549H10.0652V20.2184C8.98258 20.4997 8.17819 21.4758 8.17819 22.6451C8.17819 24.0327 9.30661 25.1611 10.6943 25.1611C12.0819 25.1611 13.2103 24.0327 13.2103 22.6451C13.2103 21.4758 12.4056 20.4997 11.3233 20.2184V16.3549H20.1295V3.77459H21.3875V0.000488281H0.000976562V3.77459H1.25901V16.3549ZM11.9523 22.6451C11.9523 23.3389 11.3881 23.9031 10.6943 23.9031C10.0004 23.9031 9.43622 23.3389 9.43622 22.6451C9.43622 21.9513 10.0004 21.387 10.6943 21.387C11.3881 21.387 11.9523 21.9513 11.9523 22.6451ZM18.8715 15.0969H2.51704V3.77459H18.8715V15.0969ZM1.25901 1.25852H20.1295V2.51655H1.25901V1.25852Z" fill="#AAB1C4"/>
<path d="M17.6139 5.03308H13.8398V13.8393H17.6139V5.03308ZM16.3559 12.5813H15.0979V6.29111H16.3559V12.5813Z" fill="#AAB1C4"/>
<path d="M12.5817 6.29114H8.80762V13.8393H12.5817V6.29114ZM11.3237 12.5813H10.0656V7.54917H11.3237V12.5813Z" fill="#AAB1C4"/>
<path d="M7.54949 8.80713H3.77539V13.8393H7.54949V8.80713ZM6.29146 12.5812H5.03342V10.0652H6.29146V12.5812Z" fill="#AAB1C4"/>
</g>
<defs>
<clipPath id="clip0">
<rect width="39" height="39" fill="white"/>
</clipPath>
</defs>
</svg>
