<svg width="39" height="39" viewBox="0 0 39 39" fill="none" xmlns="http://www.w3.org/2000/svg">
<g clip-path="url(#clip0)">
<path d="M39 13.2822C38.9991 12.6901 38.825 12.0896 38.4399 11.5946L35.3498 7.64071C34.8322 6.9835 34.0446 6.64888 33.2576 6.64758C32.7893 6.64758 32.3123 6.76763 31.891 7.03042L28.8779 8.90501C28.561 9.1071 28.0178 9.24581 27.493 9.24223C27.0854 9.24398 26.6914 9.1624 26.4313 9.0339L23.4807 7.60468C23.0047 7.37556 22.4742 7.28164 21.9407 7.28072C21.1745 7.2843 20.3985 7.4726 19.775 7.90472L19.4307 8.14626C19.1555 8.00893 18.7349 7.79968 18.2586 7.56264C17.6873 7.28255 17.0155 7.16959 16.337 7.16738C15.724 7.16913 15.1112 7.26359 14.5731 7.49088L12.5634 8.34843C12.2363 8.49026 11.7161 8.58288 11.1993 8.5806C10.6826 8.58281 10.1632 8.49018 9.83615 8.34843L7.82461 7.49042C7.45769 7.33397 7.06548 7.26709 6.67677 7.26663C6.22919 7.26709 5.78427 7.3553 5.37073 7.5228C4.95773 7.69121 4.57435 7.93984 4.26906 8.28101L0.606712 12.3826C0.200792 12.8359 -0.00083529 13.4067 2.60066e-06 13.9686C-0.00083529 14.6387 0.285876 15.3109 0.838883 15.782L4.25519 18.6967L2.63456 20.3873C2.18781 20.8536 1.96539 21.4581 1.96539 22.0558C1.96455 22.6917 2.21714 23.3339 2.71743 23.8067L3.04619 24.1191C3.35598 24.4129 3.72824 24.5998 4.11778 24.6996C3.9224 25.0589 3.8156 25.453 3.81644 25.8478C3.8156 26.4842 4.06819 27.1259 4.56757 27.5992L4.56673 27.5987L4.89648 27.9125C5.36585 28.3574 5.97432 28.579 6.57379 28.5786C6.89599 28.5791 7.21858 28.5143 7.52175 28.3876C7.62816 28.8192 7.84791 29.2296 8.19358 29.5575L8.52333 29.8712C8.9927 30.3162 9.60017 30.5378 10.2006 30.5374C10.67 30.5378 11.1415 30.3995 11.5474 30.131C11.6662 30.513 11.8696 30.875 12.1794 31.1693L12.5091 31.483C12.9775 31.928 13.5859 32.1495 14.1856 32.1492C14.8241 32.1496 15.469 31.8988 15.9453 31.4015L17.3776 29.9058L19.3236 31.7068C19.7894 32.1389 20.3873 32.3538 20.9774 32.3525C21.6258 32.3539 22.2799 32.0942 22.7572 31.5832L23.0678 31.2504C23.3359 30.9624 23.511 30.6215 23.6125 30.2657L24.3663 30.9615C24.8329 31.3918 25.43 31.6058 26.0193 31.6054C26.6685 31.6058 27.3245 31.3461 27.8022 30.8347L28.1111 30.5023C28.4678 30.1212 28.6686 29.6492 28.7306 29.1671C28.9295 29.2181 29.1312 29.2527 29.3346 29.2527C29.9838 29.2527 30.6379 28.9934 31.1161 28.4825L31.4259 28.1501C31.8588 27.686 32.0742 27.0909 32.0733 26.5041C32.0733 26.322 32.0472 26.1408 32.0068 25.9617C32.5453 25.8904 33.0674 25.6502 33.4644 25.2238L33.775 24.8911C34.208 24.427 34.4225 23.8319 34.4225 23.2447C34.4233 22.5986 34.1628 21.9466 33.6487 21.4716L33.0677 20.935L38.3113 15.1375C38.782 14.6156 38.9992 13.9438 39 13.2822ZM4.72373 23.466C4.44593 23.4651 4.17422 23.3658 3.96193 23.1646L3.63264 22.8522C3.40481 22.6368 3.2923 22.3502 3.29139 22.0559C3.2923 21.7798 3.3911 21.5103 3.59455 21.298L6.91382 17.8343C7.13007 17.6086 7.41861 17.4957 7.71461 17.4953C7.99157 17.4958 8.26237 17.5955 8.47641 17.7971L8.80433 18.1099C8.80433 18.1099 9.14383 18.612 9.14466 18.9067C9.14383 19.1274 9.07733 19.3423 8.94837 19.5285C8.93732 19.5395 5.36585 23.2617 5.36585 23.2617C5.17619 23.3959 4.95194 23.465 4.72373 23.466ZM7.37466 26.9209C7.15886 27.1456 6.87078 27.2581 6.57478 27.259C6.29698 27.2586 6.02611 27.1588 5.81298 26.9577L5.48323 26.6443L5.4824 26.6438C5.25639 26.4293 5.1429 26.1418 5.1429 25.8475C5.1429 25.5714 5.24261 25.3019 5.44507 25.0896C5.44507 25.0896 9.86959 20.4839 9.90684 20.4395C10.1183 20.2361 10.3908 20.1311 10.6721 20.1306C10.9499 20.1311 11.2208 20.2303 11.4339 20.432L11.7637 20.7457C11.9905 20.9602 12.1032 21.2474 12.104 21.5421C12.1031 21.8181 12.0035 22.088 11.8009 22.3003L7.37466 26.9209ZM11.001 28.8791C10.7856 29.1043 10.4976 29.217 10.2015 29.2178C9.92375 29.2174 9.65288 29.1177 9.43975 28.916L9.10909 28.6027C8.88225 28.3877 8.76876 28.1006 8.76876 27.8063C8.76876 27.56 8.85254 27.321 9.01289 27.122L12.0942 23.906C12.3021 23.7185 12.5626 23.6197 12.8325 23.6197C13.1103 23.6202 13.3812 23.7195 13.5943 23.9211L13.925 24.2348C14.151 24.4493 14.2645 24.7365 14.2653 25.0308C14.2644 25.3073 14.1639 25.5772 13.9622 25.789L11.001 28.8791ZM16.8557 28.5397L14.986 30.4911C14.7706 30.7161 14.4821 30.8288 14.1861 30.8296C13.9083 30.8292 13.6374 30.7295 13.4243 30.5278L13.0946 30.2145C12.8686 30 12.7551 29.7124 12.7542 29.4181C12.7551 29.1415 12.8548 28.8716 13.0574 28.6603L14.9263 26.709C15.1425 26.4839 15.4311 26.3708 15.7271 26.3704C16.004 26.3708 16.2757 26.4701 16.4889 26.6722L16.8195 26.9855C17.0455 27.2001 17.1581 27.4872 17.159 27.7815C17.1579 28.058 17.0582 28.3279 16.8557 28.5397ZM33.0984 23.2464C33.0981 23.5174 33.0009 23.7829 32.8042 23.9938L32.4944 24.3262C32.2781 24.5576 31.9847 24.6746 31.6843 24.675C31.4118 24.6746 31.1449 24.5788 30.9332 24.3831L25.7127 19.5552L24.81 20.5218L30.3978 25.6983C30.6305 25.9137 30.7475 26.2062 30.7492 26.5049C30.7475 26.777 30.6513 27.042 30.455 27.253L30.1461 27.5854C29.9298 27.8167 29.6364 27.9333 29.336 27.9342C29.0635 27.9334 28.7958 27.8372 28.5857 27.6426L23.3639 22.8148L22.4621 23.7814L27.0962 28.0668C27.3196 28.2809 27.434 28.5658 27.434 28.8582C27.434 29.1295 27.3378 29.3949 27.1415 29.6054L26.8317 29.9378C26.6163 30.1692 26.322 30.2862 26.0208 30.287C25.7473 30.2862 25.4806 30.1899 25.2696 29.9954L20.6448 25.7255H20.644L20.6431 25.7247L19.7431 26.693L19.744 26.6938L19.7613 26.7102L22.0777 28.848C22.2829 29.0589 22.3892 29.3293 22.39 29.6089C22.3892 29.8788 22.2938 30.1429 22.0975 30.3535L21.7877 30.6863C21.5715 30.9176 21.279 31.0337 20.9794 31.0346C20.7069 31.0338 20.44 30.938 20.2291 30.7427L18.2123 28.8751C18.3878 28.5308 18.4858 28.1572 18.4858 27.7823C18.4866 27.1463 18.234 26.5051 17.7346 26.0314L17.404 25.7177C16.9356 25.2731 16.328 25.0512 15.7284 25.052C15.6819 25.052 15.635 25.0627 15.5893 25.0653C15.5893 25.0543 15.5919 25.0427 15.5919 25.0317C15.5928 24.3957 14.8408 23.2799 14.8408 23.2799L14.511 22.967C14.1605 22.6346 13.7328 22.4273 13.288 22.3439C13.3797 22.0843 13.4315 21.8139 13.4315 21.5431C13.4315 20.9072 13.1798 20.2654 12.6804 19.7923L12.3507 19.4785C11.8813 19.0336 11.2738 18.8115 10.6742 18.812C10.6042 18.812 10.5351 18.8262 10.4655 18.8324C10.4464 18.2217 10.2005 17.6115 9.72189 17.1569V17.1564L9.39306 16.844C8.92369 16.3986 8.31622 16.1766 7.71659 16.1771C7.07705 16.1766 6.43317 16.4274 5.95687 16.9247L5.17337 17.7423L1.70252 14.782C1.45306 14.5684 1.32852 14.2732 1.3276 13.9701C1.32844 13.7162 1.4149 13.4676 1.59923 13.2611L5.2615 9.15966C5.40683 8.99657 5.62179 8.84903 5.87354 8.74658C6.12529 8.6442 6.41108 8.58799 6.6783 8.58837C6.911 8.58837 7.12938 8.63049 7.30405 8.70582L9.31468 9.56375C9.88148 9.80262 10.5395 9.90058 11.2008 9.90271C11.8629 9.9005 12.5201 9.80255 13.087 9.56375L15.0967 8.7062C15.4065 8.57108 15.874 8.48729 16.3389 8.48904C16.853 8.48592 17.3679 8.59233 17.6665 8.74475C17.8562 8.83912 18.0361 8.9287 18.2032 9.01242L16.1535 10.4532C15.495 10.9163 15.14 11.6528 15.1409 12.396C15.1401 12.888 15.296 13.3887 15.6133 13.8137L15.6125 13.8128L15.8832 14.1766C16.3973 14.86 17.1989 15.2114 18.0002 15.2131C18.4526 15.2131 18.9136 15.0988 19.3244 14.8524L20.5501 14.1162C20.8001 13.9634 21.1776 13.8668 21.568 13.8685C22.0267 13.8659 22.4889 14.0015 22.7668 14.2057L26.1579 16.6369C26.9126 17.1776 28.1419 18.1805 28.8231 18.8115L32.7481 22.4406C32.9805 22.6561 33.0975 22.9473 33.0984 23.2464ZM37.3271 14.2553L32.0982 20.0372L29.7242 17.8427C28.9806 17.1563 27.7544 16.1552 26.9319 15.5644L23.5417 13.1332C22.9669 12.726 22.2631 12.55 21.5674 12.5474C20.9753 12.5492 20.3788 12.6782 19.8639 12.9848L18.639 13.7209C18.4511 13.8339 18.2296 13.8915 17.9995 13.892C17.5882 13.8934 17.1765 13.7014 16.947 13.3889L16.6771 13.0256L16.6762 13.0247C16.5326 12.8311 16.4658 12.6139 16.4648 12.3941C16.4665 12.0617 16.6199 11.7391 16.9169 11.5294L20.541 8.98301C20.8544 8.75617 21.4119 8.59705 21.9415 8.60101C22.3093 8.59926 22.6607 8.67322 22.9013 8.79205L25.8518 10.2213C26.3549 10.4628 26.9226 10.5616 27.4937 10.563C28.2275 10.5594 28.9694 10.3999 29.5806 10.0245L32.5946 8.14954C32.7869 8.02949 33.0178 7.96741 33.2585 7.96741C33.6653 7.96658 34.073 8.15091 34.3039 8.45179L37.394 12.4057C37.5722 12.6322 37.6754 12.9516 37.6754 13.2828C37.6759 13.653 37.5451 14.0174 37.3271 14.2553Z" fill="#AAB1C4"/>
</g>
<defs>
<clipPath id="clip0">
<rect width="39" height="39" fill="white"/>
</clipPath>
</defs>
</svg>
