<svg width="39" height="38" viewBox="0 0 39 38" fill="none" xmlns="http://www.w3.org/2000/svg">
<path d="M25.0765 25.9082V25.2292C25.2685 25.0741 25.453 24.9044 25.6301 24.7272C27.0485 23.1654 27.9417 21.1984 28.1841 19.1027C29.4588 18.9085 30.6078 18.2254 31.3875 17.1983C32.4578 15.6852 32.5538 13.5077 31.6606 10.7766C31.6081 10.6191 31.5041 10.4839 31.3654 10.3928L30.9594 10.1197C31.0193 7.65548 30.1677 5.25583 28.5679 3.38062C26.5823 1.1441 23.5339 0.0147625 19.4963 0C15.4662 0 12.4103 1.1441 10.4248 3.35109C8.82496 5.2263 7.97335 7.62595 8.03323 10.0902L7.62726 10.3633C7.48849 10.4544 7.38451 10.5896 7.33201 10.7471C6.43887 13.4929 6.53483 15.6557 7.60511 17.1688C8.3819 18.203 9.53088 18.894 10.8086 19.0953C11.052 21.1944 11.9479 23.1642 13.3699 24.7272C13.5456 24.904 13.7304 25.0716 13.9235 25.2292V25.9082C11.0964 26.4544 -0.189494 29.1043 0.0024184 36.6332C0.0024184 37.0408 0.332914 37.3713 0.740544 37.3713H38.2595C38.6671 37.3713 38.9976 37.0408 38.9976 36.6332C39.1895 29.1043 27.9036 26.4544 25.0765 25.9082ZM10.3657 17.4493C9.73848 17.2387 9.19181 16.8391 8.80088 16.3052L8.83778 16.3126C8.09966 15.2349 8.03323 13.6037 8.69016 11.4483L9.22899 11.0867C9.45569 10.9353 9.58052 10.6715 9.55376 10.4002C9.42957 8.19412 10.1471 6.02302 11.5615 4.32542C13.2296 2.43582 15.909 1.49101 19.4963 1.47625C23.0836 1.46149 25.763 2.43582 27.4607 4.32542C28.875 6.02302 29.5926 8.19412 29.4684 10.4002C29.4416 10.6715 29.5665 10.9353 29.7932 11.0867L30.332 11.4483C30.9889 13.5963 30.9446 15.2349 30.1844 16.3126C29.7908 16.8469 29.2417 17.2465 28.6122 17.4567C29.5025 16.4436 29.9376 15.1093 29.8153 13.7661C29.677 12.9579 29.2557 12.2254 28.6269 11.6993C28.3095 4.31804 23.1353 3.49134 20.9061 3.49134C20.4343 3.48995 19.963 3.52455 19.4963 3.59467C19.0297 3.52446 18.5583 3.48995 18.0865 3.49134C15.8721 3.49134 10.7052 4.30328 10.3657 11.6993C9.73285 12.2212 9.3064 12.9512 9.16256 13.7587C9.03948 15.102 9.4746 16.4367 10.3657 17.4493ZM27.1581 11.3967C24.0608 11.5757 20.9829 10.8029 18.3375 9.18229C18.0381 8.97202 17.6298 9.01289 17.3779 9.27825C15.9016 10.8652 13.2075 11.2343 11.9084 11.3155C12.307 6.09692 15.4662 4.96021 18.1234 4.96021C18.5463 4.95716 18.9687 4.99176 19.3856 5.06355C19.483 5.08348 19.5834 5.08348 19.6808 5.06355C20.0977 4.99195 20.5201 4.95735 20.943 4.96021C23.5781 4.96021 26.7521 6.12645 27.1212 11.3893L27.1581 11.3967ZM12.1667 17.5895L12.1963 17.5969C12.1978 17.415 12.1321 17.2388 12.0117 17.1024C11.0005 15.9435 10.5355 14.888 10.661 14.017C10.7211 13.5319 10.9607 13.0869 11.3326 12.7696C12.307 12.7696 15.7614 12.5851 17.9758 10.6733C20.4696 12.107 23.2924 12.87 26.169 12.8877C26.6635 12.8877 27.1654 12.8877 27.6895 12.8065C28.0513 13.1154 28.2876 13.5459 28.3538 14.017C28.4793 14.8732 28.0143 15.9435 27.0031 17.1024C26.8826 17.2388 26.817 17.415 26.8185 17.5969C26.8185 17.5969 26.8185 17.7446 26.8185 17.9808L22.5226 20.2837C21.6701 19.4766 20.3246 19.5134 19.5174 20.3659C18.7103 21.2185 18.7471 22.564 19.5997 23.3711C20.4522 24.1782 21.7977 24.1414 22.6048 23.2889C22.9789 22.8938 23.1872 22.3704 23.1869 21.8264C23.1903 21.76 23.1903 21.6935 23.1869 21.6271L26.5749 19.8113C26.2841 21.2668 25.6 22.6147 24.5968 23.7086C23.2883 24.9684 21.517 25.631 19.703 25.5392H19.3339C17.5238 25.629 15.7564 24.9697 14.4475 23.716C12.1151 21.3909 12.1667 17.6265 12.1667 17.5895ZM21.7107 21.8264C21.7107 22.1892 21.4165 22.4833 21.0538 22.4833C20.691 22.4833 20.3968 22.1892 20.3968 21.8264C20.3968 21.4636 20.691 21.1695 21.0538 21.1695C21.4165 21.1695 21.7107 21.4636 21.7107 21.8264ZM18.7582 35.8508H1.50081C2.08393 30.3075 11.0964 27.9897 13.9161 27.3919V28.7131C13.9161 30.3887 15.9533 31.6656 18.7582 31.8797V35.8508ZM15.3923 28.7131V28.691V26.1666C16.6193 26.7356 17.9595 27.0183 19.3118 26.9933H19.6808C21.0331 27.0183 22.3733 26.7356 23.6003 26.1666V28.7131C23.6003 29.4143 21.9986 30.4256 19.4963 30.4256C16.9941 30.4256 15.3923 29.4143 15.3923 28.7131ZM20.2344 35.8729V31.8723C23.0393 31.6804 25.0765 30.396 25.0765 28.7057V27.414C27.9183 28.0045 36.8866 30.3222 37.4918 35.8729H20.2344Z" fill="#AAB1C4"/>
</svg>
