<svg width="39" height="39" viewBox="0 0 39 39" fill="none" xmlns="http://www.w3.org/2000/svg">
<g clip-path="url(#clip0)">
<path d="M36.3998 7.80005C34.9658 7.80005 33.7998 8.96617 33.7998 10.4C33.7998 11.8339 34.9659 13 36.3998 13C37.8336 13 38.9998 11.834 38.9998 10.4C38.9998 8.96617 37.8336 7.80005 36.3998 7.80005ZM36.3998 11.7001C35.6829 11.7001 35.0998 11.117 35.0998 10.4C35.0998 9.6831 35.6828 9.1 36.3998 9.1C37.1168 9.1 37.6998 9.68302 37.6998 10.4C37.6997 11.117 37.1167 11.7001 36.3998 11.7001Z" fill="#AAB1C4"/>
<path d="M2.59997 29.25C1.16612 29.25 0 30.4161 0 31.85C0 33.2838 1.16612 34.4499 2.59997 34.4499C4.03391 34.4499 5.19995 33.2838 5.19995 31.85C5.19995 30.4161 4.03391 29.25 2.59997 29.25ZM2.59997 33.15C1.88304 33.15 1.29995 32.567 1.29995 31.85C1.29995 31.133 1.88297 30.5499 2.59997 30.5499C3.3169 30.5499 3.9 31.133 3.9 31.85C3.9 32.567 3.31698 33.15 2.59997 33.15Z" fill="#AAB1C4"/>
<path d="M35.1396 8.62159L29.5321 5.91437C29.2083 5.75768 28.8203 5.89418 28.6643 6.2173C28.5083 6.54035 28.6441 6.92905 28.9672 7.08505L34.5748 9.79228C34.6658 9.83646 34.762 9.85726 34.8568 9.85726C35.0986 9.85726 35.3307 9.72205 35.4425 9.48935C35.5985 9.1663 35.4626 8.7776 35.1396 8.62159Z" fill="#AAB1C4"/>
<path d="M29.2504 33.7999C27.8164 33.7999 26.6504 34.966 26.6504 36.3999C26.6504 37.8338 27.8164 39 29.2504 39C30.6843 39 31.8503 37.8338 31.8503 36.4C31.8503 34.9661 30.6843 33.7999 29.2504 33.7999ZM29.2504 37.6999C28.5334 37.6999 27.9503 37.1169 27.9503 36.3999C27.9503 35.6829 28.5334 35.1 29.2504 35.1C29.9673 35.1 30.5504 35.683 30.5504 36.4C30.5504 37.117 29.9673 37.6999 29.2504 37.6999Z" fill="#AAB1C4"/>
<path d="M27.9892 34.6217L22.3817 31.9145C22.0579 31.7578 21.6699 31.8937 21.5139 32.2174C21.3579 32.5404 21.4937 32.9292 21.8169 33.0852L27.4244 35.7924C27.5154 35.8366 27.6116 35.8574 27.7065 35.8574C27.9482 35.8574 28.1803 35.7221 28.2922 35.4894C28.4481 35.1663 28.3123 34.7777 27.9892 34.6217Z" fill="#AAB1C4"/>
<path d="M19.5004 17.55C18.0664 17.55 16.9004 18.7162 16.9004 20.15C16.9004 21.584 18.0665 22.75 19.5004 22.75C20.9343 22.75 22.1003 21.5839 22.1003 20.15C22.1003 18.7162 20.9343 17.55 19.5004 17.55ZM19.5004 21.4501C18.7834 21.4501 18.2003 20.867 18.2003 20.15C18.2003 19.4331 18.7834 18.85 19.5004 18.85C20.2173 18.85 20.8004 19.433 20.8004 20.15C20.8004 20.867 20.2173 21.4501 19.5004 21.4501Z" fill="#AAB1C4"/>
<path d="M18.3574 18.4445L14.0499 15.0872C13.7665 14.8681 13.3584 14.9169 13.1373 15.2003C12.9169 15.4837 12.967 15.8919 13.2504 16.1129L17.5579 19.4702C17.6769 19.5625 17.8173 19.6074 17.9571 19.6074C18.1508 19.6074 18.3419 19.5216 18.4706 19.3572C18.6909 19.0736 18.6409 18.6654 18.3574 18.4445Z" fill="#AAB1C4"/>
<path d="M31.1998 16.9C27.2576 16.9 24.0498 20.1078 24.0498 24.05C24.0498 27.9923 27.2576 31.2001 31.1998 31.2001C35.1421 31.2001 38.3499 27.9923 38.3499 24.05C38.3499 20.1078 35.1421 16.9 31.1998 16.9ZM31.1998 29.9C27.9739 29.9 25.3498 27.2759 25.3498 24.05C25.3498 20.824 27.9739 18.2 31.1998 18.2C34.4258 18.2 37.0498 20.824 37.0498 24.05C37.0498 27.2759 34.4258 29.9 31.1998 29.9Z" fill="#AAB1C4"/>
<path d="M31.1996 19.5C29.7656 19.5 28.5996 20.6661 28.5996 22.1C28.5996 23.5339 29.7657 24.6999 31.1996 24.6999C32.6335 24.6999 33.7996 23.5338 33.7996 22.1C33.7996 20.6661 32.6335 19.5 31.1996 19.5ZM31.1996 23.4C30.4827 23.4 29.8996 22.817 29.8996 22.1C29.8996 21.383 30.4826 20.8 31.1996 20.8C31.9165 20.8 32.4996 21.383 32.4996 22.1C32.4996 22.817 31.9165 23.4 31.1996 23.4Z" fill="#AAB1C4"/>
<path d="M33.0854 26H29.3142C28.2034 26 27.2998 26.8795 27.2998 27.9597V29.6732C27.2998 29.9052 27.4233 30.1197 27.6241 30.2361C28.7136 30.8665 29.9498 31.2 31.1998 31.2C32.4498 31.2 33.6861 30.8665 34.7755 30.2361C34.9763 30.1204 35.0998 29.9052 35.0998 29.6738V27.9604C35.0998 26.8795 34.1963 26 33.0854 26ZM33.7998 29.2857C32.182 30.0917 30.2176 30.0917 28.5998 29.2857V27.9604C28.5998 27.5964 28.9202 27.3 29.3141 27.3H33.0854C33.4792 27.3 33.7997 27.5964 33.7997 27.9604V29.2857H33.7998Z" fill="#AAB1C4"/>
<path d="M15.6002 24.7001C11.6579 24.7001 8.4502 27.9078 8.4502 31.8501C8.4502 35.7924 11.6579 39 15.6002 39C19.5425 39 22.7502 35.7923 22.7502 31.85C22.7502 27.9077 19.5425 24.7001 15.6002 24.7001ZM15.6002 37.7C12.3743 37.7 9.75022 35.076 9.75022 31.85C9.75022 28.6241 12.3743 26 15.6002 26C18.8262 26 21.4502 28.6241 21.4502 31.85C21.4502 35.076 18.8262 37.7 15.6002 37.7Z" fill="#AAB1C4"/>
<path d="M15.6 27.3C14.166 27.3 13 28.4662 13 29.9C13 31.334 14.1661 32.5 15.6 32.5C17.0338 32.5 18.1999 31.3339 18.1999 29.9C18.1999 28.4662 17.0339 27.3 15.6 27.3ZM15.6 31.2C14.883 31.2 14.2999 30.617 14.2999 29.9C14.2999 29.1831 14.883 28.6 15.6 28.6C16.3169 28.6 16.9 29.183 16.9 29.9C16.9 30.617 16.3169 31.2 15.6 31.2Z" fill="#AAB1C4"/>
<path d="M17.4858 33.7999H13.7146C12.6037 33.7999 11.7002 34.6794 11.7002 35.7597V37.4731C11.7002 37.7051 11.8237 37.9196 12.0245 38.036C13.1139 38.6665 14.3502 39 15.6002 39C16.8502 39 18.0864 38.6665 19.1759 38.036C19.3767 37.9203 19.5002 37.7052 19.5002 37.4738V35.7604C19.5002 34.6794 18.5967 33.7999 17.4858 33.7999ZM18.2002 37.0857C16.5823 37.8916 14.618 37.8916 13.0001 37.0857V35.7604C13.0001 35.3963 13.3206 35.1 13.7145 35.1H17.4858C17.8796 35.1 18.2001 35.3963 18.2001 35.7604V37.0857H18.2002Z" fill="#AAB1C4"/>
<path d="M7.15003 8.44995C3.20775 8.44995 0 11.6577 0 15.6C0 19.5423 3.20775 22.75 7.15003 22.75C11.0923 22.75 14.3001 19.5423 14.3001 15.6C14.3 11.6577 11.0922 8.44995 7.15003 8.44995ZM7.15003 21.45C3.92407 21.45 1.30003 18.8259 1.30003 15.6C1.30003 12.374 3.92407 9.74998 7.15003 9.74998C10.376 9.74998 13 12.374 13 15.6C13 18.8259 10.376 21.45 7.15003 21.45Z" fill="#AAB1C4"/>
<path d="M7.14978 11.05C5.71584 11.05 4.5498 12.2162 4.5498 13.65C4.5498 15.0839 5.71592 16.25 7.14978 16.25C8.58371 16.25 9.74975 15.0839 9.74975 13.65C9.74975 12.2162 8.58364 11.05 7.14978 11.05ZM7.14978 14.95C6.43285 14.95 5.84975 14.367 5.84975 13.65C5.84975 12.933 6.43277 12.35 7.14978 12.35C7.86671 12.35 8.4498 12.933 8.4498 13.65C8.4498 14.367 7.86671 14.95 7.14978 14.95Z" fill="#AAB1C4"/>
<path d="M9.03564 17.55H5.26437C4.15355 17.55 3.25 18.4295 3.25 19.5098V21.2232C3.25 21.4552 3.37347 21.6697 3.57434 21.7861C4.66375 22.4166 5.90002 22.7501 7.15 22.7501C8.39998 22.7501 9.63626 22.4166 10.7257 21.7861C10.9265 21.6704 11.05 21.4552 11.05 21.2239V19.5105C11.05 18.4295 10.1465 17.55 9.03564 17.55ZM9.74998 20.8358C8.13216 21.6418 6.16784 21.6418 4.54995 20.8358V19.5105C4.54995 19.1465 4.87041 18.8501 5.26429 18.8501H9.03556C9.42945 18.8501 9.7499 19.1465 9.7499 19.5105V20.8358H9.74998Z" fill="#AAB1C4"/>
<path d="M22.7496 0C18.8074 0 15.5996 3.20775 15.5996 7.15003C15.5996 11.0923 18.8074 14.3001 22.7496 14.3001C26.6919 14.3001 29.8996 11.0923 29.8996 7.15003C29.8996 3.20775 26.6918 0 22.7496 0ZM22.7496 13C19.5237 13 16.8996 10.376 16.8996 7.15003C16.8996 3.92407 19.5237 1.30003 22.7496 1.30003C25.9756 1.30003 28.5996 3.92407 28.5996 7.15003C28.5996 10.376 25.9756 13 22.7496 13Z" fill="#AAB1C4"/>
<path d="M22.7504 2.59998C21.3164 2.59998 20.1504 3.76609 20.1504 5.19995C20.1504 6.63381 21.3165 7.79993 22.7504 7.79993C24.1842 7.79993 25.3503 6.63389 25.3503 5.20003C25.3503 3.76617 24.1842 2.59998 22.7504 2.59998ZM22.7504 6.49998C22.0334 6.49998 21.4503 5.91696 21.4503 5.19995C21.4503 4.48302 22.0334 3.89992 22.7504 3.89992C23.4674 3.89992 24.0504 4.48294 24.0504 5.19995C24.0503 5.91696 23.4673 6.49998 22.7504 6.49998Z" fill="#AAB1C4"/>
<path d="M24.6352 9.09998H20.864C19.7532 9.09998 18.8496 9.97946 18.8496 11.0597V12.7731C18.8496 13.0051 18.9731 13.2196 19.1739 13.336C20.2634 13.9665 21.4996 14.3 22.7496 14.3C23.9996 14.3 25.2358 13.9665 26.3253 13.336C26.5261 13.2203 26.6496 13.0051 26.6496 12.7738V11.0604C26.6496 9.97938 25.746 9.09998 24.6352 9.09998ZM25.3496 12.3857C23.7318 13.1917 21.7674 13.1917 20.1496 12.3857V11.0604C20.1496 10.6964 20.47 10.4 20.8639 10.4H24.6352C25.029 10.4 25.3495 10.6964 25.3495 11.0604V12.3857H25.3496Z" fill="#AAB1C4"/>
<path d="M16.7443 6.72681C16.511 6.45511 16.1008 6.42258 15.8278 6.65597L11.3233 10.5105C11.0503 10.7438 11.0185 11.154 11.2518 11.427C11.3805 11.5771 11.5625 11.6545 11.7458 11.6545C11.8953 11.6545 12.0454 11.6032 12.1683 11.4978L16.6728 7.64331C16.9459 7.41 16.9777 6.99981 16.7443 6.72681Z" fill="#AAB1C4"/>
<path d="M31.07 17.1607L27.17 11.9607C26.9548 11.6728 26.5473 11.6162 26.26 11.8307C25.9727 12.0459 25.9148 12.4534 26.1299 12.74L30.0299 17.94C30.158 18.1104 30.353 18.2 30.5506 18.2C30.6858 18.2 30.823 18.1577 30.94 18.07C31.2273 17.8549 31.2852 17.4474 31.07 17.1607Z" fill="#AAB1C4"/>
<path d="M25.7355 26.1995C25.5203 25.9122 25.1127 25.8544 24.8254 26.0695L21.1945 28.7924C20.9072 29.0075 20.8494 29.4151 21.0645 29.7017C21.1926 29.872 21.3876 29.9617 21.5852 29.9617C21.721 29.9617 21.8575 29.9188 21.9745 29.8317L25.6054 27.1088C25.8927 26.8938 25.9506 26.4862 25.7355 26.1995Z" fill="#AAB1C4"/>
<path d="M9.10042 31.2H4.55037C4.1916 31.2 3.90039 31.4905 3.90039 31.8499C3.90039 32.2094 4.1916 32.4999 4.55037 32.4999H9.10034C9.45911 32.4999 9.75031 32.2094 9.75031 31.8499C9.75031 31.4905 9.45919 31.2 9.10042 31.2Z" fill="#AAB1C4"/>
<path d="M7.14986 0C5.71592 0 4.5498 1.16612 4.5498 2.59997C4.5498 4.03391 5.71592 5.19995 7.14978 5.19995C8.58371 5.19995 9.74975 4.03383 9.74975 2.59997C9.74983 1.16612 8.58371 0 7.14986 0ZM7.14986 3.9C6.43293 3.9 5.84983 3.31698 5.84983 2.59997C5.84983 1.88304 6.43285 1.29995 7.14986 1.29995C7.86678 1.29995 8.44988 1.88297 8.44988 2.59997C8.4498 3.31698 7.86678 3.9 7.14986 3.9Z" fill="#AAB1C4"/>
<path d="M7.14997 3.90002C6.7912 3.90002 6.5 4.19054 6.5 4.55V9.09997C6.5 9.45943 6.7912 9.74995 7.14997 9.74995C7.50874 9.74995 7.79995 9.45943 7.79995 9.09997V4.55C7.79995 4.19054 7.50874 3.90002 7.14997 3.90002Z" fill="#AAB1C4"/>
</g>
<defs>
<clipPath id="clip0">
<rect width="39" height="39" fill="white"/>
</clipPath>
</defs>
</svg>
