<svg width="33" height="38" viewBox="0 0 33 38" fill="none" xmlns="http://www.w3.org/2000/svg">
<path d="M1.62679 0.0180723H21.9943C22.2473 0.0180723 22.4822 0.126506 22.6449 0.289157L31.9521 9.57831C32.1328 9.75904 32.2232 9.99398 32.2232 10.2289V36.253C32.2232 36.759 31.8075 37.1747 31.3015 37.1747H1.5545C1.04848 37.1747 0.632812 36.759 0.632812 36.253V0.921687C0.632812 0.415663 1.04848 0 1.5545 0L1.62679 0.0180723ZM19.2111 27.9036V15.8313C19.2111 15.3253 19.6268 14.9096 20.1328 14.9096C20.6388 14.9096 21.0545 15.3253 21.0545 15.8313V27.9217H22.9159V21.4157C22.9159 20.9096 23.3316 20.494 23.8376 20.494C24.3437 20.494 24.7593 20.9096 24.7593 21.4157V28.8614C24.7593 29.3675 24.3437 29.7831 23.8376 29.7831H20.1328H16.4099H12.687H8.98221C8.47619 29.7831 8.06052 29.3675 8.06052 28.8614V23.2771C8.06052 22.7711 8.47619 22.3554 8.98221 22.3554C9.48824 22.3554 9.9039 22.7711 9.9039 23.2771V27.9217H11.7653V17.6928C11.7653 17.1867 12.181 16.7711 12.687 16.7711C13.1931 16.7711 13.6087 17.1867 13.6087 17.6928V27.9217H15.4702V21.4157C15.4702 20.9096 15.8858 20.494 16.3918 20.494C16.8979 20.494 17.3135 20.9096 17.3135 21.4157V27.9217H19.2111V27.9036ZM22.9159 3.1988V9.3253H29.0424L22.9159 3.1988ZM30.3617 11.1687H21.9943C21.4882 11.1687 21.0726 10.753 21.0726 10.247V1.87952H2.47619V35.3494H30.3617V11.1687Z" fill="#AAB1C4"/>
</svg>
