<svg width="39" height="39" viewBox="0 0 39 39" fill="none" xmlns="http://www.w3.org/2000/svg">
<g clip-path="url(#clip0)">
<path d="M38.3503 1.70175e-08C38.3502 1.70175e-08 38.3501 1.70175e-08 38.35 1.70175e-08H0.65C0.291119 -8.1233e-05 8.125e-05 0.290794 0 0.649675C0 0.649756 0 0.649919 0 0.65V13.65H1.3V1.3H37.7V15.6H14.95V16.9H38.35C38.7089 16.9001 38.9999 16.6092 39 16.2503C39 16.2502 39 16.2501 39 16.25V0.65C39.0001 0.291119 38.7092 8.1267e-05 38.3503 1.70175e-08Z" fill="#AAB1C4"/>
<path d="M34.4502 3.25H21.4502V4.55H34.4502V3.25Z" fill="#AAB1C4"/>
<path d="M36.4004 7.15002H23.4004V8.45002H36.4004V7.15002Z" fill="#AAB1C4"/>
<path d="M33.7998 11.05H20.7998V12.35H33.7998V11.05Z" fill="#AAB1C4"/>
<path d="M20.7482 5.60411C20.3032 4.53446 19.0753 4.02811 18.0057 4.47311C17.9874 4.48075 17.9693 4.48855 17.9512 4.49668L12.6807 7.23074C12.8885 6.79995 12.9976 6.32821 13 5.84998C13 4.05508 11.5449 2.59998 9.75 2.59998C7.95511 2.59998 6.5 4.05508 6.5 5.84998C6.50244 6.55547 6.73668 7.24065 7.16666 7.79998H7.1396C5.29458 7.81233 3.64756 8.95933 2.99618 10.6857L1.261 16.6664C0.847925 17.7394 1.38288 18.9441 2.45594 19.3572C2.94523 19.5456 3.48758 19.5424 3.97467 19.3483C4.53432 19.1228 4.96982 18.6675 5.17026 18.0984L5.85 15.9351V25.3425C5.29068 24.9126 4.60549 24.6784 3.9 24.6758C2.10779 24.6732 0.652681 26.1239 0.65 27.9162C0.6487 28.7939 1.00295 29.6347 1.63207 30.2468C0.633669 30.7569 0.00390002 31.782 1.70175e-08 32.9031V38.35C-8.1233e-05 38.7089 0.290794 38.9999 0.649675 39C0.649756 39 0.649919 39 0.65 39H7.15C7.50888 39.0001 7.79992 38.7092 7.8 38.3503C7.8 38.3502 7.8 38.3501 7.8 38.35V32.9031C7.79683 31.9818 7.36881 31.1135 6.64008 30.55H11.56C10.8312 31.1135 10.4032 31.9818 10.4001 32.9031V38.35C10.4 38.7089 10.6909 38.9999 11.0498 39C11.0498 39 11.05 39 11.0501 39H17.5501C17.909 39.0001 18.2 38.7092 18.2001 38.3503C18.2001 38.3502 18.2001 38.3501 18.2001 38.35V32.9031C18.1962 31.782 17.5664 30.7569 16.568 30.2468C17.8514 28.9942 17.8763 26.9383 16.6237 25.655C15.8523 24.8647 14.7321 24.5206 13.6501 24.7416V11.4448L19.6172 8.34646C20.6867 7.90154 21.1931 6.67369 20.7482 5.60411ZM9.75 3.89998C10.827 3.89998 11.7 4.77301 11.7 5.84998C11.7 6.92694 10.827 7.79998 9.75 7.79998C8.67352 7.79884 7.80114 6.92646 7.8 5.84998C7.8 4.77301 8.67303 3.89998 9.75 3.89998ZM3.9 25.9758C4.97697 25.9758 5.85 26.8489 5.85 27.9258C5.85 29.0028 4.97697 29.8758 3.9 29.8758C2.82303 29.8758 1.95 29.0028 1.95 27.9258C1.95114 26.8494 2.82352 25.9771 3.9 25.9758ZM6.5 37.7H1.3V32.9031C1.3013 31.9629 2.06318 31.2011 3.00341 31.2H4.79659C5.73674 31.2011 6.4987 31.9629 6.5 32.9031V37.7ZM16.9 32.9031V37.7H11.7V32.9031C11.7013 31.9629 12.4632 31.2011 13.4034 31.2H15.1966C16.1368 31.2011 16.8987 31.9629 16.9 32.9031ZM14.3 25.9758C15.3765 25.977 16.2489 26.8494 16.25 27.9258C16.25 29.0028 15.377 29.8758 14.3 29.8758C13.223 29.8758 12.35 29.0028 12.35 27.9258C12.35 26.8489 13.223 25.9758 14.3 25.9758ZM19.5587 6.68848C19.4717 6.91175 19.2931 7.08701 19.0681 7.16964L12.7008 10.4729C12.4853 10.5847 12.35 10.8073 12.35 11.05V25.3425C11.1325 26.2428 10.7107 27.8721 11.3386 29.25H10.4V18.2H9.1V29.25H6.8614C7.04633 28.8413 7.14374 28.3985 7.14756 27.95H7.15V11.7C7.14992 11.3409 6.8588 11.05 6.49984 11.0501C6.21603 11.0501 5.96505 11.2343 5.8799 11.5051L3.939 17.6814C3.79194 18.087 3.34384 18.2966 2.93824 18.1494C2.90981 18.1391 2.88194 18.1272 2.8548 18.1136C2.47983 17.9198 2.32066 17.4674 2.49178 17.0815L4.22687 11.1008C4.69479 9.89907 5.84992 9.10558 7.13952 9.09998H11.7419C11.8461 9.10014 11.9488 9.07503 12.0413 9.02701L18.5016 5.67358C18.8892 5.51189 19.3359 5.67732 19.5245 6.05253C19.6246 6.25029 19.637 6.48104 19.5587 6.68848Z" fill="#AAB1C4"/>
<path d="M26.9677 30.2468C28.2534 28.9943 28.2802 26.9366 27.0276 25.651C25.7751 24.3654 23.7174 24.3385 22.4318 25.5911C21.1462 26.8436 21.1194 28.9013 22.3719 30.1869C22.3917 30.2072 22.4116 30.2271 22.4319 30.2468C21.4336 30.7569 20.8037 31.7819 20.7998 32.903V38.3499C20.7997 38.7088 21.0906 38.9999 21.4495 38.9999C21.4496 38.9999 21.4497 38.9999 21.4498 38.9999H27.9498C28.3087 39 28.5997 38.7092 28.5998 38.3503C28.5998 38.3502 28.5998 38.35 28.5998 38.3499V32.903C28.5959 31.7819 27.9661 30.7569 26.9677 30.2468ZM24.6998 25.9758C25.7768 25.9758 26.6498 26.8488 26.6498 27.9258C26.6498 29.0028 25.7768 29.8758 24.6998 29.8758C23.6228 29.8758 22.7498 29.0028 22.7498 27.9258C22.7509 26.8493 23.6233 25.977 24.6998 25.9758ZM27.2998 37.6999H22.0998V32.903C22.1011 31.9629 22.863 31.2011 23.8032 31.1999H25.5964C26.5365 31.2011 27.2985 31.9629 27.2998 32.903V37.6999Z" fill="#AAB1C4"/>
<path d="M37.3681 30.2468C38.6537 28.9943 38.6806 26.9366 37.428 25.651C36.1755 24.3654 34.1178 24.3385 32.8322 25.5911C31.5466 26.8436 31.5198 28.9013 32.7723 30.1869C32.792 30.2072 32.812 30.2271 32.8323 30.2468C31.8339 30.7569 31.2041 31.7819 31.2002 32.903V38.3499C31.2001 38.7088 31.491 38.9999 31.8499 38.9999C31.85 38.9999 31.8501 38.9999 31.8502 38.9999H38.3502C38.7091 39 39.0001 38.7092 39.0002 38.3503C39.0002 38.3502 39.0002 38.35 39.0002 38.3499V32.903C38.9963 31.7819 38.3665 30.7569 37.3681 30.2468ZM35.1002 25.9758C36.1772 25.9758 37.0502 26.8488 37.0502 27.9258C37.0502 29.0028 36.1772 29.8758 35.1002 29.8758C34.0232 29.8758 33.1502 29.0028 33.1502 27.9258C33.1513 26.8493 34.0237 25.977 35.1002 25.9758ZM37.7002 37.6999H32.5002V32.903C32.5015 31.9629 33.2634 31.2011 34.2036 31.1999H35.9968C36.9369 31.2011 37.6989 31.9629 37.7002 32.903V37.6999Z" fill="#AAB1C4"/>
</g>
<defs>
<clipPath id="clip0">
<rect width="39" height="39" fill="white"/>
</clipPath>
</defs>
</svg>
