<svg width="39" height="39" viewBox="0 0 39 39" fill="none" xmlns="http://www.w3.org/2000/svg">
<path d="M36.6364 0H2.36367C1.06364 0 0 1.06364 0 2.36367V36.6364C0 37.9365 1.06364 39.0001 2.36367 39.0001H36.6364C37.9365 39.0001 39.0001 37.9365 39.0001 36.6364V2.36367C39 1.06364 37.9364 0 36.6364 0ZM37.8182 36.6364C37.8182 37.2864 37.2864 37.8183 36.6364 37.8183H2.36367C1.71369 37.8183 1.18183 37.2865 1.18183 36.6364V9.10001H37.8182V36.6364ZM37.8182 7.91818H1.18183V2.36367C1.18183 1.71369 1.71362 1.18183 2.36367 1.18183H36.6364C37.2864 1.18183 37.8183 1.71362 37.8183 2.36367V7.91818H37.8182Z" fill="white"/>
<path d="M5.08136 2.54089C3.95862 2.54089 3.07227 3.48634 3.07227 4.60908C3.07227 5.73182 3.95862 6.67727 5.08136 6.67727C6.20409 6.67727 7.14954 5.73182 7.14954 4.60908C7.14954 3.48642 6.20409 2.54089 5.08136 2.54089ZM5.08136 5.49551C4.60867 5.49551 4.195 5.08185 4.195 4.60916C4.195 4.13639 4.60867 3.7228 5.08136 3.7228C5.55412 3.7228 5.96771 4.13647 5.96771 4.60916C5.96771 5.08185 5.55404 5.49551 5.08136 5.49551Z" fill="white"/>
<path d="M10.6366 2.54089C9.51381 2.54089 8.56836 3.48634 8.56836 4.60908C8.56836 5.73182 9.51381 6.67727 10.6366 6.67727C11.7593 6.67727 12.7047 5.73182 12.7047 4.60908C12.7047 3.48642 11.7593 2.54089 10.6366 2.54089ZM10.6366 5.49551C10.1638 5.49551 9.75019 5.08185 9.75019 4.60916C9.75019 4.13639 10.1639 3.7228 10.6366 3.7228C11.1092 3.7228 11.5229 4.13647 11.5229 4.60916C11.523 5.08185 11.1093 5.49551 10.6366 5.49551Z" fill="white"/>
<path d="M16.1317 2.54089C15.0089 2.54089 14.0635 3.48634 14.0635 4.60908C14.0635 5.73182 15.0089 6.67727 16.1317 6.67727C17.2544 6.67727 18.1999 5.73182 18.1999 4.60908C18.1999 3.48642 17.2544 2.54089 16.1317 2.54089ZM16.1317 5.49551C15.659 5.49551 15.2453 5.08185 15.2453 4.60916C15.2453 4.13639 15.659 3.7228 16.1317 3.7228C16.6044 3.7228 17.018 4.13647 17.018 4.60916C17.018 5.08185 16.6043 5.49551 16.1317 5.49551Z" fill="white"/>
<path d="M9.09997 15.4227C10.5182 15.4227 11.6999 14.2409 11.6999 12.8227C11.6999 11.4045 10.5181 10.2228 9.09997 10.2228C7.68175 10.2228 6.5 11.4046 6.5 12.8227C6.5 14.2409 7.68175 15.4227 9.09997 15.4227ZM9.09997 11.4045C9.86813 11.4045 10.5182 12.0545 10.5182 12.8227C10.5182 13.5909 9.86821 14.241 9.09997 14.241C8.3318 14.241 7.68175 13.6501 7.68175 12.8227C7.68175 12.0545 8.3318 11.4045 9.09997 11.4045Z" fill="white"/>
<path d="M5.37736 20.5046H12.7637C13.1183 20.5046 13.3546 20.2682 13.3546 19.9137V18.7319C13.3546 17.0774 11.9955 15.7183 10.4001 15.7183H7.80004C6.14552 15.7183 4.8455 17.0774 4.8455 18.7319V19.9137C4.7864 20.2091 5.08188 20.5046 5.37736 20.5046ZM5.96823 18.7318C5.96823 17.7273 6.79549 16.9 7.74094 16.9H10.3409C11.3455 16.9 12.1136 17.7273 12.1136 18.7318V19.3227H5.96823V18.7318Z" fill="white"/>
<path d="M4.54986 27.4182H20.6226C20.9772 27.4182 21.2135 27.1818 21.2135 26.8273C21.2135 26.4728 20.9771 26.2365 20.6226 26.2365H4.54986C4.19529 26.2365 3.95898 26.4728 3.95898 26.8273C3.95898 27.1818 4.19537 27.4182 4.54986 27.4182Z" fill="white"/>
<path d="M4.54986 23.1637H20.6226C20.9772 23.1637 21.2135 22.9273 21.2135 22.5728C21.2135 22.2183 20.9771 21.9819 20.6226 21.9819H4.54986C4.19529 21.9819 3.95898 22.2183 3.95898 22.5728C3.95898 22.9273 4.19537 23.1637 4.54986 23.1637Z" fill="white"/>
<path d="M4.54986 31.3773H24.8181C25.1726 31.3773 25.4089 31.1409 25.4089 30.7864C25.4089 30.4319 25.1726 30.1956 24.8181 30.1956H4.54986C4.19529 30.1956 3.95898 30.4319 3.95898 30.7864C3.95898 31.1409 4.19537 31.3773 4.54986 31.3773Z" fill="white"/>
<path d="M31.1408 34.2136H4.54986C4.19529 34.2136 3.95898 34.45 3.95898 34.8045C3.95898 35.159 4.19537 35.3954 4.54986 35.3954H31.1408C31.4954 35.3954 31.7317 35.159 31.7317 34.8045C31.7317 34.45 31.4363 34.2136 31.1408 34.2136Z" fill="white"/>
<path d="M17.0186 18.4364H35.3368C35.6914 18.4364 35.9277 18.2 35.9277 17.8455V12.4682C35.9277 12.1136 35.6913 11.8773 35.3368 11.8773H17.0186C16.664 11.8773 16.4277 12.1137 16.4277 12.4682V17.8455C16.4277 18.2 16.664 18.4364 17.0186 18.4364ZM17.6095 13.0591H34.7459V17.2545H17.6095V13.0591Z" fill="white"/>
<path d="M20.6223 14.5364H19.086C18.7314 14.5364 18.4951 14.7728 18.4951 15.1273C18.4951 15.4817 18.7315 15.7181 19.086 15.7181H20.6223C20.9769 15.7181 21.2132 15.4817 21.2132 15.1273C21.2132 14.7728 20.9769 14.5364 20.6223 14.5364Z" fill="white"/>
<path d="M24.8186 14.5364H23.2823C22.9277 14.5364 22.6914 14.7728 22.6914 15.1273C22.6914 15.4817 22.9869 15.7181 23.3414 15.7181H24.8187C25.1733 15.7181 25.4096 15.4817 25.4096 15.1273C25.4096 14.7728 25.1732 14.5364 24.8186 14.5364Z" fill="white"/>
<path d="M29.0725 14.5364H27.5362C27.1816 14.5364 26.9453 14.7728 26.9453 15.1273C26.9453 15.4817 27.2408 15.7181 27.5362 15.7181H29.0725C29.4271 15.7181 29.6634 15.4817 29.6634 15.1273C29.6634 14.7728 29.4271 14.5364 29.0725 14.5364Z" fill="white"/>
<path d="M33.3274 14.5364H31.7911C31.4365 14.5364 31.2002 14.7728 31.2002 15.1273C31.2002 15.4817 31.4366 15.7181 31.7911 15.7181H33.3274C33.682 15.7181 33.9183 15.4817 33.9183 15.1273C33.9183 14.7728 33.6819 14.5364 33.3274 14.5364Z" fill="white"/>
<path d="M31.2002 24.9363L32.9138 23.7545C33.0911 23.6363 33.2093 23.3999 33.1502 23.1636C33.0911 22.9273 32.9138 22.75 32.7366 22.6909L25.4093 20.9182C25.232 20.8591 24.9956 20.9182 24.8775 21.0954C24.7593 21.2136 24.7002 21.45 24.7002 21.6272L26.532 28.9545C26.5911 29.1909 26.7684 29.3682 27.0047 29.3682C27.2411 29.4273 27.4774 29.3091 27.5956 29.1318L28.8365 27.4182L32.6183 31.2C32.7365 31.3182 32.9138 31.3773 33.032 31.3773C33.2092 31.3773 33.3274 31.3182 33.4456 31.2L34.982 29.6637C35.2183 29.4273 35.2183 29.0728 34.982 28.8364L31.2002 24.9363ZM33.032 29.9591L29.132 26.1182C29.0139 26 28.8957 25.9409 28.7184 25.9409H28.6593C28.482 25.9409 28.3047 26.0591 28.2456 26.1773L27.3593 27.4182L26.0592 22.2773L31.1411 23.5773L29.9592 24.4046C29.841 24.5228 29.7228 24.6409 29.7228 24.8182C29.7228 24.9955 29.7819 25.1728 29.9001 25.291L33.8001 29.2501L33.032 29.9591Z" fill="white"/>
</svg>
