<svg width="60" height="60" viewBox="0 0 60 60" fill="none" xmlns="http://www.w3.org/2000/svg">
    <path d="M56.825 39.0374C55.4625 36.6624 52.4375 35.8249 50.05 37.1749L38.25 43.1874C37.6 42.4374 36.7375 41.8999 35.775 41.6499L23.4125 38.3374C22.4625 38.0874 21.4625 38.1124 20.5375 38.4249L16.3 39.8374C16 39.9374 15.675 39.9874 15.35 39.9874H12V35.9874H0V37.9874H10V57.9749H0V59.9749H12V56.9749H13.5C13.75 56.9749 13.9875 56.9999 14.225 57.0624L21.2625 58.8249C21.6625 58.9249 22.0625 58.9749 22.475 58.9749H30.9125C31.7875 58.9749 32.65 58.7499 33.4125 58.3124L54.9875 45.8499C56.525 44.9499 57.4875 43.3124 57.4875 41.5249C57.4875 40.6624 57.2625 39.7999 56.825 39.0374ZM53.9875 44.1249L32.4125 56.5874C31.95 56.8499 31.4375 56.9874 30.9125 56.9874H22.475C22.225 56.9874 21.9875 56.9624 21.75 56.8999L14.7125 55.1374C14.3125 55.0374 13.9125 54.9874 13.5 54.9874H12V41.9999H15.35C15.8875 41.9999 16.425 41.9124 16.925 41.7499L21.1625 40.3374C21.725 40.1499 22.325 40.1374 22.8875 40.2874L35.25 43.5999C36.85 44.0249 37.8 45.6749 37.375 47.2749C36.95 48.8749 35.3 49.8249 33.7 49.3999L25.25 47.1124L24.7375 49.0374L33.1875 51.2999C34.9625 51.7749 36.85 51.2374 38.1 49.9124C39.3625 48.5874 39.8 46.6749 39.225 44.9249L51 38.9249C52.4375 38.0999 54.275 38.5874 55.1 40.0249C55.9125 41.4749 55.425 43.3124 53.9875 44.1249Z" fill="#7E849A"/>
    <path d="M50.975 6.01258C46.575 6.02508 42.825 9.21258 42.1125 13.5501C39.4375 12.1126 36.3375 11.6626 33.3625 12.2751C34.7875 8.60008 33.6625 4.42508 30.575 1.97508C27.4875 -0.474919 23.1625 -0.624919 19.9125 1.60008C16.6625 3.82508 15.2375 7.91258 16.4 11.6751C17.5625 15.4376 21.05 18.0001 24.9875 18.0001H25.05C22.0625 22.6626 22.3625 28.7001 25.7875 33.0501C29.2125 37.4001 35.0125 39.1001 40.25 37.2751C45.475 35.4626 48.9875 30.5251 48.975 25.0001C48.975 24.5751 48.95 24.1626 48.9125 23.7501C52.2875 24.5626 55.825 23.3501 58 20.6501C60.175 17.9501 60.6125 14.2376 59.1125 11.1126C57.6125 7.98758 54.45 6.00008 50.975 6.01258ZM17.9875 9.01258C17.975 5.96258 19.9375 3.25008 22.85 2.32508C25.75 1.40008 28.9375 2.45008 30.7 4.95008C32.4625 7.43758 32.4125 10.7876 30.5625 13.2251C29.2 13.8501 27.9625 14.7001 26.9 15.7501C26.275 15.9251 25.6375 16.0251 24.9875 16.0251C21.125 16.0001 18 12.8751 17.9875 9.01258ZM35.9875 36.0001C29.9125 36.0001 24.9875 31.0751 24.9875 25.0001C24.9875 18.9251 29.9125 14.0001 35.9875 14.0001C42.0625 14.0001 46.9875 18.9251 46.9875 25.0001C46.9625 31.0751 42.05 35.9876 35.9875 36.0001ZM50.975 22.0001C50.125 22.0001 49.2875 21.8376 48.4875 21.5376C47.75 18.8626 46.175 16.5001 43.9875 14.7876C44.1125 10.9501 47.2875 7.92508 51.125 8.01258C54.9625 8.10008 58.0125 11.2501 57.975 15.0876C57.9375 18.9251 54.8125 22.0126 50.975 22.0001Z" fill="#7E849A"/>
    <path d="M35.9875 20.0125C37.0875 20.0125 37.9875 20.9125 37.9875 22.0125H39.9875C39.975 20.2 38.75 18.6125 36.9875 18.1625V16.025H34.9875V18.1625C33.0375 18.6625 31.7751 20.5375 32.0251 22.525C32.2751 24.525 33.975 26.0125 35.9875 26.0125C37.0875 26.0125 37.9875 26.9125 37.9875 28.0125C37.9875 29.1125 37.0875 30.0125 35.9875 30.0125C34.8875 30.0125 33.9875 29.1125 33.9875 28.0125H31.9875C32 29.825 33.225 31.4125 34.9875 31.8625V34H36.9875V31.8625C38.9375 31.3625 40.2001 29.4875 39.9501 27.5C39.7001 25.5 38 24.0125 35.9875 24.0125C34.8875 24.0125 33.9875 23.1125 33.9875 22.0125C33.9875 20.9125 34.875 20.0125 35.9875 20.0125Z" fill="#237BEF"/>
    <path d="M53.2625 9.30005L50.975 11.5875L48.6875 9.30005L47.275 10.7125L49.5625 13H47.975V15H49.975V16H47.975V18H49.975V21H51.975V18H53.975V16H51.975V15H53.975V13H52.3875L54.675 10.7125L53.2625 9.30005Z" fill="#237BEF"/>
    <path d="M27.9374 14.5375L27.0374 12.75C26.7124 12.9125 26.3499 13 25.9874 13C24.7999 12.9125 23.7874 12.125 23.3999 11H25.9874V9H22.9874C22.9874 8.6625 23.0249 8.325 23.0999 8H25.9874V6H24.0249C24.4999 5.3875 25.2124 5.025 25.9874 5C26.3499 5 26.7124 5.0875 27.0249 5.25L27.9249 3.4625C27.3249 3.1625 26.6624 3 25.9874 3C24.0874 3.0875 22.4124 4.25 21.6624 6H19.9874V8H21.0624C21.0124 8.325 20.9874 8.6625 20.9874 9H19.9874V11H21.2749C21.7874 13.225 23.6999 14.85 25.9749 15C26.6624 15.0125 27.3374 14.85 27.9374 14.5375Z" fill="#237BEF"/>
</svg>
