<svg width="22" height="22" viewBox="0 0 22 22" fill="none" xmlns="http://www.w3.org/2000/svg">
    <g clip-path="url(#clip0)">
        <path d="M20.3357 2.67521C18.1165 0.456081 14.518 0.456081 12.2989 2.67521L1.24877 13.7253C-0.416256 15.3903 -0.416256 18.0882 1.24877 19.7533C2.62113 21.1256 4.69109 21.3472 6.30925 20.4565C6.47829 20.448 6.64451 20.384 6.77382 20.2562L17.8239 9.20612C18.9334 8.09658 18.9334 6.29798 17.8239 5.18844C16.7143 4.07891 14.9157 4.07891 13.8062 5.18844L4.76496 14.2296C4.4879 14.5067 4.4879 14.957 4.76496 15.234C5.04201 15.5111 5.49237 15.5111 5.76936 15.234L14.8106 6.19285C15.3661 5.63736 16.2654 5.63736 16.8195 6.19285C17.375 6.74834 17.375 7.64761 16.8195 8.20172L6.2709 18.7502C5.16137 19.8598 3.36277 19.8598 2.25323 18.7502C1.1437 17.6407 1.1437 15.8421 2.25323 14.7326L13.3033 3.67962C14.9683 2.01459 17.6662 2.01459 19.3313 3.67962C20.9963 5.34464 20.9963 8.04251 19.3313 9.7076L9.28561 19.7533C9.00856 20.0303 9.00856 20.4807 9.28561 20.7577C9.56267 21.0347 10.013 21.0347 10.29 20.7577L20.3357 10.712C22.5548 8.49293 22.5548 4.89435 20.3357 2.67521Z" fill="#AAB1C4"/>
    </g>
    <defs>
        <clipPath id="clip0">
            <rect width="22" height="22" fill="white"/>
        </clipPath>
    </defs>
</svg>
