<svg width="181" height="33" viewBox="0 0 181 33" fill="none" xmlns="http://www.w3.org/2000/svg">
<g clip-path="url(#clip0)">
<path d="M20.9507 15.5784C19.8828 17.3334 18.8148 19.0885 17.7499 20.8404C17.3227 21.5418 16.9172 22.2589 16.2888 22.8062C14.8401 24.0674 13.2335 23.5831 12.7289 21.7085C12.3451 20.2805 12.5865 18.8149 12.5308 17.3649C12.5092 16.8239 12.5277 16.2829 12.5277 15.6853C12.0293 15.7388 11.9612 16.1414 11.8034 16.4025C9.99557 19.3275 8.22491 22.2809 6.38615 25.1871C6.01469 25.7753 6.20042 26.0427 6.59046 26.4484C10.9026 30.9776 18.2854 31.3518 23.1795 27.2693C23.39 27.0963 23.5943 26.9139 23.7986 26.7346C24.4487 26.159 25.1328 26.071 25.7519 26.722C26.402 27.4014 26.3432 28.1688 25.7117 28.8199C24.8666 29.6911 23.876 30.3705 22.8266 30.9776C14.9825 35.535 4.86314 32.0784 1.31255 23.6177C-2.61261 14.2605 2.61268 3.8466 12.311 1.71097C22.0558 -0.434094 31.6304 8.26882 30.615 18.3588C30.4045 20.4441 29.5037 22.1079 27.5628 23.0358C24.8078 24.3536 21.771 22.5577 21.3655 19.2961C21.2169 18.104 21.3408 16.8774 21.3408 15.6665C21.2138 15.6382 21.0807 15.6067 20.9507 15.5784ZM15.3416 18.9312C15.4066 18.9533 15.4716 18.9784 15.5335 19.0004C16.6943 17.1133 17.8304 15.2104 19.0253 13.3453C20.0499 11.7443 21.2386 11.0618 22.3128 11.4644C23.8234 12.0305 23.9751 13.3987 24.0277 14.7669C24.0772 16.0628 24.0339 17.3618 24.1113 18.6545C24.167 19.5603 24.4858 20.4032 25.5259 20.5385C26.5041 20.6674 27.114 20.0509 27.535 19.2332C27.7702 18.7771 27.8538 18.2739 27.8755 17.7549C28.1045 12.0872 24.6406 6.86604 19.3906 4.98203C14.2829 3.14835 8.60257 4.97889 5.25009 9.53951C2.39289 13.4302 1.96261 19.425 4.31213 23.1679C4.80123 22.3847 5.27795 21.633 5.74537 20.8719C7.64295 17.7706 9.52814 14.66 11.4381 11.5682C11.9953 10.6655 12.7104 9.88863 13.896 10.2283C15.0104 10.5491 15.2023 11.5682 15.323 12.5684C15.3663 12.9175 15.3416 13.2761 15.3416 13.6283C15.3416 15.396 15.3416 17.1636 15.3416 18.9312Z" fill="#FAFAFA"/>
<path d="M93.1729 17.3745C92.1824 18.4659 91.3806 19.3434 90.5851 20.2241C89.3066 21.6363 89.2509 21.6363 88.0034 20.265C87.2171 19.4 86.4277 18.5351 85.6415 17.6701C85.6198 17.6481 85.5826 17.6387 85.3567 17.5286C85.3567 19.1515 85.3598 20.6864 85.3567 22.2213C85.3567 22.7308 85.3752 23.2467 85.3226 23.7499C85.2359 24.5488 84.8119 25.0866 83.9761 25.0772C83.1031 25.0646 82.6202 24.5488 82.5954 23.665C82.5645 22.605 82.58 21.5419 82.58 20.482C82.58 17.5758 82.5769 14.6664 82.5831 11.7602C82.5831 11.3796 82.4809 10.911 82.9762 10.7663C83.3724 10.6499 83.6015 11.0022 83.8275 11.2601C85.369 13.0214 86.9354 14.7608 88.4275 16.563C89.0837 17.3588 89.5202 17.2927 90.1455 16.541C91.5911 14.8017 93.0986 13.1127 94.5938 11.4174C94.86 11.1154 95.0953 10.6153 95.6029 10.782C96.1447 10.9613 95.9682 11.4991 95.9682 11.908C95.9775 15.6792 95.9775 19.4535 95.9713 23.2247C95.9682 24.5111 95.4884 25.1527 94.5597 25.0835C93.4701 24.9986 93.1822 24.2186 93.1791 23.2624C93.1698 21.391 93.1729 19.5227 93.1729 17.3745Z" fill="#FAFAFA"/>
<path d="M170.918 22.1363C170.918 20.29 170.927 18.4437 170.912 16.5975C170.905 15.9212 171.008 15.3174 171.707 15.0594C172.339 14.8267 172.747 15.1507 172.989 15.7262C173.187 16.2012 173.404 15.8678 173.611 15.7545C176.118 14.3769 178.353 14.6726 179.858 16.5849C181.427 18.5821 181.381 21.7337 179.731 23.6712C178.338 25.3067 176.58 25.5772 174.676 24.8663C173.818 24.5455 173.685 24.8129 173.729 25.5866C173.769 26.332 173.76 27.0806 173.729 27.826C173.691 28.8136 173.069 29.5056 172.252 29.4207C171.323 29.3263 170.927 28.691 170.924 27.7977C170.909 25.9074 170.918 24.0203 170.918 22.1363ZM178.251 20.1988C178.338 18.8117 177.409 17.5819 176.217 17.4939C174.88 17.3964 173.815 18.428 173.738 19.8874C173.664 21.3248 174.608 22.5766 175.846 22.6867C177.069 22.7968 178.161 21.6676 178.251 20.1988Z" fill="#FAFAFA"/>
<path d="M152.973 10.5806C153.784 10.5869 154.994 10.958 156.09 11.672C156.783 12.128 157.325 12.7414 156.802 13.6252C156.273 14.5247 155.558 14.4398 154.719 13.946C152.892 12.8672 150.8 13.0685 149.444 14.3643C147.983 15.7577 147.565 18.1229 148.425 20.139C149.15 21.8374 150.852 22.8408 152.734 22.6804C153.691 22.5986 154.518 22.1991 155.257 21.5984C155.941 21.0417 156.684 20.8089 157.269 21.6456C157.833 22.4508 157.427 23.0987 156.731 23.646C154.14 25.6778 150.744 25.7596 148.11 23.8315C145.67 22.0482 144.575 18.6387 145.513 15.7545C146.546 12.5464 149.342 10.4673 152.973 10.5806Z" fill="#FAFAFA"/>
<path d="M40.8891 17.8682C40.917 12.5905 46.2073 9.08667 50.9528 11.2192C51.4047 11.4236 51.866 11.6815 52.222 12.0212C52.7606 12.5307 52.8751 13.1849 52.3891 13.8171C51.9465 14.3896 51.3707 14.4776 50.7361 14.138C50.5999 14.0656 50.4792 13.9618 50.343 13.8863C48.1358 12.6754 45.6934 13.2416 44.4212 15.264C43.1087 17.3461 43.542 20.3152 45.3684 21.7746C46.7707 22.8943 48.6838 23.017 50.2563 22.0797C50.5566 21.9004 50.8352 21.6866 51.1138 21.479C51.77 20.9946 52.4201 20.9317 52.9525 21.6205C53.488 22.3156 53.2466 22.9635 52.6337 23.4668C50.3615 25.3351 47.8356 25.7722 45.1455 24.6085C42.4988 23.4605 40.8737 20.7839 40.8891 17.8682Z" fill="#FAFAFA"/>
<path d="M166.163 16.1949C166.417 15.4683 166.717 14.8298 167.562 15.028C168.382 15.2198 168.42 15.9149 168.417 16.6195C168.407 18.8998 168.407 21.1801 168.417 23.4573C168.42 24.1524 168.417 24.8538 167.578 25.0519C166.745 25.2469 166.404 24.6587 166.169 23.9857C163.829 25.6904 161.414 25.6338 159.771 23.8441C157.916 21.8249 157.858 18.4343 159.644 16.393C161.315 14.4807 163.575 14.3926 166.163 16.1949ZM165.615 20.051C165.627 18.6262 164.689 17.5253 163.436 17.4907C162.117 17.453 161.123 18.5475 161.127 20.0321C161.13 21.4915 162.139 22.693 163.365 22.6961C164.615 22.7024 165.603 21.5449 165.615 20.051Z" fill="#FAFAFA"/>
<path d="M105.503 16.1981C105.71 15.5628 105.939 14.8614 106.766 15.0092C107.632 15.1633 107.731 15.8773 107.725 16.6385C107.71 18.9502 107.713 21.2651 107.722 23.58C107.725 24.3097 107.586 24.9545 106.756 25.0677C105.995 25.1715 105.654 24.6652 105.558 23.9512C102.912 25.7157 100.646 25.6339 98.9865 23.7373C97.2623 21.7715 97.2128 18.4124 98.8813 16.4812C100.618 14.4682 102.729 14.3707 105.503 16.1981ZM100.448 20.0196C100.441 21.5262 101.401 22.6899 102.652 22.6962C103.902 22.7057 104.902 21.5451 104.918 20.0668C104.933 18.5822 103.952 17.472 102.636 17.4908C101.355 17.5097 100.451 18.5508 100.448 20.0196Z" fill="#FAFAFA"/>
<path d="M120.748 19.0381C121.739 17.9247 122.723 16.827 123.698 15.723C124.305 15.0342 124.98 14.6033 125.763 15.3896C126.49 16.1162 126.28 16.8427 125.614 17.541C124.921 18.2707 123.8 19.0193 123.745 19.8244C123.683 20.7303 124.915 21.4568 125.528 22.3092C125.664 22.4979 125.834 22.6615 125.974 22.8502C126.478 23.5327 126.379 24.2152 125.794 24.7468C125.184 25.3003 124.488 25.228 123.94 24.6178C123.107 23.69 122.327 22.7149 121.51 21.7745C121.244 21.4694 121.049 21.07 120.507 20.8875C120.507 21.7997 120.513 22.6457 120.504 23.495C120.494 24.4668 120.052 25.1116 119.049 25.0802C118.105 25.0519 117.718 24.3851 117.715 23.4887C117.705 19.7993 117.711 16.113 117.711 12.4237C117.711 11.4486 118.201 10.7598 119.139 10.7787C120.073 10.7976 120.519 11.499 120.51 12.4771C120.494 14.2825 120.494 16.0879 120.516 17.8933C120.522 18.2455 120.343 18.6607 120.748 19.0381Z" fill="#FAFAFA"/>
<path d="M132.651 20.916C131.877 20.916 131.103 20.9443 130.329 20.9097C129.413 20.8688 129.459 21.3249 129.8 21.9162C130.196 22.6019 130.871 22.7906 131.589 22.8158C132.329 22.8441 133.059 22.7591 133.746 22.4572C134.406 22.1678 134.991 22.2307 135.331 22.9133C135.7 23.6555 135.319 24.1902 134.709 24.596C131.864 26.4863 127.496 24.6935 126.85 21.3689C126.066 17.3556 128.537 14.4242 132.288 14.9212C134.604 15.2294 136.347 17.343 136.232 19.702C136.195 20.4537 135.83 20.8783 135.084 20.9003C134.273 20.9223 133.459 20.9066 132.647 20.9066C132.651 20.9097 132.651 20.9129 132.651 20.916ZM131.524 19.1327C131.945 19.1327 132.366 19.1515 132.787 19.1264C133.025 19.1106 133.369 19.2836 133.468 18.9125C133.545 18.6263 133.341 18.3935 133.164 18.1922C132.452 17.3745 130.846 17.3178 130.013 18.0759C129.781 18.2866 129.546 18.5508 129.611 18.8716C129.701 19.3214 130.109 19.0981 130.378 19.1264C130.756 19.161 131.14 19.1327 131.524 19.1327Z" fill="#FAFAFA"/>
<path d="M54.0514 19.9189C54.0886 17.1102 56.4721 14.7985 59.2612 14.8614C61.9977 14.9243 64.1522 17.2801 64.0903 20.1391C64.0284 22.9321 61.8027 25.2281 59.1622 25.225C56.3483 25.2218 54.0112 22.7968 54.0514 19.9189ZM61.3198 20.1328C61.3569 18.6451 60.5056 17.5883 59.2303 17.5348C57.862 17.4751 56.8715 18.4941 56.8529 19.985C56.8312 21.5167 57.8342 22.6993 59.1467 22.6962C60.3416 22.693 61.2857 21.5828 61.3198 20.1328Z" fill="#FAFAFA"/>
<path d="M71.0986 19.8875C71.0986 18.7489 71.1017 17.6103 71.0986 16.4686C71.0956 15.8898 71.1915 15.3583 71.7766 15.0878C72.3988 14.7984 72.8384 15.0972 73.12 15.6288C73.4048 16.1603 73.6153 15.742 73.8351 15.6131C77.0762 13.7165 80.2027 15.481 80.3017 19.2836C80.3389 20.658 80.311 22.0325 80.3079 23.407C80.3048 24.36 79.921 25.0582 78.9149 25.0677C77.9089 25.0771 77.5095 24.4009 77.5095 23.4353C77.5095 22.1395 77.5312 20.8405 77.5002 19.5478C77.4662 18.1135 76.9709 17.5411 75.8039 17.5034C74.6492 17.4656 73.962 18.1481 73.897 19.5226C73.8382 20.7776 73.8877 22.0357 73.8723 23.2938C73.8599 24.4921 73.3986 25.0803 72.504 25.0897C71.6218 25.0991 71.1265 24.4858 71.1079 23.3063C71.0832 22.1678 71.0986 21.026 71.0986 19.8875Z" fill="#FAFAFA"/>
<path d="M142.228 25.2375C140.024 25.2092 139.015 24.3128 138.842 22.086C138.746 20.875 138.777 19.6547 138.783 18.4375C138.786 17.8965 138.829 17.4656 138.052 17.453C137.316 17.4404 136.814 16.934 136.836 16.154C136.857 15.396 137.316 14.8833 138.083 14.8739C138.78 14.8645 138.798 14.4745 138.783 13.9555C138.764 13.3296 138.758 12.6974 138.798 12.0715C138.848 11.2977 139.328 10.8102 140.046 10.7536C140.829 10.6907 141.349 11.1908 141.538 11.9614C141.618 12.2948 141.587 12.6628 141.581 13.0151C141.566 14.0058 141.312 15.0689 142.959 14.9399C143.621 14.8896 143.996 15.5847 143.934 16.3018C143.872 17.041 143.355 17.5033 142.693 17.4467C141.621 17.3555 141.504 17.865 141.569 18.7457C141.643 19.7207 141.6 20.7083 141.621 21.6865C141.634 22.2621 141.844 22.7024 142.498 22.6867C143.463 22.6615 144.141 23.039 144.058 24.0926C143.965 25.2029 143.079 25.2532 142.228 25.2375Z" fill="#FAFAFA"/>
<path d="M111.7 25.1054C110.87 25.0362 110.304 24.6431 110.291 23.8064C110.254 21.2179 110.273 18.6294 110.279 16.0408C110.279 15.5564 110.558 15.2388 110.985 15.0595C111.446 14.8645 111.895 15.0092 112.102 15.4023C112.449 16.0628 112.731 15.7923 113.136 15.4967C113.78 15.0249 114.523 14.8204 115.322 14.8645C116.089 14.9085 116.554 15.33 116.616 16.1006C116.678 16.9058 116.192 17.3115 115.467 17.4719C115.356 17.4971 115.235 17.4813 115.12 17.4939C113.557 17.6732 113.056 18.2331 113.037 19.856C113.025 21.0732 113.043 22.2873 113.028 23.5045C113.012 24.4103 112.601 24.9859 111.7 25.1054Z" fill="#FAFAFA"/>
<path d="M68.5416 20.0698C68.5416 21.2052 68.5385 22.3375 68.5416 23.473C68.5447 24.3725 68.2011 25.0393 67.2415 25.0739C66.2324 25.1116 65.7928 24.4574 65.7835 23.4981C65.768 21.2304 65.7742 18.9595 65.7773 16.6918C65.7773 15.7388 66.1952 15.0279 67.1641 15.0122C68.1485 14.9965 68.5478 15.7073 68.5416 16.6666C68.5385 17.7989 68.5416 18.9344 68.5416 20.0698Z" fill="#FAFAFA"/>
<path d="M68.7986 12.2099C68.8234 13.1283 68.13 13.8769 67.2292 13.902C66.3191 13.9303 65.6164 13.2321 65.604 12.2854C65.5917 11.3449 66.2789 10.5838 67.1518 10.5712C68.0093 10.5586 68.7739 11.3198 68.7986 12.2099Z" fill="#FAFAFA"/>
</g>
<defs>
<clipPath id="clip0">
<rect width="181" height="33" fill="white"/>
</clipPath>
</defs>
</svg>
