<svg width="97" height="97" viewBox="0 0 97 97" fill="none" xmlns="http://www.w3.org/2000/svg">
<circle cx="48.5" cy="48.5" r="48.5" fill="#7E849A"/>
<g clip-path="url(#clip0)">
<path d="M39.5918 45.2612V53.4134C39.5918 54.6577 40.6023 55.6682 41.8466 55.6682H55.8131C57.0575 55.6682 58.068 54.6577 58.068 53.4134V45.2612C58.068 44.0773 57.1065 43.1157 55.9225 43.1157H52.921L52.8494 42.8028C52.5591 41.5472 51.4543 40.6724 50.1647 40.6724H47.4913C46.2055 40.6724 45.1007 41.5472 44.8066 42.8028L44.735 43.1157H41.7373C40.5533 43.1157 39.5918 44.081 39.5918 45.2612ZM45.1045 44.0396C45.3194 44.0396 45.5042 43.8925 45.5532 43.6813L45.7078 43.0102C45.9039 42.1769 46.6354 41.5962 47.4913 41.5962H50.1647C51.0206 41.5962 51.7521 42.1769 51.9482 43.0102L52.1028 43.6813C52.1518 43.8887 52.3366 44.0396 52.5515 44.0396H55.9187C56.5937 44.0396 57.1404 44.5863 57.1404 45.2612V53.4134C57.1404 54.1487 56.5446 54.7444 55.8094 54.7444H41.8466C41.1114 54.7444 40.5156 54.1487 40.5156 53.4134V45.2612C40.5156 44.5863 41.0624 44.0396 41.7373 44.0396H45.1045Z" fill="white"/>
<path d="M42.718 46.6301C43.0595 46.6301 43.3364 46.3532 43.3364 46.0117C43.3364 45.6702 43.0595 45.3933 42.718 45.3933C42.3765 45.3933 42.0996 45.6702 42.0996 46.0117C42.0996 46.3532 42.3765 46.6301 42.718 46.6301Z" fill="white"/>
<path d="M48.8302 53.2965C50.9682 53.2965 52.7102 51.5545 52.7102 49.4165C52.7102 47.2785 50.9682 45.5365 48.8302 45.5365C46.6922 45.5365 44.9502 47.2748 44.9502 49.4165C44.9502 51.5582 46.6922 53.2965 48.8302 53.2965ZM48.8302 46.4603C50.4591 46.4603 51.7864 47.7876 51.7864 49.4165C51.7864 51.0454 50.4591 52.3727 48.8302 52.3727C47.2013 52.3727 45.874 51.0454 45.874 49.4165C45.874 47.7876 47.2013 46.4603 48.8302 46.4603Z" fill="white"/>
</g>
<defs>
<clipPath id="clip0">
<rect width="18.4762" height="18.4762" fill="white" transform="translate(39.5918 38.9321)"/>
</clipPath>
</defs>
</svg>
