<svg width="32" height="32" viewBox="0 0 32 32" fill="none" xmlns="http://www.w3.org/2000/svg">
<path d="M32 6.125V12.75C32 13.4404 31.4404 14 30.75 14C30.0596 14 29.5 13.4404 29.5 12.75V6.125C29.5 4.74658 28.3784 3.625 27 3.625H5C3.62158 3.625 2.5 4.74658 2.5 6.125V23.625C2.5 25.0034 3.62158 26.125 5 26.125H13.75C14.4404 26.125 15 26.6846 15 27.375C15 28.0654 14.4404 28.625 13.75 28.625H5C2.24292 28.625 0 26.3821 0 23.625V6.125C0 3.36792 2.24292 1.125 5 1.125H27C29.7571 1.125 32 3.36792 32 6.125ZM5.24341 21.4958C5.79346 21.9131 6.57739 21.8057 6.99487 21.2556L8.77026 18.916L12.0686 23.0876C12.3057 23.3877 12.667 23.5625 13.0491 23.5625H13.0505C13.4333 23.562 13.7947 23.3862 14.0315 23.0854L23.6477 10.8674L25.5981 13.2327C26.0371 13.7654 26.825 13.8411 27.3577 13.4019C27.8904 12.9626 27.9661 12.1748 27.5269 11.6423L24.5894 8.07983C24.3486 7.78784 23.9893 7.62012 23.6108 7.625C23.2327 7.62939 22.8767 7.80469 22.6426 8.10181L13.0469 20.2942L9.73047 16.0996C9.49072 15.7964 9.12524 15.6233 8.73755 15.625C8.35107 15.6289 7.98804 15.8113 7.75415 16.1194L5.00342 19.7444C4.58594 20.2942 4.6936 21.0784 5.24341 21.4958V21.4958ZM5 9.375C5 7.30713 6.68213 5.625 8.75 5.625C10.8179 5.625 12.5 7.30713 12.5 9.375C12.5 11.4429 10.8179 13.125 8.75 13.125C6.68213 13.125 5 11.4429 5 9.375ZM7.5 9.375C7.5 10.0642 8.06079 10.625 8.75 10.625C9.43921 10.625 10 10.0642 10 9.375C10 8.68579 9.43921 8.125 8.75 8.125C8.06079 8.125 7.5 8.68579 7.5 9.375ZM30.9016 16.9734C32.3638 18.4355 32.3638 20.8145 30.9016 22.2766L24.0535 29.1121C23.9009 29.2644 23.7117 29.3745 23.5039 29.4319L18.4587 30.8296C18.3484 30.8601 18.2363 30.875 18.125 30.875C17.7927 30.875 17.4687 30.7424 17.2302 30.4978C16.9119 30.1716 16.7964 29.6978 16.929 29.2617L18.4236 24.3413C18.4834 24.1443 18.5908 23.9651 18.7366 23.8198L25.5994 16.9722C27.0605 15.5112 29.4395 15.5112 30.9016 16.9734V16.9734ZM27.123 22.5159L25.355 20.7478L20.7244 25.3682L19.9817 27.8137L22.5198 27.1106L27.123 22.5159ZM29.1338 18.7412C28.6465 18.2537 27.8535 18.2537 27.3662 18.7412L27.1248 18.9819L28.8926 20.7498L29.1348 20.5081C29.6213 20.0215 29.6213 19.2285 29.1338 18.7412Z" fill="#C4C4C4"/>
</svg>
