<svg width="18" height="18" viewBox="0 0 18 18" fill="none" xmlns="http://www.w3.org/2000/svg">
<path d="M7.34809 6.97227H6.84809H4.63416V9.66579H6.84809H7.34809V10.1658V17.5H10.1442V10.1658V9.66579H10.6442H13.2553L13.2564 6.97227H10.6442H10.1442V6.47227V4.74086C10.1442 4.31941 10.1851 3.83182 10.504 3.47055C10.8361 3.0944 11.3453 2.98622 11.9265 2.98622M7.34809 6.97227L13.4989 2.98566H13.4988M7.34809 6.97227V6.47227V4.42982C7.34809 3.1902 7.73658 2.21626 8.3813 1.55472C9.02469 0.894544 9.9673 0.500085 11.1648 0.5L11.1643 0.499999L11.1651 0.000148588V0.5L13.3658 0.503532M7.34809 6.97227L13.3658 0.503532M11.9265 2.98622V3.48622L11.9264 2.98622L11.9265 2.98622ZM11.9265 2.98622L13.3658 2.98571M13.3658 2.98571V3.11863C13.3658 3.0455 13.425 2.98576 13.4988 2.98566M13.3658 2.98571V0.503532M13.3658 2.98571L13.4988 2.98566M13.4988 2.98566L13.3658 0.503532M13.3658 0.503532L13.4983 0.503744C13.4252 0.503586 13.3658 0.444316 13.3658 0.370775V0.503532Z" fill="#7E849A"/>
<path d="M7.34809 6.97227H6.84809H4.63416V9.66579H6.84809H7.34809V10.1658V17.5H10.1442V10.1658V9.66579H10.6442H13.2553L13.2564 6.97227H10.6442H10.1442V6.47227V4.74086C10.1442 4.31941 10.1851 3.83182 10.504 3.47055C10.8361 3.0944 11.3453 2.98622 11.9265 2.98622M7.34809 6.97227L13.4989 2.98566H13.4988M7.34809 6.97227V6.47227V4.42982C7.34809 3.1902 7.73658 2.21626 8.3813 1.55472C9.02469 0.894544 9.9673 0.500085 11.1648 0.5L11.1643 0.499999L11.1651 0.000148588V0.5L13.3658 0.503532M7.34809 6.97227L13.3658 0.503532M11.9265 2.98622V3.48622L11.9264 2.98622L11.9265 2.98622ZM11.9265 2.98622L13.3658 2.98571M13.3658 2.98571V3.11863C13.3658 3.0455 13.425 2.98576 13.4988 2.98566M13.3658 2.98571V0.503532M13.3658 2.98571L13.4988 2.98566M13.4988 2.98566L13.3658 0.503532M13.3658 0.503532L13.4983 0.503744C13.4252 0.503586 13.3658 0.444316 13.3658 0.370775V0.503532Z" stroke="black"/>
<path d="M7.34809 6.97227H6.84809H4.63416V9.66579H6.84809H7.34809V10.1658V17.5H10.1442V10.1658V9.66579H10.6442H13.2553L13.2564 6.97227H10.6442H10.1442V6.47227V4.74086C10.1442 4.31941 10.1851 3.83182 10.504 3.47055C10.8361 3.0944 11.3453 2.98622 11.9265 2.98622M7.34809 6.97227L13.4989 2.98566H13.4988M7.34809 6.97227V6.47227V4.42982C7.34809 3.1902 7.73658 2.21626 8.3813 1.55472C9.02469 0.894544 9.9673 0.500085 11.1648 0.5L11.1643 0.499999L11.1651 0.000148588V0.5L13.3658 0.503532M7.34809 6.97227L13.3658 0.503532M11.9265 2.98622V3.48622L11.9264 2.98622L11.9265 2.98622ZM11.9265 2.98622L13.3658 2.98571M13.3658 2.98571V3.11863C13.3658 3.0455 13.425 2.98576 13.4988 2.98566M13.3658 2.98571V0.503532M13.3658 2.98571L13.4988 2.98566M13.4988 2.98566L13.3658 0.503532M13.3658 0.503532L13.4983 0.503744C13.4252 0.503586 13.3658 0.444316 13.3658 0.370775V0.503532Z" stroke="url(#paint0_linear)"/>
<defs>
<linearGradient id="paint0_linear" x1="8.99997" y1="0" x2="8.99997" y2="18" gradientUnits="userSpaceOnUse">
<stop stop-color="white"/>
<stop offset="1" stop-color="white" stop-opacity="0"/>
</linearGradient>
</defs>
</svg>
