<svg width="16" height="15" viewBox="0 0 16 15" fill="none" xmlns="http://www.w3.org/2000/svg">
<path d="M12.0186 0.003121L10.0734 0C7.88814 0 6.4759 1.44892 6.4759 3.69152V5.39356H4.52015C4.35115 5.39356 4.21429 5.53057 4.21429 5.69957V8.16563C4.21429 8.33463 4.35131 8.47149 4.52015 8.47149H6.4759V14.6941C6.4759 14.8631 6.61276 15 6.78176 15H9.33346C9.50247 15 9.63932 14.863 9.63932 14.6941V8.47149H11.9261C12.0951 8.47149 12.2319 8.33463 12.2319 8.16563L12.2328 5.69957C12.2328 5.61843 12.2005 5.54071 12.1433 5.48329C12.086 5.42586 12.008 5.39356 11.9268 5.39356H9.63932V3.95072C9.63932 3.25723 9.80457 2.90518 10.7079 2.90518L12.0183 2.90472C12.1871 2.90472 12.324 2.7677 12.324 2.59886V0.308979C12.324 0.140289 12.1873 0.0034331 12.0186 0.003121Z" fill="#7E849A"/>
</svg>
