<svg width="16" height="13" viewBox="0 0 16 13" fill="none" xmlns="http://www.w3.org/2000/svg">
<path d="M15.5385 1.84906C14.9806 2.09375 14.3863 2.25594 13.7666 2.33469C14.4041 1.95406 14.8906 1.35594 15.1194 0.635C14.525 0.989375 13.8688 1.23969 13.1694 1.37938C12.605 0.778438 11.8006 0.40625 10.9231 0.40625C9.22064 0.40625 7.85001 1.78813 7.85001 3.48219C7.85001 3.72594 7.87064 3.96031 7.92126 4.18344C5.3647 4.05875 3.10251 2.83344 1.58283 0.966875C1.31751 1.42719 1.16189 1.95406 1.16189 2.52125C1.16189 3.58625 1.71033 4.53031 2.52783 5.07687C2.03376 5.0675 1.54908 4.92406 1.13845 4.69812C1.13845 4.7075 1.13845 4.71969 1.13845 4.73187C1.13845 6.22625 2.20439 7.4675 3.6022 7.75344C3.35189 7.82188 3.07908 7.85469 2.79595 7.85469C2.59908 7.85469 2.40033 7.84344 2.21376 7.80219C2.6122 9.02 3.74283 9.91531 5.0872 9.94438C4.04095 10.7628 2.71251 11.2559 1.27439 11.2559C1.0222 11.2559 0.780327 11.2447 0.538452 11.2137C1.90064 12.0922 3.51501 12.5938 5.25595 12.5938C10.9147 12.5938 14.0085 7.90625 14.0085 3.84312C14.0085 3.70719 14.0038 3.57594 13.9972 3.44563C14.6075 3.0125 15.1203 2.47156 15.5385 1.84906Z" fill="#7E849A"/>
</svg>
