<svg width="29" height="32" viewBox="0 0 29 32" fill="none" xmlns="http://www.w3.org/2000/svg">
<path d="M20.368 13.75C20.368 13.0596 19.8084 12.5 19.118 12.5H6.24304C5.55267 12.5 4.99304 13.0596 4.99304 13.75C4.99304 14.4404 5.55267 15 6.24304 15H19.118C19.8084 15 20.368 14.4404 20.368 13.75Z" fill="#C4C4C4"/>
<path d="M6.24304 17.5C5.55267 17.5 4.99304 18.0596 4.99304 18.75C4.99304 19.4404 5.55267 20 6.24304 20H14.0625C14.7529 20 15.3125 19.4404 15.3125 18.75C15.3125 18.0596 14.7529 17.5 14.0625 17.5H6.24304Z" fill="#C4C4C4"/>
<path d="M9.18056 29.5H5C3.6215 29.5 2.5 28.3785 2.5 27V5C2.5 3.6215 3.6215 2.5 5 2.5H20.3681C21.7466 2.5 22.8681 3.6215 22.8681 5V12.6875C22.8681 13.3779 23.4277 13.9375 24.1181 13.9375C24.8084 13.9375 25.3681 13.3779 25.3681 12.6875V5C25.3681 2.243 23.1251 0 20.3681 0H5C2.243 0 0 2.243 0 5V27C0 29.757 2.243 32 5 32H9.18056C9.87094 32 10.4306 31.4404 10.4306 30.75C10.4306 30.0596 9.87094 29.5 9.18056 29.5Z" fill="#C4C4C4"/>
<path d="M27.5821 18.0983C26.12 16.6361 23.741 16.6361 22.2798 18.0973L15.4171 24.9448C15.2714 25.0902 15.1639 25.2693 15.104 25.4663L13.6094 30.3866C13.4769 30.8229 13.5924 31.2966 13.9107 31.6229C14.1492 31.8673 14.4732 32 14.8055 32C14.9167 32 15.029 31.9851 15.1392 31.9546L20.1845 30.557C20.3921 30.4995 20.5814 30.3893 20.7339 30.2371L27.5822 23.4016C29.0443 21.9395 29.0443 19.5605 27.5821 18.0983ZM19.2004 28.2355L16.6621 28.9386L17.4049 26.4931L22.0355 21.8728L23.8036 23.6409L19.2004 28.2355ZM25.8153 21.6331L25.5731 21.8748L23.8053 20.107L24.0467 19.8661C24.534 19.3788 25.327 19.3788 25.8144 19.8661C26.3018 20.3535 26.3018 21.1465 25.8153 21.6331Z" fill="#C4C4C4"/>
<path d="M19.118 7.5H6.24304C5.55267 7.5 4.99304 8.05963 4.99304 8.75C4.99304 9.44037 5.55267 10 6.24304 10H19.118C19.8084 10 20.368 9.44037 20.368 8.75C20.368 8.05963 19.8084 7.5 19.118 7.5Z" fill="#C4C4C4"/>
</svg>
