<svg width="51" height="14" viewBox="0 0 51 14" fill="none" xmlns="http://www.w3.org/2000/svg">
<path d="M16.9999 1.65738C16.3678 1.93846 15.6941 2.12477 14.9918 2.21523C15.7143 1.778 16.2658 1.09092 16.525 0.262769C15.8514 0.669846 15.1076 0.957385 14.315 1.11785C13.6754 0.427539 12.7638 0 11.7693 0C9.83975 0 8.28638 1.58738 8.28638 3.53338C8.28638 3.81338 8.30975 4.08262 8.36713 4.33892C5.46969 4.19569 2.90588 2.78815 1.18356 0.644C0.882876 1.17277 0.706501 1.778 0.706501 2.42954C0.706501 3.65292 1.32806 4.73738 2.25456 5.36523C1.69463 5.35446 1.14531 5.18969 0.679939 4.93015C0.679939 4.94092 0.679939 4.95492 0.679939 4.96892C0.679939 6.68554 1.888 8.11138 3.47219 8.43985C3.1885 8.51846 2.87931 8.55615 2.55844 8.55615C2.33531 8.55615 2.11006 8.54323 1.89863 8.49585C2.35019 9.89477 3.63156 10.9232 5.15519 10.9566C3.96944 11.8968 2.46388 12.4632 0.834001 12.4632C0.548189 12.4632 0.274064 12.4503 -6.10352e-05 12.4148C1.54375 13.4238 3.37338 14 5.34644 14C11.7597 14 15.2659 8.61539 15.2659 3.948C15.2659 3.79185 15.2606 3.64108 15.2532 3.49138C15.9449 2.99385 16.5261 2.37246 16.9999 1.65738Z" fill="#7E849A"/>
<path d="M22.3359 5.46484C21.6926 5.27995 21.2239 5.05339 20.9296 4.78516C20.638 4.51432 20.4921 4.18099 20.4921 3.78516C20.4921 3.33724 20.6705 2.96745 21.0273 2.67578C21.3867 2.38151 21.8528 2.23438 22.4257 2.23438C22.8163 2.23438 23.164 2.3099 23.4687 2.46094C23.776 2.61198 24.013 2.82031 24.1796 3.08594C24.3489 3.35156 24.4335 3.64193 24.4335 3.95703H23.6796C23.6796 3.61328 23.5703 3.34375 23.3515 3.14844C23.1328 2.95052 22.8242 2.85156 22.4257 2.85156C22.0559 2.85156 21.7669 2.93359 21.5585 3.09766C21.3528 3.25911 21.2499 3.48438 21.2499 3.77344C21.2499 4.00521 21.3476 4.20182 21.5429 4.36328C21.7408 4.52214 22.0755 4.66797 22.5468 4.80078C23.0208 4.93359 23.3906 5.08073 23.6562 5.24219C23.9244 5.40104 24.1223 5.58724 24.2499 5.80078C24.3801 6.01432 24.4453 6.26562 24.4453 6.55469C24.4453 7.01562 24.2656 7.38542 23.9062 7.66406C23.5468 7.9401 23.0663 8.07812 22.4648 8.07812C22.0742 8.07812 21.7096 8.00391 21.371 7.85547C21.0325 7.70443 20.7708 7.4987 20.5859 7.23828C20.4036 6.97786 20.3124 6.68229 20.3124 6.35156H21.0663C21.0663 6.69531 21.1926 6.96745 21.4453 7.16797C21.7005 7.36589 22.0403 7.46484 22.4648 7.46484C22.8606 7.46484 23.164 7.38411 23.3749 7.22266C23.5859 7.0612 23.6913 6.84115 23.6913 6.5625C23.6913 6.28385 23.5937 6.06901 23.3984 5.91797C23.2031 5.76432 22.8489 5.61328 22.3359 5.46484ZM27.9062 7.58203C27.6249 7.91276 27.2122 8.07812 26.6679 8.07812C26.2174 8.07812 25.8736 7.94792 25.6367 7.6875C25.4023 7.42448 25.2838 7.03646 25.2812 6.52344V3.77344H26.0038V6.50391C26.0038 7.14453 26.2643 7.46484 26.7851 7.46484C27.3372 7.46484 27.7044 7.25911 27.8867 6.84766V3.77344H28.6093V8H27.9218L27.9062 7.58203ZM33.2812 5.93359C33.2812 6.57682 33.1341 7.09505 32.8398 7.48828C32.5455 7.88151 32.1471 8.07812 31.6445 8.07812C31.1314 8.07812 30.7278 7.91536 30.4335 7.58984V9.625H29.7109V3.77344H30.371L30.4062 4.24219C30.7005 3.8776 31.1093 3.69531 31.6328 3.69531C32.1406 3.69531 32.5416 3.88672 32.8359 4.26953C33.1328 4.65234 33.2812 5.1849 33.2812 5.86719V5.93359ZM32.5585 5.85156C32.5585 5.375 32.457 4.9987 32.2538 4.72266C32.0507 4.44661 31.7721 4.30859 31.4179 4.30859C30.9804 4.30859 30.6523 4.5026 30.4335 4.89062V6.91016C30.6497 7.29557 30.9804 7.48828 31.4257 7.48828C31.7721 7.48828 32.0468 7.35156 32.2499 7.07812C32.4557 6.80208 32.5585 6.39323 32.5585 5.85156ZM37.7734 5.93359C37.7734 6.57682 37.6262 7.09505 37.332 7.48828C37.0377 7.88151 36.6393 8.07812 36.1367 8.07812C35.6236 8.07812 35.22 7.91536 34.9257 7.58984V9.625H34.2031V3.77344H34.8632L34.8984 4.24219C35.1926 3.8776 35.6015 3.69531 36.1249 3.69531C36.6328 3.69531 37.0338 3.88672 37.3281 4.26953C37.6249 4.65234 37.7734 5.1849 37.7734 5.86719V5.93359ZM37.0507 5.85156C37.0507 5.375 36.9492 4.9987 36.746 4.72266C36.5429 4.44661 36.2643 4.30859 35.9101 4.30859C35.4726 4.30859 35.1445 4.5026 34.9257 4.89062V6.91016C35.1419 7.29557 35.4726 7.48828 35.9179 7.48828C36.2643 7.48828 36.539 7.35156 36.7421 7.07812C36.9479 6.80208 37.0507 6.39323 37.0507 5.85156ZM38.5038 5.84766C38.5038 5.43359 38.5846 5.0612 38.746 4.73047C38.9101 4.39974 39.1367 4.14453 39.4257 3.96484C39.7174 3.78516 40.0494 3.69531 40.4218 3.69531C40.9973 3.69531 41.4622 3.89453 41.8163 4.29297C42.1731 4.69141 42.3515 5.22135 42.3515 5.88281V5.93359C42.3515 6.34505 42.2721 6.71484 42.1132 7.04297C41.957 7.36849 41.7317 7.6224 41.4374 7.80469C41.1458 7.98698 40.8098 8.07812 40.4296 8.07812C39.8567 8.07812 39.3919 7.87891 39.0351 7.48047C38.6809 7.08203 38.5038 6.55469 38.5038 5.89844V5.84766ZM39.2304 5.93359C39.2304 6.40234 39.3385 6.77865 39.5546 7.0625C39.7734 7.34635 40.065 7.48828 40.4296 7.48828C40.7968 7.48828 41.0885 7.34505 41.3046 7.05859C41.5208 6.76953 41.6288 6.36589 41.6288 5.84766C41.6288 5.38411 41.5182 5.00911 41.2968 4.72266C41.0781 4.43359 40.7864 4.28906 40.4218 4.28906C40.065 4.28906 39.7773 4.43099 39.5585 4.71484C39.3398 4.9987 39.2304 5.40495 39.2304 5.93359ZM45.3007 4.42188C45.1913 4.40365 45.0729 4.39453 44.9453 4.39453C44.4713 4.39453 44.1497 4.59635 43.9804 5V8H43.2578V3.77344H43.9609L43.9726 4.26172C44.2096 3.88411 44.5455 3.69531 44.9804 3.69531C45.121 3.69531 45.2278 3.71354 45.3007 3.75V4.42188ZM47.1445 2.75V3.77344H47.9335V4.33203H47.1445V6.95312C47.1445 7.1224 47.1796 7.25 47.2499 7.33594C47.3203 7.41927 47.44 7.46094 47.6093 7.46094C47.6926 7.46094 47.8072 7.44531 47.9531 7.41406V8C47.763 8.05208 47.5781 8.07812 47.3984 8.07812C47.0755 8.07812 46.832 7.98047 46.6679 7.78516C46.5038 7.58984 46.4218 7.3125 46.4218 6.95312V4.33203H45.6523V3.77344H46.4218V2.75H47.1445Z" fill="#7E849A"/>
</svg>
