<svg width="33" height="32" viewBox="0 0 33 32" fill="none" xmlns="http://www.w3.org/2000/svg">
<path d="M24.5036 8.42381C24.5036 3.77111 20.7325 0 16.0791 0C11.4257 0 7.65527 3.77111 7.65527 8.42381C7.65527 15.0898 16.0791 24.954 16.0791 24.954C16.0791 24.954 24.5036 15.0555 24.5036 8.42381ZM11.9247 7.92082C11.9247 5.62574 13.7854 3.76573 16.0798 3.76573C18.3742 3.76573 20.2348 5.62574 20.2348 7.92082C20.2348 10.2159 18.3742 12.0759 16.0798 12.0759C13.7854 12.0759 11.9247 10.2159 11.9247 7.92082Z" fill="#C4C4C4"/>
<path d="M16.079 9.96375C17.2073 9.96375 18.122 9.04911 18.122 7.92084C18.122 6.79257 17.2073 5.87793 16.079 5.87793C14.9508 5.87793 14.0361 6.79257 14.0361 7.92084C14.0361 9.04911 14.9508 9.96375 16.079 9.96375Z" fill="#C4C4C4"/>
<path d="M20.842 22.0235C20.1554 23.016 19.5112 23.8801 18.9746 24.5741C24.2977 24.8942 27.7864 26.0434 29.0842 26.8981C27.5638 27.9007 23.0463 29.3102 16.0804 29.3102C9.11509 29.3102 4.59689 27.9 3.07647 26.8981C4.3743 26.0434 7.8603 24.8948 13.1781 24.5748C12.6401 23.8808 11.9952 23.0174 11.308 22.0248C4.7576 22.6697 0 24.6077 0 26.8974C0 29.715 7.19995 32 16.0804 32C24.9614 32 32.16 29.7163 32.16 26.8974C32.1614 24.6064 27.3984 22.6677 20.842 22.0235Z" fill="#C4C4C4"/>
</svg>
