<svg width="10" height="18" viewBox="0 0 10 18" fill="none" xmlns="http://www.w3.org/2000/svg">
<path d="M9.49931 0.0037452L7.16514 0C4.54278 0 2.84809 1.73871 2.84809 4.42982V6.47227H0.501182C0.298381 6.47227 0.134155 6.63668 0.134155 6.83949V9.79876C0.134155 10.0016 0.298568 10.1658 0.501182 10.1658H2.84809V17.633C2.84809 17.8358 3.01231 18 3.21511 18H6.27716C6.47996 18 6.64419 17.8356 6.64419 17.633V10.1658H9.38827C9.59107 10.1658 9.75529 10.0016 9.75529 9.79876L9.75642 6.83949C9.75642 6.74211 9.71766 6.64886 9.64893 6.57994C9.58021 6.51103 9.48658 6.47227 9.3892 6.47227H6.64419V4.74086C6.64419 3.90868 6.84249 3.48622 7.92653 3.48622L9.49894 3.48566C9.70155 3.48566 9.86578 3.32124 9.86578 3.11863V0.370775C9.86578 0.168347 9.70174 0.00411972 9.49931 0.0037452Z" fill="#7E849A"/>
</svg>
