<svg width="32" height="32" viewBox="0 0 32 32" fill="none" xmlns="http://www.w3.org/2000/svg">
<g clip-path="url(#clip0)">
<path d="M29.8513 8.00315C27.7154 4.30365 24.2666 1.65721 20.1402 0.55159C16.0139 -0.55416 11.704 0.0132775 8.00435 2.14934C4.30473 4.28534 1.65841 7.73409 0.552788 11.8605C-0.552837 15.9868 0.014601 20.2968 2.15054 23.9963C4.28641 27.6958 7.73529 30.3422 11.8616 31.4478C13.2395 31.8171 14.6377 31.9997 16.027 31.9997C18.7982 31.9997 21.5333 31.2729 23.9975 29.8502C27.697 27.7142 30.3435 24.2655 31.4491 20.1391C32.5548 16.0127 31.9872 11.7028 29.8513 8.00315ZM29.8402 19.708C28.8497 23.4047 26.479 26.4943 23.1646 28.4078C19.8504 30.3214 15.9892 30.8297 12.2926 29.8393C8.59591 28.8488 5.50629 26.478 3.59273 23.1637C1.67923 19.8494 1.17091 15.9882 2.16148 12.2915C3.15204 8.5949 5.52279 5.50534 8.8371 3.59171C11.0449 2.31703 13.4949 1.66596 15.9777 1.66596C17.222 1.66596 18.4751 1.82959 19.709 2.16028C23.4057 3.15078 26.4954 5.52153 28.4089 8.8359C30.3224 12.1502 30.8308 16.0113 29.8402 19.708Z" fill="#C4C4C4"/>
<path d="M23.6737 14.4908L13.3909 8.55389C12.8452 8.23882 12.1937 8.23895 11.648 8.55382C11.1023 8.86882 10.7765 9.43314 10.7765 10.0632V21.937C10.7765 22.567 11.1022 23.1313 11.648 23.4463C11.9208 23.6039 12.22 23.6826 12.5193 23.6826C12.8187 23.6826 13.118 23.6037 13.3908 23.4463L23.6738 17.5095C24.2194 17.1943 24.5451 16.6301 24.5451 16C24.5451 15.37 24.2194 14.8058 23.6737 14.4908ZM22.8409 16.0671L12.5579 22.004C12.5454 22.0113 12.5192 22.0263 12.4807 22.004C12.4421 21.9816 12.4421 21.9515 12.4421 21.937V10.0633C12.4421 10.0488 12.4421 10.0186 12.4807 9.99632C12.4958 9.98757 12.509 9.98457 12.5202 9.98457C12.5377 9.98457 12.5504 9.99189 12.5581 9.99632L22.8409 15.9332C22.8535 15.9405 22.8796 15.9555 22.8796 16.0001C22.8796 16.0448 22.8534 16.0599 22.8409 16.0671Z" fill="#C4C4C4"/>
<path d="M25.8314 8.4025C23.8509 5.84387 20.8735 4.12487 17.6628 3.68618C17.2076 3.62387 16.7872 3.94281 16.7249 4.39862C16.6627 4.85431 16.9817 5.27419 17.4373 5.3365C20.2194 5.71656 22.7988 7.20581 24.5144 9.42207C24.6785 9.63407 24.9247 9.74507 25.1735 9.74507C25.3516 9.74507 25.531 9.68825 25.6826 9.57075C26.0463 9.28925 26.1129 8.76619 25.8314 8.4025Z" fill="#C4C4C4"/>
</g>
<defs>
<clipPath id="clip0">
<rect width="32" height="32" fill="white"/>
</clipPath>
</defs>
</svg>
