<svg width="15" height="15" viewBox="0 0 15 15" fill="none" xmlns="http://www.w3.org/2000/svg">
<path d="M10.8604 0H4.13934C1.85691 0 0 1.857 0 4.13943V10.8605C0 13.143 1.85691 14.9999 4.13934 14.9999H10.8604C13.143 14.9999 14.9999 13.1429 14.9999 10.8605V4.13943C15 1.857 13.143 0 10.8604 0ZM13.6691 10.8605C13.6691 12.4092 12.4092 13.669 10.8605 13.669H4.13934C2.59075 13.6691 1.33086 12.4092 1.33086 10.8605V4.13943C1.33086 2.59084 2.59075 1.33086 4.13934 1.33086H10.8604C12.4091 1.33086 13.669 2.59084 13.669 4.13943V10.8605H13.6691Z" fill="#7E849A"/>
<path d="M7.49999 3.63516C5.36874 3.63516 3.63489 5.36901 3.63489 7.50026C3.63489 9.63141 5.36874 11.3652 7.49999 11.3652C9.63123 11.3652 11.3651 9.63141 11.3651 7.50026C11.3651 5.36901 9.63123 3.63516 7.49999 3.63516ZM7.49999 10.0342C6.10267 10.0342 4.96575 8.89749 4.96575 7.50017C4.96575 6.10276 6.10258 4.96594 7.49999 4.96594C8.89739 4.96594 10.0342 6.10276 10.0342 7.50017C10.0342 8.89749 8.89731 10.0342 7.49999 10.0342Z" fill="#7E849A"/>
<path d="M11.5272 2.50671C11.2708 2.50671 11.0189 2.61052 10.8378 2.79241C10.6558 2.9734 10.5512 3.22538 10.5512 3.48268C10.5512 3.73918 10.6559 3.99107 10.8378 4.17296C11.0188 4.35395 11.2708 4.45865 11.5272 4.45865C11.7845 4.45865 12.0356 4.35395 12.2175 4.17296C12.3993 3.99107 12.5031 3.73909 12.5031 3.48268C12.5031 3.22538 12.3993 2.9734 12.2175 2.79241C12.0365 2.61052 11.7845 2.50671 11.5272 2.50671Z" fill="#7E849A"/>
</svg>
