<svg width="132" height="31" viewBox="0 0 132 31" fill="none" xmlns="http://www.w3.org/2000/svg">
<path d="M0.346912 18.9328C-0.115637 16.7068 -0.115637 14.5097 0.346912 12.2837C0.43364 12.2837 0.520368 12.2837 0.607096 12.2837C6.47569 12.2837 12.3732 12.2837 18.2418 12.2837C18.4152 12.2837 18.5309 12.3415 18.6465 12.4571C19.6583 13.4401 20.6413 14.423 21.6531 15.4059C21.8555 15.6083 21.8555 15.6372 21.6531 15.8395C20.6413 16.8225 19.6294 17.8343 18.6176 18.8172C18.5309 18.9039 18.4152 18.9328 18.2996 18.9328C12.4021 18.9328 6.47569 18.9328 0.578187 18.9328C0.520368 18.9328 0.43364 18.9328 0.346912 18.9328Z" fill="white"/>
<path d="M17.0567 30.959C15.5534 30.959 14.079 30.7566 12.6336 30.323C12.1132 30.1785 11.8241 29.7448 11.9687 29.2823C12.1132 28.8197 12.5758 28.5884 13.0672 28.733C14.6283 29.1666 16.2183 29.369 17.8373 29.2823C21.6244 29.051 24.8622 27.5477 27.4641 24.7724C29.3432 22.7488 30.5285 20.3493 30.9332 17.6029C31.5114 13.6134 30.4995 10.0287 27.8977 6.93535C25.556 4.13115 22.5495 2.51223 18.9358 2.02077C16.9122 1.73167 14.9463 1.90513 12.9805 2.48332C12.6914 2.57004 12.4312 2.57004 12.171 2.39659C11.8819 2.19422 11.7663 1.93404 11.7952 1.58713C11.853 1.24021 12.0265 1.00894 12.3734 0.922212C13.0094 0.748756 13.6743 0.5753 14.3103 0.459663C17.9818 -0.147433 21.4798 0.372935 24.7177 2.19422C28.8228 4.47806 31.4825 7.91827 32.4365 12.5149C33.4483 17.4584 32.2052 21.8526 28.8806 25.6397C26.4811 28.3861 23.4168 30.0339 19.832 30.6699C18.9069 30.8434 17.9529 30.8723 17.0278 30.9879C17.0856 31.0168 17.0856 30.9879 17.0567 30.959Z" fill="white"/>
<path d="M0.924927 20.9563C6.0997 20.9563 11.2167 20.9563 16.3914 20.9563C16.3336 21.043 16.2758 21.0719 16.2469 21.1298C14.0787 23.2401 11.9105 25.3505 9.77118 27.4609C9.68446 27.5476 9.56882 27.5765 9.45318 27.5765C8.09444 27.5765 6.70679 27.5765 5.34805 27.5765C5.26133 27.5765 5.14569 27.5476 5.05896 27.4609C3.23767 25.6974 1.85003 23.587 0.982745 21.1587C0.953836 21.1008 0.953836 21.043 0.924927 20.9563Z" fill="white"/>
<path d="M16.3914 10.2599C11.2167 10.2599 6.07079 10.2599 0.924927 10.2599C0.953836 10.1732 0.982745 10.0864 1.01165 9.9997C1.87893 7.60023 3.23767 5.51876 5.05896 3.75529C5.14569 3.66856 5.26133 3.63965 5.37696 3.63965C6.7357 3.63965 8.12335 3.63965 9.48209 3.63965C9.56882 3.63965 9.68446 3.66856 9.77118 3.75529C11.9683 5.89458 14.1365 8.00496 16.3336 10.1442C16.3047 10.1732 16.3336 10.2021 16.3914 10.2599Z" fill="white"/>
<path d="M49.9553 18.1234V20.147H41.5427V9.2771H49.753V11.3008H44.0578V13.6424H49.0881V15.6082H44.0578V18.1234H49.9553Z" fill="white"/>
<path d="M61.7791 20.1469L59.1483 16.3887L56.5754 20.1469H53.6844L57.7028 14.6252L53.8868 9.30591H56.7488L59.235 12.8328L61.6923 9.30591H64.4098L60.6227 14.5385L64.67 20.1469H61.7791Z" fill="white"/>
<path d="M75.6845 20.147L73.603 17.1115H73.4874H71.2903V20.147H68.7751V9.2771H73.4585C76.3494 9.2771 78.1707 10.7804 78.1707 13.2088C78.1707 14.8277 77.3612 16.0419 75.9447 16.6201L78.373 20.1181H75.6845V20.147ZM73.3139 11.3297H71.2614V15.1168H73.3139C74.8461 15.1168 75.6267 14.3941 75.6267 13.2377C75.6267 12.0235 74.8461 11.3297 73.3139 11.3297Z" fill="white"/>
<path d="M90.3992 17.8054H85.369L84.415 20.1181H81.842L86.6699 9.2771H89.1561L94.0129 20.1181H91.3821L90.3992 17.8054ZM89.6187 15.8973L87.8841 11.7344L86.1495 15.8973H89.6187Z" fill="white"/>
<path d="M99.9393 11.3297H96.4702V9.2771H105.924V11.3297H102.454V20.1181H99.9393V11.3297Z" fill="white"/>
<path d="M118.76 18.1234V20.147H110.347V9.2771H118.557V11.3008H112.862V13.6424H117.892V15.6082H112.862V18.1234H118.76Z" fill="white"/>
<path d="M123.009 19.0774L123.848 17.1983C124.773 17.8632 126.131 18.3257 127.432 18.3257C128.907 18.3257 129.514 17.8343 129.514 17.1694C129.514 15.1457 123.212 16.5334 123.212 12.515C123.212 10.6648 124.686 9.13257 127.779 9.13257C129.138 9.13257 130.526 9.45057 131.537 10.0866L130.757 11.9946C129.745 11.4164 128.704 11.1562 127.75 11.1562C126.276 11.1562 125.698 11.7055 125.698 12.3993C125.698 14.3941 132 13.0064 132 16.9959C132 18.8172 130.497 20.3494 127.403 20.3494C125.698 20.3205 123.963 19.8001 123.009 19.0774Z" fill="white"/>
</svg>
