<svg width="239" height="55" viewBox="0 0 239 55" fill="none" xmlns="http://www.w3.org/2000/svg">
<path d="M0.620087 33.3992C-0.206696 29.4203 -0.206696 25.493 0.620087 21.5142C0.775108 21.5142 0.93013 21.5142 1.08515 21.5142C11.575 21.5142 22.1164 21.5142 32.6062 21.5142C32.9163 21.5142 33.123 21.5658 33.3297 21.8242C35.1382 23.5811 36.8952 25.338 38.7037 27.0949C39.0655 27.4567 39.0655 27.5083 38.7037 27.87C36.8952 29.627 35.0866 31.4355 33.278 33.1925C33.123 33.3475 32.9163 33.3992 32.7096 33.3992C22.1681 33.3992 11.575 33.3992 1.03348 33.3992C0.93013 33.3992 0.775108 33.3992 0.620087 33.3992Z" fill="white"/>
<path d="M30.4877 54.9483C27.8007 54.9483 25.1653 54.5866 22.5816 53.8115C21.6515 53.5531 21.1348 52.778 21.3931 51.9512C21.6515 51.1245 22.4783 50.7111 23.3567 50.9694C26.1471 51.7445 28.9892 52.1063 31.8829 51.9512C38.6522 51.5378 44.4397 48.8508 49.0903 43.8901C52.4491 40.2729 54.5678 35.984 55.2912 31.075C56.3247 23.944 54.5161 17.5364 49.8654 12.0073C45.6798 6.99495 40.3058 4.10121 33.8465 3.22276C30.2294 2.70602 26.7155 3.01606 23.2017 4.04954C22.685 4.20456 22.2199 4.20456 21.7548 3.89452C21.2381 3.5328 21.0314 3.06773 21.0831 2.44765C21.1864 1.82756 21.4965 1.41417 22.1166 1.25915C23.3051 0.949103 24.4936 0.63906 25.6304 0.432364C32.193 -0.652788 38.4455 0.277343 44.233 3.5328C51.5707 7.61504 56.3247 13.7642 58.0299 21.9804C59.8385 30.8166 57.6165 38.6711 51.674 45.4403C47.3851 50.3493 41.9077 53.2948 35.5001 54.4316C33.8465 54.7416 32.1413 54.7933 30.4877 55C30.5394 55 30.5394 54.9483 30.4877 54.9483Z" fill="white"/>
<path d="M1.65353 37.0166C10.9032 37.0166 20.0494 37.0166 29.2991 37.0166C29.1957 37.1716 29.0924 37.2233 29.0407 37.3266C25.1652 41.0988 21.2896 44.871 17.4657 48.6432C17.3107 48.7983 17.104 48.8499 16.8973 48.8499C14.4687 48.8499 11.9883 48.8499 9.55964 48.8499C9.40462 48.8499 9.19792 48.7983 9.0429 48.6432C5.78745 45.4911 3.3071 41.7189 1.75688 37.43C1.70521 37.3266 1.70521 37.1716 1.65353 37.0166Z" fill="white"/>
<path d="M29.2991 17.8988C20.0494 17.8988 10.8515 17.8988 1.65353 17.8988C1.70521 17.7437 1.75688 17.5887 1.80856 17.4337C3.35877 13.1448 5.78745 9.42423 9.0429 6.27213C9.19792 6.1171 9.40462 6.06543 9.61131 6.06543C12.04 6.06543 14.5203 6.06543 16.949 6.06543C17.104 6.06543 17.3107 6.1171 17.4657 6.27213C21.393 10.096 25.2685 13.8682 29.1957 17.6921C29.144 17.7437 29.1957 17.7954 29.2991 17.8988Z" fill="white"/>
<path d="M91.2041 35.7779V37.6382H76.9421V17.4854H90.7907V19.3456H79.1124V26.5283H89.5506V28.3369H79.1124V35.8296H91.2041V35.7779Z" fill="white"/>
<path d="M114.354 37.5846L107.843 28.6967L101.384 37.5846H98.9551L106.603 27.1982L99.4202 17.3801H101.849L107.946 25.6996L113.992 17.4835H116.318L109.187 27.1982L116.886 37.6363H114.354V37.5846Z" fill="white"/>
<path d="M139.468 37.5865L134.817 31.1273C134.3 31.1789 133.783 31.2306 133.215 31.2306H127.789V37.6382H125.671V17.4854H133.215C138.331 17.4854 141.431 20.069 141.431 24.4097C141.431 27.5618 139.778 29.7837 136.832 30.7655L141.741 37.6898H139.468V37.5865ZM139.313 24.358C139.313 21.1542 137.194 19.2939 133.163 19.2939H127.789V29.422H133.163C137.194 29.422 139.313 27.5101 139.313 24.358Z" fill="white"/>
<path d="M164.891 32.2131H153.678L151.249 37.5872H149.027L158.225 17.4343H160.344L169.542 37.5872H167.32L164.891 32.2131ZM164.116 30.5078L159.259 19.6563L154.401 30.5078H164.116Z" fill="white"/>
<path d="M181.582 19.2946H174.502V17.4343H190.78V19.2946H183.7V37.6388H181.582V19.2946Z" fill="white"/>
<path d="M214.24 35.7779V37.6382H199.978V17.4854H213.826V19.3456H202.148V26.5283H212.586V28.3369H202.148V35.8296H214.24V35.7779Z" fill="white"/>
<path d="M223.076 35.1581L223.903 33.5046C225.35 34.8998 227.882 35.9332 230.569 35.9332C234.341 35.9332 235.995 34.3314 235.995 32.3677C235.995 26.8386 223.593 30.2491 223.593 22.7564C223.593 19.811 225.918 17.2273 231.034 17.2273C233.308 17.2273 235.685 17.8991 237.287 19.0359L236.563 20.7411C234.858 19.6043 232.843 19.0876 231.034 19.0876C227.365 19.0876 225.712 20.7411 225.712 22.7564C225.712 28.2855 238.114 24.9267 238.114 32.3161C238.114 35.2615 235.737 37.7935 230.621 37.7935C227.52 37.7935 224.575 36.7083 223.076 35.1581Z" fill="white"/>
</svg>
