<svg width="15" height="15" viewBox="0 0 15 15" fill="none" xmlns="http://www.w3.org/2000/svg">
<path d="M15 3.48296H14.1723C13.9568 3.48296 13.3929 3.71708 13.3929 3.91638V11.154C13.3929 11.3538 13.9568 11.5176 14.1723 11.5176H15V13.1246H9.64283V11.5176H10.7145V4.01834H10.528L7.9492 13.1245H5.95257L3.4071 4.01834H3.21431V11.5176H4.28554V13.1245H0V11.5176H0.594377C0.827719 11.5176 1.07126 11.3538 1.07126 11.154V3.91638C1.07126 3.71705 0.82775 3.48296 0.594377 3.48296H0V1.87585H5.55393L7.36735 8.3036H7.41614L9.24745 1.87585H15V3.48296Z" fill="#7E849A"/>
</svg>
