<svg width="16" height="16" viewBox="0 0 16 16" fill="none" xmlns="http://www.w3.org/2000/svg">
<path d="M14.7025 12.2335L13.4125 10.9435C13.4866 10.8842 13.5533 10.8174 13.6127 10.7359C13.9092 10.3281 13.8351 9.79425 13.7758 9.32716C13.7387 9.03058 13.6942 8.71918 13.7609 8.52641C13.8203 8.34847 14.0279 8.13346 14.228 7.92586C14.5617 7.57739 14.9472 7.17702 14.9472 6.65802C14.9472 6.13902 14.5691 5.73865 14.228 5.39018C14.0279 5.18258 13.8203 4.96756 13.7609 4.78962C13.6942 4.59685 13.7387 4.28545 13.7758 3.98888C13.8425 3.51436 13.9092 2.98054 13.6127 2.58017C13.3161 2.17238 12.7823 2.076 12.3077 1.98702C12.0112 1.93512 11.7146 1.87581 11.5515 1.7646C11.3958 1.65338 11.2475 1.37905 11.114 1.11956C10.8842 0.696942 10.6321 0.215014 10.1428 0.0518999C10.039 0.0148285 9.93517 0 9.82396 0C9.46066 0 9.11219 0.170528 8.77113 0.333642C8.4968 0.467099 8.21506 0.600556 8.00005 0.600556C7.78503 0.600556 7.50329 0.467099 7.22896 0.333642C6.88791 0.170528 6.53943 0 6.17614 0C6.06492 0 5.95371 0.0148285 5.85732 0.0518999C5.36057 0.2076 5.10848 0.689527 4.87864 1.11214C4.73777 1.37164 4.5969 1.63855 4.4412 1.75718C4.27808 1.87581 3.9741 1.92771 3.68494 1.97961C3.21784 2.06117 2.68401 2.15755 2.38003 2.57275C2.08346 2.98054 2.1576 3.51437 2.21691 3.98146C2.25398 4.27804 2.29847 4.58943 2.23174 4.78221C2.17243 4.96015 1.96483 5.17516 1.76464 5.38276C1.431 5.73123 1.04546 6.1316 1.04546 6.6506C1.04546 7.1696 1.42359 7.56997 1.76464 7.91844C1.96483 8.12604 2.17243 8.34106 2.23174 8.519C2.29847 8.71177 2.25398 9.02317 2.21691 9.31974C2.15018 9.79425 2.08346 10.3281 2.38003 10.7285C2.43934 10.81 2.50607 10.8767 2.58021 10.9361L1.29013 12.2335C0.941658 12.582 1.00839 12.8934 1.05287 13.012C1.09736 13.1307 1.25306 13.4124 1.7424 13.4495L3.01024 13.5533C3.23267 13.5681 3.44768 13.7831 3.46993 14.013L3.57373 15.2808C3.61821 15.8146 3.94444 16 4.21135 16C4.34481 16 4.55982 15.9555 4.78967 15.7257L7.76279 12.7525C7.85176 12.7229 7.93332 12.7081 8.00746 12.7081C8.0816 12.7081 8.16316 12.7229 8.25213 12.7525L11.2178 15.7183C11.4477 15.9481 11.6553 15.9926 11.7962 15.9926C12.0631 15.9926 12.3967 15.7998 12.4338 15.2734L12.5376 14.0056C12.5524 13.7831 12.7674 13.5681 12.9973 13.5459L14.2651 13.4421C14.7544 13.405 14.9101 13.1233 14.9546 13.0046C14.9843 12.8934 15.051 12.582 14.7025 12.2335ZM10.2021 7.82206L10.7211 10.8397L8.00746 9.41613L5.30125 10.8397L5.82025 7.82206L3.63304 5.68675L6.65806 5.24931L8.01487 2.50602L9.37169 5.24931L12.3967 5.68675L10.2021 7.82206Z" fill="#237BEF"/>
</svg>
