<svg width="53" height="53" viewBox="0 0 53 53" fill="none" xmlns="http://www.w3.org/2000/svg">
    <path d="M26.5212 1.9981H26.553H26.5848C31.9749 2.014 34.397 4.4626 37.0523 7.1497C39.0239 9.1425 41.1439 11.289 44.9705 12.3861C45.58 12.561 45.9669 13.1493 45.9033 13.7588C45.6648 25.3128 43.2374 33.2999 39.7606 39.0451C36.2308 44.8698 31.6569 48.3678 27.1678 50.933C27.1201 50.9595 27.0671 50.986 27.0194 51.0072L27.0088 51.0125L26.977 51.0231L26.9611 51.0284L26.9505 51.0337L26.9293 51.039L26.9187 51.0443L26.8975 51.0496L26.8869 51.0549L26.8657 51.0602L26.8551 51.0655L26.8339 51.0708L26.8233 51.0761L26.8021 51.0814H26.7915L26.7703 51.0867H26.7597L26.7385 51.092H26.7279H26.712L26.6802 51.0973H26.6696H26.6484L26.5848 51.1026H26.5742H26.4576H26.4523L26.394 51.0973H26.3728H26.3675L26.3039 51.0867H26.2933L26.2721 51.0814C26.1131 51.0496 25.9594 50.9913 25.8216 50.9012L25.8057 50.8906C21.3431 48.3254 16.7956 44.838 13.2923 39.0451C9.81025 33.2999 7.38284 25.3075 7.14434 13.7588C7.08074 13.1493 7.46234 12.561 8.07714 12.3861C11.9037 11.2943 14.029 9.1478 15.9953 7.1497C18.6559 4.4573 21.0833 2.0034 26.4894 1.9928L26.5212 1.9981ZM17.8556 27.4646C17.3521 26.9611 17.3521 26.1396 17.8556 25.6361C18.3591 25.1326 19.1806 25.1326 19.6841 25.6361L23.9401 29.892L33.3688 20.4686C33.8723 19.9651 34.6938 19.9651 35.1973 20.4686C35.7008 20.9721 35.7008 21.7936 35.1973 22.2971L24.8517 32.6321C24.3482 33.1356 23.5267 33.1356 23.0232 32.6321L17.8556 27.4646ZM9.74135 14.5697C10.0646 25.1485 12.3118 32.4625 15.4918 37.7148C18.5658 42.7922 22.5515 45.9722 26.5265 48.3254C30.4962 45.9722 34.4818 42.7922 37.5611 37.7148C40.7411 32.4625 42.983 25.1485 43.3116 14.5697C39.4426 13.2394 37.259 11.024 35.2132 8.957C32.9501 6.6674 30.8884 4.5792 26.5265 4.5792H26.5212C22.1593 4.5792 20.0975 6.6674 17.8344 8.957C15.7939 11.024 13.605 13.2394 9.74135 14.5697ZM26.7544 2.014L26.7862 2.0193L26.7544 2.014ZM26.7862 2.0193L26.818 2.0246L26.7862 2.0193ZM26.818 2.0299L26.8498 2.0405L26.818 2.0299ZM26.9081 2.0511C27.4381 2.2154 27.8197 2.703 27.8197 3.286C27.8197 3.8425 27.4699 4.3142 26.977 4.4997L26.9081 2.0511ZM26.8445 4.5368L26.818 4.5474L26.8445 4.5368ZM26.8127 4.5474L26.7862 4.5527H26.7809L26.8127 4.5474ZM26.7809 4.5527L26.7544 4.558H26.7491L26.7809 4.5527ZM26.7491 4.558L26.7226 4.5633H26.7173L26.7491 4.558Z" fill="#7E849A"/>
    <path d="M24.8676 32.6321L35.2132 22.2971C35.7167 21.7936 35.7167 20.9721 35.2132 20.4686C34.7097 19.9651 33.8882 19.9651 33.3847 20.4686L23.956 29.892L19.7001 25.6361C19.1966 25.1326 18.3751 25.1326 17.8716 25.6361C17.3681 26.1396 17.3681 26.9611 17.8716 27.4646L23.0391 32.6321C23.5426 33.1356 24.3641 33.1356 24.8676 32.6321Z" fill="#237BEF"/>
</svg>
