<svg width="56" height="56" viewBox="0 0 56 56" fill="none" xmlns="http://www.w3.org/2000/svg">
    <path d="M16.3464 44.4415C17.1528 44.4415 17.808 45.0967 17.808 45.9031C17.808 46.7095 17.1528 47.3647 16.3464 47.3647H4.48003C3.86963 47.3647 3.34323 46.9895 3.12483 46.4519C2.20643 44.5927 1.49523 42.6159 1.01363 40.5607C0.537629 38.5167 0.280029 36.3887 0.280029 34.2159C0.280029 26.5551 3.38803 19.6167 8.40563 14.5935C13.4288 9.5703 20.3672 6.4679 28.028 6.4679C35.6888 6.4679 42.6272 9.5759 47.6504 14.5935C52.6736 19.6167 55.776 26.5551 55.776 34.2159C55.776 36.3887 55.524 38.5111 55.0424 40.5551C54.5496 42.6495 53.8216 44.6599 52.8808 46.5471C52.6288 47.0623 52.1136 47.3591 51.576 47.3591L39.704 47.3647C38.8976 47.3647 38.2424 46.7095 38.2424 45.9031C38.2424 45.0967 38.8976 44.4415 39.704 44.4415H50.6576C51.3128 42.9967 51.828 41.4735 52.2032 39.8943C52.6288 38.0799 52.8528 36.1759 52.8528 34.2159C52.8528 27.3615 50.0752 21.1511 45.5784 16.6599C41.0984 12.1687 34.888 9.3855 28.0336 9.3855C21.1792 9.3855 14.9688 12.1631 10.4776 16.6599C5.98083 21.1511 3.20323 27.3615 3.20323 34.2159C3.20323 36.1759 3.42723 38.0799 3.85283 39.8943C4.22243 41.4735 4.74323 42.9967 5.39843 44.4415H16.3464ZM29.064 39.0263C28.4928 38.4551 27.5632 38.4495 26.992 39.0207C26.4208 39.5919 26.4208 40.5159 26.9976 41.0927C27.5688 41.6639 28.4984 41.6695 29.0696 41.0983C29.6408 40.5271 29.6352 39.6031 29.064 39.0263ZM39.7488 26.3703C40.2976 26.0847 40.992 26.1687 41.4568 26.6335C41.9216 27.0983 42.0056 27.7983 41.7144 28.3527L41.0088 29.9991C38.1808 36.6239 35.5544 42.7615 33.2808 45.1303L33.1912 45.2255C31.7688 46.6479 29.8984 47.3591 28.028 47.3591C26.1744 47.3647 24.3152 46.6591 22.8928 45.2535L22.8592 45.2199C21.4368 43.7975 20.72 41.9271 20.72 40.0567C20.72 38.1863 21.4312 36.3215 22.8592 34.8935C25.144 32.6087 31.3656 29.9487 38.0856 27.0759L39.7488 26.3703ZM37.6544 30.4359C31.836 32.9279 26.6728 35.2127 24.9256 36.9599C24.0688 37.8167 23.6432 38.9367 23.6432 40.0567C23.6432 41.1767 24.0744 42.3023 24.9256 43.1535C25.7824 44.0103 26.908 44.4415 28.028 44.4415C29.1424 44.4471 30.268 44.0159 31.1248 43.1591L31.192 43.0975C32.9224 41.3055 35.1904 36.1871 37.6544 30.4359ZM48.4792 32.7543C49.2856 32.7543 49.9408 33.4095 49.9408 34.2159C49.9408 35.0223 49.2856 35.6775 48.4792 35.6775H45.556C44.7496 35.6775 44.0944 35.0223 44.0944 34.2159C44.0944 33.4095 44.7496 32.7543 45.556 32.7543H48.4792ZM41.4568 18.7263C42.028 18.1551 42.952 18.1551 43.5232 18.7263C44.0944 19.2975 44.0944 20.2215 43.5232 20.7927L41.4568 22.8591C40.8856 23.4303 39.9616 23.4303 39.3904 22.8591C38.8192 22.2879 38.8192 21.3639 39.3904 20.7927L41.4568 18.7263ZM7.58243 35.6775C6.77603 35.6775 6.12083 35.0223 6.12083 34.2159C6.12083 33.4095 6.77603 32.7543 7.58243 32.7543H10.5056C11.312 32.7543 11.9672 33.4095 11.9672 34.2159C11.9672 35.0223 11.312 35.6775 10.5056 35.6775H7.58243ZM12.5384 20.7927C11.9672 20.2215 11.9672 19.2975 12.5384 18.7263C13.1096 18.1551 14.0336 18.1551 14.6048 18.7263L16.6712 20.7927C17.2424 21.3639 17.2424 22.2879 16.6712 22.8591C16.1 23.4303 15.176 23.4303 14.6048 22.8591L12.5384 20.7927ZM26.572 13.7703C26.572 12.9639 27.2272 12.3087 28.0336 12.3087C28.84 12.3087 29.4952 12.9639 29.4952 13.7703V16.6935C29.4952 17.4999 28.84 18.1551 28.0336 18.1551C27.2272 18.1551 26.572 17.4999 26.572 16.6935V13.7703Z" fill="#7E849A"/>
    <path d="M29.0807 41.0984C29.6519 40.5272 29.6463 39.6032 29.0751 39.0264C28.5039 38.4552 27.5743 38.4496 27.0031 39.0208C26.4319 39.592 26.4319 40.516 27.0087 41.0928C27.5799 41.664 28.5095 41.6696 29.0807 41.0984Z" fill="#237BEF"/>
    <path d="M41.7256 28.3528C42.0168 27.7984 41.9328 27.0984 41.468 26.6336C41.0032 26.1688 40.3088 26.0848 39.76 26.3704L38.0968 27.076C31.3768 29.9488 25.1552 32.6088 22.8704 34.8936C21.4424 36.3216 20.7312 38.1864 20.7312 40.0568C20.7312 41.9272 21.448 43.7976 22.8704 45.22L22.904 45.2536C24.3264 46.6592 26.1856 47.3648 28.0392 47.3592C29.9096 47.3592 31.78 46.648 33.2024 45.2256L33.292 45.1304C35.5656 42.7616 38.192 36.624 41.02 29.9992L41.7256 28.3528ZM31.2032 43.0976L31.136 43.1592C30.2792 44.016 29.1536 44.4472 28.0392 44.4416C26.9192 44.4416 25.7936 44.0104 24.9368 43.1536C24.0856 42.3024 23.6544 41.1768 23.6544 40.0568C23.6544 38.9368 24.08 37.8168 24.9368 36.96C26.684 35.2128 31.8472 32.928 37.6656 30.436C35.2016 36.1872 32.9336 41.3056 31.2032 43.0976Z" fill="#237BEF"/>
    <path d="M41.5968 20.3952C41.608 20.412 41.6136 20.4288 41.6248 20.4456C41.7984 20.244 41.972 20.0424 42.1568 19.8464C42.2184 19.7848 42.28 19.7232 42.3416 19.6616C42.3248 19.6728 42.308 19.684 42.308 19.684C42.2072 19.768 42.1064 19.8632 42.0112 19.9584C41.8712 20.0984 41.7368 20.244 41.5968 20.3952Z" fill="#237BEF"/>
</svg>
