<svg width="16" height="16" viewBox="0 0 16 16" fill="none" xmlns="http://www.w3.org/2000/svg">
<g clip-path="url(#clip0)">
<path d="M2.33561 10.2524C2.24504 10.4331 2.28031 10.6515 2.42301 10.7943L2.53764 10.9089C2.86882 10.5165 3.2548 10.0906 3.72294 9.62256C3.75602 9.58948 3.79008 9.57349 3.82328 9.54297L3.08586 8.80542C2.65715 9.58081 2.40715 10.1106 2.33561 10.2524Z" fill="#237BEF"/>
<path d="M6.37466 12.2742C5.90543 12.7434 5.48062 13.1301 5.09036 13.4615L5.24564 13.6168C5.38968 13.7609 5.61014 13.7955 5.79141 13.7023C6.03421 13.5771 6.41605 13.3975 7.22659 12.946L6.45438 12.1738C6.42386 12.2072 6.40787 12.2411 6.37466 12.2742Z" fill="#237BEF"/>
<path d="M6.12475 9.87303C5.786 9.53428 4.83336 9.83799 4.38586 10.2854C2.88878 11.7825 2.21264 12.8439 1.90905 13.4706C1.82201 13.6501 1.85827 13.8651 1.99938 14.0062C2.14074 14.1477 2.35607 14.1836 2.53576 14.0965C3.14843 13.7991 4.19689 13.1261 5.71178 11.6113C6.20385 11.119 6.44665 10.1951 6.12511 9.8734L6.12475 9.87303Z" fill="#237BEF"/>
<path d="M1.46311 6.2409L0.137304 7.5667C-0.0125981 7.71661 -0.0433598 7.94866 0.0628414 8.1325C0.166479 8.3139 0.38352 8.4063 0.590063 8.35101C1.30662 8.15887 1.93711 8.07769 2.36167 8.18658C2.96567 7.11272 3.61472 6.1242 4.3021 5.22625C3.90452 4.97136 2.59067 5.11333 1.46311 6.2409Z" fill="#237BEF"/>
<path d="M7.93423 15.9497C8.11477 16.041 8.3334 16.0057 8.47634 15.8627L9.80227 14.5369C10.8288 13.5101 11.0094 12.1854 10.7765 11.7654C9.77505 12.5201 8.76052 13.1575 7.81399 13.691C7.8793 14.0598 7.83584 14.4176 7.68142 15.4625C7.65127 15.6648 7.75576 15.8605 7.93423 15.9497Z" fill="#237BEF"/>
<path d="M9.30621 4.70215C8.758 5.25049 8.758 6.14246 9.30621 6.6908C9.85455 7.23914 10.7466 7.23914 11.295 6.6908C11.8433 6.14246 11.8433 5.25049 11.295 4.70215C10.7466 4.15381 9.85455 4.15381 9.30621 4.70215Z" fill="#237BEF"/>
<path d="M15.9724 0.457235C15.9555 0.225423 15.771 0.0421957 15.5399 0.0248618C14.3886 -0.0618081 13.2419 0.0797934 12.1179 0.423543C12.2025 1.19576 12.6019 2.03145 13.2838 2.71334C13.9738 3.40328 14.8322 3.80257 15.6183 3.87728C15.921 2.81637 16.0645 1.68014 15.9724 0.457235Z" fill="#237BEF"/>
<path d="M12.6209 3.37634C11.8409 2.59631 11.3646 1.66077 11.2117 0.749878C8.39691 1.9043 5.70233 4.42529 3.57306 7.9668L4.63092 9.02466C5.3537 8.7312 6.23114 8.65369 6.78766 9.21008C7.34491 9.76746 7.26593 10.6445 6.9726 11.3663L8.06525 12.459C10.7901 10.8168 13.9625 8.22949 15.3115 4.78723C14.3784 4.64624 13.4136 4.16907 12.6209 3.37634ZM11.9578 7.35376C11.0441 8.26746 9.55719 8.26746 8.64337 7.35376C7.72955 6.43994 7.72955 4.95288 8.64337 4.03919C9.55719 3.12549 11.0441 3.12549 11.9578 4.03919C12.8716 4.953 12.8716 6.43994 11.9578 7.35376Z" fill="#237BEF"/>
</g>
<defs>
<clipPath id="clip0">
<rect width="16" height="16" fill="white"/>
</clipPath>
</defs>
</svg>
