<svg width="11" height="8" viewBox="0 0 11 8" fill="none" xmlns="http://www.w3.org/2000/svg">
<path d="M5.11182 7.3838C4.853 7.64262 4.33534 7.64262 3.9471 7.3838L0.19412 3.63081C-0.0647066 3.37199 -0.0647066 2.85433 0.19412 2.46609C0.452946 2.20727 0.970599 2.20727 1.35884 2.46609L5.11182 6.34849C5.37065 6.60732 5.37065 7.12497 5.11182 7.3838Z" fill="#237BEF"/>
<path d="M3.94699 7.38383C3.68816 7.12501 3.68816 6.60735 3.94699 6.21911L9.64117 0.52493C9.9 0.266104 10.4177 0.266104 10.8059 0.52493C11.0647 0.783757 11.0647 1.30141 10.8059 1.68965L5.11171 7.38383C4.72347 7.77207 4.20582 7.77207 3.94699 7.38383Z" fill="#237BEF"/>
</svg>
