<svg width="45" height="45" viewBox="0 0 45 45" fill="none" xmlns="http://www.w3.org/2000/svg">
    <path d="M4.18045 25.6365C4.31545 26.2305 3.94195 26.82 3.34795 26.955C2.75395 27.09 2.16445 26.7165 2.02945 26.1225C1.85395 25.3575 1.72345 24.5835 1.63795 23.8095C1.55245 23.0265 1.50745 22.239 1.50745 21.456C1.50745 15.651 3.86095 10.395 7.66345 6.59251C11.4659 2.78551 16.7219 0.432007 22.5269 0.432007C28.3319 0.432007 33.5879 2.78551 37.3949 6.58801C41.1974 10.3905 43.5509 15.6465 43.5509 21.4515C43.5509 22.2345 43.5059 23.0175 43.4159 23.805C43.3304 24.579 43.1954 25.3575 43.0244 26.1225C42.8894 26.7165 42.2999 27.09 41.7059 26.955C41.1119 26.82 40.7384 26.2305 40.8734 25.6365C41.0264 24.966 41.1434 24.273 41.2199 23.562C41.2964 22.8825 41.3369 22.176 41.3369 21.4515C41.3369 16.2585 39.2309 11.556 35.8289 8.14951C32.4269 4.74751 27.7199 2.64151 22.5269 2.64151C17.3339 2.64151 12.6314 4.74751 9.22495 8.14951C5.82295 11.556 3.71695 16.2585 3.71695 21.4515C3.71695 22.176 3.75745 22.8825 3.82945 23.562C3.91045 24.2775 4.03195 24.9705 4.18045 25.6365ZM23.3279 20.691L23.3099 20.673L23.2919 20.655C23.0939 20.466 22.8239 20.349 22.5314 20.349C22.2389 20.349 21.9644 20.466 21.7709 20.655L21.7529 20.673L21.7349 20.691C21.5459 20.889 21.4289 21.159 21.4289 21.4515C21.4289 21.7575 21.5549 22.0365 21.7529 22.2345C21.9509 22.4325 22.2299 22.5585 22.5359 22.5585C22.8419 22.5585 23.1209 22.4325 23.3189 22.2345C23.5169 22.0365 23.6429 21.7575 23.6429 21.4515C23.6339 21.159 23.5169 20.889 23.3279 20.691ZM23.9624 18.459L30.5999 11.8215C31.0319 11.3895 31.7339 11.3895 32.1659 11.8215C32.5979 12.2535 32.5979 12.9555 32.1659 13.3875L25.5239 20.0205C25.7309 20.4525 25.8479 20.9385 25.8479 21.4515C25.8479 22.3695 25.4744 23.1975 24.8759 23.8005C24.2774 24.399 23.4449 24.7725 22.5269 24.7725C21.6089 24.7725 20.7809 24.399 20.1779 23.8005C19.5794 23.202 19.2059 22.3695 19.2059 21.4515C19.2059 20.9385 19.3229 20.4525 19.5299 20.0205L10.6829 11.169C10.2509 10.737 10.2509 10.035 10.6829 9.60301C11.1149 9.17101 11.8169 9.17101 12.2489 9.60301L21.1004 18.4545C21.5324 18.2475 22.0184 18.1305 22.5314 18.1305C23.0399 18.135 23.5259 18.2475 23.9624 18.459ZM4.97695 42.4755C4.71145 42.4755 4.46845 42.381 4.27495 42.2235C4.11295 42.111 3.98245 41.949 3.90145 41.7555C3.81145 41.535 3.78445 41.2965 3.83395 41.067C3.86995 40.9005 3.93295 40.7475 4.03645 40.608L4.04095 40.6035L4.04995 40.59L4.05445 40.581L4.05895 40.572L4.06795 40.563L4.07245 40.5585V40.554L4.08145 40.545L4.09045 40.536L4.09495 40.5315L4.10395 40.5225L4.10845 40.5135L4.11745 40.5045L4.12645 40.4955L4.13095 40.491L4.13545 40.4865L4.14445 40.4775L4.15345 40.4685L9.76045 34.8615C9.98545 34.6365 10.1474 34.389 10.2419 34.1325C10.3364 33.8715 10.3724 33.579 10.3499 33.2595V33.246V33.2325C10.3229 32.9445 10.2509 32.688 10.1339 32.463L10.1114 32.4225C9.97195 32.175 9.77395 31.959 9.51745 31.7745C9.28345 31.608 9.07645 31.5135 8.86495 31.464C8.62645 31.41 8.32495 31.3965 7.96945 31.3965C7.49245 31.3965 7.08745 31.536 6.77245 31.77C6.43495 32.022 6.18295 32.391 6.05245 32.8275C5.87245 33.408 5.25595 33.7365 4.67545 33.5565C4.09495 33.3765 3.76645 32.76 3.94645 32.1795C4.21645 31.2975 4.74295 30.5325 5.46295 29.997C6.15145 29.484 7.00195 29.1825 7.97395 29.1825C8.46895 29.1825 8.90095 29.205 9.36445 29.313C9.84595 29.4255 10.3049 29.6235 10.7909 29.97L10.8134 29.988C11.3309 30.3615 11.7404 30.816 12.0374 31.338L12.0734 31.401C12.3434 31.896 12.5099 32.445 12.5639 33.03L12.5684 33.057L12.5729 33.084V33.111C12.6179 33.732 12.5369 34.3305 12.3344 34.8885C12.1274 35.4465 11.8034 35.955 11.3669 36.4005L11.3489 36.423L7.52395 40.248H11.4929C12.1049 40.248 12.5999 40.743 12.5999 41.355C12.5999 41.967 12.1049 42.462 11.4929 42.462H4.97695V42.4755ZM30.3164 27.792C30.4829 27.207 31.0949 26.865 31.6799 27.0315C32.2649 27.198 32.6069 27.81 32.4404 28.395L28.0124 43.884C27.8459 44.469 27.2339 44.811 26.6489 44.6445C26.0639 44.478 25.7219 43.866 25.8884 43.281L30.3164 27.792ZM35.8064 31.4145C35.1944 31.4145 34.6994 30.9195 34.6994 30.3075C34.6994 29.6955 35.1944 29.2005 35.8064 29.2005H42.3359C42.5429 29.2005 42.7274 29.259 42.8849 29.3445L42.9299 29.3715C43.1144 29.4795 43.2494 29.6235 43.3484 29.799C43.4429 29.97 43.4969 30.1635 43.4969 30.3705C43.5014 30.5775 43.4429 30.771 43.3484 30.942L36.7514 41.94C36.4409 42.462 35.7614 42.633 35.2394 42.318C34.7174 42.0075 34.5464 41.328 34.8614 40.806L40.4954 31.4145H35.8064ZM14.7869 30.303C14.7869 29.6955 15.2819 29.2005 15.8894 29.2005C16.4969 29.2005 16.9919 29.6955 16.9919 30.303V35.8335H21.4199V30.303C21.4199 29.691 21.9149 29.196 22.5269 29.196C23.1389 29.196 23.6339 29.691 23.6339 30.303V36.945V41.373C23.6339 41.985 23.1389 42.48 22.5269 42.48C21.9149 42.48 21.4199 41.985 21.4199 41.373V38.052H15.8894C15.2819 38.0475 14.7869 37.5525 14.7869 36.945V30.303Z" fill="#7E849A"/>
    <path d="M30.6091 11.8216L23.9715 18.4591C23.535 18.2476 23.049 18.135 22.5405 18.1306C22.0275 18.1306 21.5415 18.2476 21.1095 18.4546L12.258 9.60305C11.826 9.17105 11.124 9.17105 10.692 9.60305C10.26 10.0351 10.26 10.7371 10.692 11.1691L19.539 20.0205C19.332 20.4525 19.215 20.9386 19.215 21.4516C19.215 22.3696 19.5885 23.2021 20.187 23.8006C20.79 24.3991 21.618 24.7725 22.536 24.7725C23.454 24.7725 24.2865 24.3991 24.885 23.8006C25.4835 23.1976 25.857 22.3696 25.857 21.4516C25.857 20.9386 25.74 20.4525 25.533 20.0205L32.1751 13.3876C32.607 12.9556 32.607 12.2536 32.1751 11.8216C31.743 11.3896 31.041 11.3896 30.6091 11.8216ZM23.328 22.2346C23.13 22.4326 22.851 22.5585 22.545 22.5585C22.239 22.5585 21.96 22.4326 21.762 22.2346C21.564 22.0366 21.438 21.7576 21.438 21.4516C21.438 21.1591 21.555 20.889 21.744 20.691L21.78 20.655C21.9735 20.466 22.248 20.3491 22.5405 20.3491C22.833 20.3491 23.103 20.466 23.301 20.655L23.319 20.673L23.337 20.691C23.526 20.889 23.643 21.1591 23.652 21.4516C23.652 21.7576 23.526 22.0366 23.328 22.2346Z" fill="#237BEF"/>
</svg>
