<svg width="49" height="15" viewBox="0 0 49 15" fill="none" xmlns="http://www.w3.org/2000/svg">
<g clip-path="url(#clip0)">
<path d="M15 2.84906C14.4422 3.09375 13.8478 3.25594 13.2281 3.33469C13.8656 2.95406 14.3522 2.35594 14.5809 1.635C13.9866 1.98937 13.3303 2.23969 12.6309 2.37938C12.0666 1.77844 11.2622 1.40625 10.3847 1.40625C8.68219 1.40625 7.31156 2.78813 7.31156 4.48219C7.31156 4.72594 7.33219 4.96031 7.38281 5.18344C4.82625 5.05875 2.56406 3.83344 1.04437 1.96688C0.779062 2.42719 0.623438 2.95406 0.623438 3.52125C0.623438 4.58625 1.17188 5.53031 1.98937 6.07687C1.49531 6.0675 1.01063 5.92406 0.6 5.69812C0.6 5.7075 0.6 5.71969 0.6 5.73187C0.6 7.22625 1.66594 8.4675 3.06375 8.75344C2.81344 8.82188 2.54063 8.85469 2.2575 8.85469C2.06063 8.85469 1.86187 8.84344 1.67531 8.80219C2.07375 10.02 3.20438 10.9153 4.54875 10.9444C3.5025 11.7628 2.17406 12.2559 0.735938 12.2559C0.48375 12.2559 0.241875 12.2447 0 12.2137C1.36219 13.0922 2.97656 13.5938 4.7175 13.5938C10.3763 13.5938 13.47 8.90625 13.47 4.84312C13.47 4.70719 13.4653 4.57594 13.4587 4.44563C14.0691 4.0125 14.5819 3.47156 15 2.84906Z" fill="#7E849A"/>
</g>
<path d="M20.3359 6.46484C19.6927 6.27995 19.224 6.05339 18.9297 5.78516C18.638 5.51432 18.4922 5.18099 18.4922 4.78516C18.4922 4.33724 18.6706 3.96745 19.0273 3.67578C19.3867 3.38151 19.8529 3.23438 20.4258 3.23438C20.8164 3.23438 21.1641 3.3099 21.4688 3.46094C21.776 3.61198 22.013 3.82031 22.1797 4.08594C22.349 4.35156 22.4336 4.64193 22.4336 4.95703H21.6797C21.6797 4.61328 21.5703 4.34375 21.3516 4.14844C21.1328 3.95052 20.8242 3.85156 20.4258 3.85156C20.056 3.85156 19.7669 3.93359 19.5586 4.09766C19.3529 4.25911 19.25 4.48438 19.25 4.77344C19.25 5.00521 19.3477 5.20182 19.543 5.36328C19.7409 5.52214 20.0755 5.66797 20.5469 5.80078C21.0208 5.93359 21.3906 6.08073 21.6562 6.24219C21.9245 6.40104 22.1224 6.58724 22.25 6.80078C22.3802 7.01432 22.4453 7.26562 22.4453 7.55469C22.4453 8.01562 22.2656 8.38542 21.9062 8.66406C21.5469 8.9401 21.0664 9.07812 20.4648 9.07812C20.0742 9.07812 19.7096 9.00391 19.3711 8.85547C19.0326 8.70443 18.7708 8.4987 18.5859 8.23828C18.4036 7.97786 18.3125 7.68229 18.3125 7.35156H19.0664C19.0664 7.69531 19.1927 7.96745 19.4453 8.16797C19.7005 8.36589 20.0404 8.46484 20.4648 8.46484C20.8607 8.46484 21.1641 8.38411 21.375 8.22266C21.5859 8.0612 21.6914 7.84115 21.6914 7.5625C21.6914 7.28385 21.5938 7.06901 21.3984 6.91797C21.2031 6.76432 20.849 6.61328 20.3359 6.46484ZM25.9062 8.58203C25.625 8.91276 25.2122 9.07812 24.668 9.07812C24.2174 9.07812 23.8737 8.94792 23.6367 8.6875C23.4023 8.42448 23.2839 8.03646 23.2812 7.52344V4.77344H24.0039V7.50391C24.0039 8.14453 24.2643 8.46484 24.7852 8.46484C25.3372 8.46484 25.7044 8.25911 25.8867 7.84766V4.77344H26.6094V9H25.9219L25.9062 8.58203ZM31.2812 6.93359C31.2812 7.57682 31.1341 8.09505 30.8398 8.48828C30.5456 8.88151 30.1471 9.07812 29.6445 9.07812C29.1315 9.07812 28.7279 8.91536 28.4336 8.58984V10.625H27.7109V4.77344H28.3711L28.4062 5.24219C28.7005 4.8776 29.1094 4.69531 29.6328 4.69531C30.1406 4.69531 30.5417 4.88672 30.8359 5.26953C31.1328 5.65234 31.2812 6.1849 31.2812 6.86719V6.93359ZM30.5586 6.85156C30.5586 6.375 30.457 5.9987 30.2539 5.72266C30.0508 5.44661 29.7721 5.30859 29.418 5.30859C28.9805 5.30859 28.6523 5.5026 28.4336 5.89062V7.91016C28.6497 8.29557 28.9805 8.48828 29.4258 8.48828C29.7721 8.48828 30.0469 8.35156 30.25 8.07812C30.4557 7.80208 30.5586 7.39323 30.5586 6.85156ZM35.7734 6.93359C35.7734 7.57682 35.6263 8.09505 35.332 8.48828C35.0378 8.88151 34.6393 9.07812 34.1367 9.07812C33.6237 9.07812 33.2201 8.91536 32.9258 8.58984V10.625H32.2031V4.77344H32.8633L32.8984 5.24219C33.1927 4.8776 33.6016 4.69531 34.125 4.69531C34.6328 4.69531 35.0339 4.88672 35.3281 5.26953C35.625 5.65234 35.7734 6.1849 35.7734 6.86719V6.93359ZM35.0508 6.85156C35.0508 6.375 34.9492 5.9987 34.7461 5.72266C34.543 5.44661 34.2643 5.30859 33.9102 5.30859C33.4727 5.30859 33.1445 5.5026 32.9258 5.89062V7.91016C33.1419 8.29557 33.4727 8.48828 33.918 8.48828C34.2643 8.48828 34.5391 8.35156 34.7422 8.07812C34.9479 7.80208 35.0508 7.39323 35.0508 6.85156ZM36.5039 6.84766C36.5039 6.43359 36.5846 6.0612 36.7461 5.73047C36.9102 5.39974 37.1367 5.14453 37.4258 4.96484C37.7174 4.78516 38.0495 4.69531 38.4219 4.69531C38.9974 4.69531 39.4622 4.89453 39.8164 5.29297C40.1732 5.69141 40.3516 6.22135 40.3516 6.88281V6.93359C40.3516 7.34505 40.2721 7.71484 40.1133 8.04297C39.957 8.36849 39.7318 8.6224 39.4375 8.80469C39.1458 8.98698 38.8099 9.07812 38.4297 9.07812C37.8568 9.07812 37.3919 8.87891 37.0352 8.48047C36.681 8.08203 36.5039 7.55469 36.5039 6.89844V6.84766ZM37.2305 6.93359C37.2305 7.40234 37.3385 7.77865 37.5547 8.0625C37.7734 8.34635 38.0651 8.48828 38.4297 8.48828C38.7969 8.48828 39.0885 8.34505 39.3047 8.05859C39.5208 7.76953 39.6289 7.36589 39.6289 6.84766C39.6289 6.38411 39.5182 6.00911 39.2969 5.72266C39.0781 5.43359 38.7865 5.28906 38.4219 5.28906C38.0651 5.28906 37.7773 5.43099 37.5586 5.71484C37.3398 5.9987 37.2305 6.40495 37.2305 6.93359ZM43.3008 5.42188C43.1914 5.40365 43.0729 5.39453 42.9453 5.39453C42.4714 5.39453 42.1497 5.59635 41.9805 6V9H41.2578V4.77344H41.9609L41.9727 5.26172C42.2096 4.88411 42.5456 4.69531 42.9805 4.69531C43.1211 4.69531 43.2279 4.71354 43.3008 4.75V5.42188ZM45.1445 3.75V4.77344H45.9336V5.33203H45.1445V7.95312C45.1445 8.1224 45.1797 8.25 45.25 8.33594C45.3203 8.41927 45.4401 8.46094 45.6094 8.46094C45.6927 8.46094 45.8073 8.44531 45.9531 8.41406V9C45.763 9.05208 45.5781 9.07812 45.3984 9.07812C45.0755 9.07812 44.832 8.98047 44.668 8.78516C44.5039 8.58984 44.4219 8.3125 44.4219 7.95312V5.33203H43.6523V4.77344H44.4219V3.75H45.1445Z" fill="#7E849A"/>
<defs>
<clipPath id="clip0">
<rect width="15" height="15" fill="white"/>
</clipPath>
</defs>
</svg>
