<svg width="22" height="13" viewBox="0 0 22 13" fill="none" xmlns="http://www.w3.org/2000/svg">
<path d="M19.0608 5.39538C19.437 5.94098 19.6526 6.58118 19.679 7.24118C21.186 7.77358 21.9758 9.42798 21.4412 10.935C21.032 12.09 19.9408 12.8622 18.7176 12.8644H4.25256C3.23616 12.8666 2.25936 12.464 1.53776 11.7468L7.67576 6.88918C7.90016 7.01018 8.15756 7.07838 8.43256 7.07838C8.67016 7.07838 8.90336 7.02558 9.11896 6.92438L12.045 9.48298C11.7766 10.33 12.2452 11.232 13.0922 11.5004C13.9392 11.7688 14.8412 11.3002 15.1096 10.4532C15.2218 10.1034 15.2086 9.72498 15.0744 9.38178C15.07 9.38398 19.0608 5.39538 19.0608 5.39538ZM18.1522 4.48678L14.1614 8.47538C13.9744 8.40278 13.7742 8.36538 13.574 8.36538C13.3364 8.36538 13.1032 8.41818 12.8876 8.51938L9.96156 5.96078C10.23 5.11378 9.76136 4.21178 8.91436 3.94338C8.06736 3.67498 7.16536 4.14358 6.89696 4.99058C6.80456 5.28098 6.79796 5.59118 6.87496 5.88598L0.785357 10.704C-0.151843 8.78998 0.640157 6.47998 2.55416 5.54278C3.09536 5.27878 3.68936 5.14458 4.29216 5.14898C4.64636 2.33078 7.21816 0.330982 10.0364 0.685182C12.0758 0.940382 13.7676 2.38578 14.3374 4.36138C14.8852 4.03578 15.51 3.86418 16.1458 3.86418C16.8894 3.86418 17.5802 4.09298 18.1522 4.48678Z" fill="#7E849A"/>
</svg>
