<svg width="17" height="14" viewBox="0 0 17 14" fill="none" xmlns="http://www.w3.org/2000/svg">
<path d="M16.9999 1.65738C16.3678 1.93846 15.6941 2.12477 14.9918 2.21523C15.7143 1.778 16.2658 1.09092 16.525 0.262769C15.8514 0.669846 15.1076 0.957385 14.315 1.11785C13.6754 0.427539 12.7638 0 11.7693 0C9.83975 0 8.28638 1.58738 8.28638 3.53338C8.28638 3.81338 8.30975 4.08262 8.36713 4.33892C5.46969 4.19569 2.90588 2.78815 1.18356 0.644C0.882876 1.17277 0.706501 1.778 0.706501 2.42954C0.706501 3.65292 1.32806 4.73738 2.25456 5.36523C1.69463 5.35446 1.14531 5.18969 0.679939 4.93015C0.679939 4.94092 0.679939 4.95492 0.679939 4.96892C0.679939 6.68554 1.888 8.11138 3.47219 8.43985C3.1885 8.51846 2.87931 8.55615 2.55844 8.55615C2.33531 8.55615 2.11006 8.54323 1.89863 8.49585C2.35019 9.89477 3.63156 10.9232 5.15519 10.9566C3.96944 11.8968 2.46388 12.4632 0.834001 12.4632C0.548189 12.4632 0.274064 12.4503 -6.10352e-05 12.4148C1.54375 13.4238 3.37338 14 5.34644 14C11.7597 14 15.2659 8.61539 15.2659 3.948C15.2659 3.79185 15.2606 3.64108 15.2532 3.49138C15.9449 2.99385 16.5261 2.37246 16.9999 1.65738Z" fill="#7E849A"/>
</svg>
