<svg width="8" height="14" viewBox="0 0 8 14" fill="none" xmlns="http://www.w3.org/2000/svg">
<path d="M7.49934 0.00291293L5.68387 0C3.64426 0 2.32617 1.35233 2.32617 3.44542V5.03399H0.500797C0.343063 5.03399 0.215332 5.16187 0.215332 5.3196V7.62126C0.215332 7.77899 0.343209 7.90672 0.500797 7.90672H2.32617V13.7145C2.32617 13.8723 2.4539 14 2.61163 14H4.99322C5.15096 14 5.27869 13.8721 5.27869 13.7145V7.90672H7.41298C7.57071 7.90672 7.69844 7.77899 7.69844 7.62126L7.69931 5.3196C7.69931 5.24386 7.66917 5.17133 7.61571 5.11773C7.56226 5.06414 7.48944 5.03399 7.4137 5.03399H5.27869V3.68734C5.27869 3.04008 5.43293 2.71151 6.27607 2.71151L7.49905 2.71107C7.65664 2.71107 7.78437 2.58319 7.78437 2.4256V0.288381C7.78437 0.130936 7.65679 0.00320423 7.49934 0.00291293Z" fill="#AAB1C4"/>
</svg>
