<svg width="14" height="14" viewBox="0 0 14 14" fill="none" xmlns="http://www.w3.org/2000/svg">
<path d="M10.1364 0H3.86341C1.73313 0 0 1.73321 0 3.86349V10.1365C0 12.2669 1.73313 14 3.86341 14H10.1364C12.2669 14 14 12.2668 14 10.1365V3.86349C14.0001 1.73321 12.2669 0 10.1364 0ZM12.7579 10.1365C12.7579 11.582 11.582 12.7579 10.1365 12.7579H3.86341C2.41805 12.7579 1.24215 11.582 1.24215 10.1365V3.86349C1.24215 2.41813 2.41805 1.24215 3.86341 1.24215H10.1364C11.5819 1.24215 12.7579 2.41813 12.7579 3.86349L12.7579 10.1365Z" fill="#AAB1C4"/>
<path d="M7.00003 3.39275C5.01085 3.39275 3.39258 5.01102 3.39258 7.00019C3.39258 8.98928 5.01085 10.6075 7.00003 10.6075C8.9892 10.6075 10.6075 8.98928 10.6075 7.00019C10.6075 5.01102 8.9892 3.39275 7.00003 3.39275ZM7.00003 9.36524C5.69586 9.36524 4.63473 8.30428 4.63473 7.00011C4.63473 5.69586 5.69577 4.63481 7.00003 4.63481C8.30428 4.63481 9.36533 5.69586 9.36533 7.00011C9.36533 8.30428 8.3042 9.36524 7.00003 9.36524Z" fill="#AAB1C4"/>
<path d="M10.7588 2.33952C10.5194 2.33952 10.2843 2.43641 10.1153 2.60617C9.94549 2.7751 9.84785 3.01028 9.84785 3.25043C9.84785 3.48984 9.94557 3.72493 10.1153 3.89469C10.2843 4.06363 10.5194 4.16134 10.7588 4.16134C10.9989 4.16134 11.2333 4.06363 11.403 3.89469C11.5728 3.72493 11.6697 3.48975 11.6697 3.25043C11.6697 3.01028 11.5728 2.7751 11.403 2.60617C11.2341 2.43641 10.9989 2.33952 10.7588 2.33952Z" fill="#AAB1C4"/>
</svg>
