<svg width="24" height="14" viewBox="0 0 24 14" fill="none" xmlns="http://www.w3.org/2000/svg">
<path d="M21.1182 5.44294C21.5438 6.06802 21.7876 6.80148 21.8175 7.55763C23.5222 8.16758 24.4156 10.063 23.8108 11.7895C23.348 13.1128 22.1136 13.9975 20.73 14H4.36766C3.21794 14.0025 2.11302 13.5413 1.29677 12.7196L8.23988 7.15435C8.49371 7.29297 8.78487 7.37111 9.09594 7.37111C9.36471 7.37111 9.6285 7.31062 9.87238 7.19468L13.1822 10.126C12.8786 11.0964 13.4086 12.1298 14.3667 12.4373C15.3248 12.7448 16.3451 12.2079 16.6487 11.2375C16.7757 10.8368 16.7607 10.4033 16.6089 10.0101C16.604 10.0126 21.1182 5.44294 21.1182 5.44294ZM20.0904 4.40197L15.5762 8.97162C15.3646 8.88844 15.1382 8.84559 14.9117 8.84559C14.643 8.84559 14.3792 8.90609 14.1353 9.02203L10.8255 6.0907C11.1291 5.12031 10.599 4.08691 9.64094 3.77941C8.68284 3.47192 7.66253 4.00878 7.35892 4.97917C7.2544 5.31187 7.24694 5.66726 7.33404 6.005L0.44568 11.5249C-0.61445 9.33205 0.281434 6.68554 2.44649 5.61181C3.05868 5.30935 3.73059 5.1556 4.41246 5.16064C4.81312 1.9319 7.72225 -0.359226 10.9101 0.0465727C13.217 0.338949 15.1307 1.99491 15.7753 4.25831C16.3949 3.88528 17.1017 3.68868 17.8209 3.68868C18.662 3.68868 19.4434 3.95081 20.0904 4.40197Z" fill="#7E849A"/>
</svg>
