<svg width="15" height="14" viewBox="0 0 15 14" fill="none" xmlns="http://www.w3.org/2000/svg">
<path d="M0.264944 6.41603L3.72124 7.70603L5.05904 12.0084C5.14464 12.2839 5.48159 12.3858 5.70524 12.2029L7.63184 10.6323C7.83379 10.4678 8.12144 10.4596 8.33249 10.6128L11.8074 13.1356C12.0466 13.3095 12.3856 13.1784 12.4456 12.8893L14.9911 0.644782C15.0566 0.328982 14.7463 0.0655318 14.4456 0.181832L0.260894 5.65388C-0.0891557 5.78888 -0.0861058 6.28448 0.264944 6.41603ZM4.84344 7.01933L11.5983 2.85898C11.7197 2.78443 11.8446 2.94858 11.7404 3.04528L6.16564 8.22728C5.96969 8.40968 5.84329 8.65378 5.80749 8.91873L5.61759 10.326C5.59244 10.5139 5.32849 10.5326 5.27664 10.3507L4.54629 7.78448C4.46264 7.49178 4.58454 7.17913 4.84344 7.01933Z" fill="#7E849A"/>
</svg>
