<svg width="17" height="14" viewBox="0 0 17 14" fill="none" xmlns="http://www.w3.org/2000/svg">
<path d="M0.284014 6.71295L3.98908 8.0958L5.42317 12.7078C5.51493 13.0032 5.87614 13.1124 6.11588 12.9164L8.18115 11.2327C8.39764 11.0563 8.70599 11.0475 8.93223 11.2118L12.6572 13.9162C12.9137 14.1026 13.2771 13.9621 13.3414 13.6522L16.0701 0.526311C16.1404 0.187781 15.8077 -0.0946306 15.4854 0.0300402L0.279672 5.89594C-0.0955728 6.04066 -0.0923033 6.57193 0.284014 6.71295ZM5.19206 7.35967L12.4331 2.89988C12.5633 2.81996 12.6972 2.99593 12.5854 3.09959L6.60942 8.65456C6.39937 8.85009 6.26387 9.11176 6.22549 9.39578L6.02192 10.9044C5.99496 11.1058 5.71202 11.1258 5.65643 10.9309L4.87352 8.17989C4.78385 7.86613 4.91452 7.53097 5.19206 7.35967Z" fill="#AAB1C4"/>
</svg>
