<svg width="15" height="15" viewBox="0 0 15 15" fill="none" xmlns="http://www.w3.org/2000/svg">
<path d="M14.4153 3.12784C13.8739 2.4842 12.8742 2.22165 10.965 2.22165H4.03481C2.08195 2.22165 1.06534 2.50113 0.525919 3.18639C0 3.85452 0 4.83896 0 6.20144V8.79833C0 11.4379 0.624 12.7781 4.03481 12.7781H10.9651C12.6207 12.7781 13.5381 12.5464 14.1316 11.9784C14.7403 11.3959 15 10.4448 15 8.79833V6.20144C15 4.76459 14.9593 3.77434 14.4153 3.12784ZM9.63005 7.85841L6.48305 9.50313C6.41269 9.53991 6.33576 9.55815 6.25892 9.55815C6.17192 9.55815 6.08511 9.53473 6.00823 9.48818C5.86345 9.40046 5.77505 9.24354 5.77505 9.07428V5.79538C5.77505 5.62641 5.86321 5.46963 6.00769 5.38186C6.15223 5.29408 6.33198 5.28809 6.48194 5.36599L9.62893 7.00012C9.78905 7.08325 9.8896 7.24854 9.88984 7.42888C9.89003 7.60936 9.78992 7.77489 9.63005 7.85841Z" fill="#7E849A"/>
</svg>
